
<svg id="Layer_1" enable-background="new 0 0 512 512" height="512" viewBox="0 0 512 512" width="512" xmlns="http://www.w3.org/2000/svg"><g><path d="m256 0c-103.278 0-187 83.774-187 187.101 0 113.753 77.942 140.558 118.835 210.301 38.07 64.902 38.101 114.598 68.165 114.598 31.177 0 29.209-46.296 68.165-114.597 38.945-68.312 118.835-96.549 118.835-210.302 0-103.327-83.722-187.101-187-187.101zm0 258.802c-38.636 0-69.958-31.338-69.958-69.99 0-19.337 7.83-36.829 20.493-49.5 12.662-12.661 30.147-20.501 49.465-20.501 38.636 0 69.947 31.338 69.947 70.001 0 38.652-31.311 69.99-69.947 69.99z" fill="#4caf50"/><g><path d="m256 0c-5.205 0-10.357.223-15.455.64 96.046 7.864 171.545 88.341 171.545 186.461 0 113.753-79.89 141.99-118.835 210.301-30.854 54.097-36.039 94.384-52.351 108.803 4.182 3.767 9.027 5.795 15.096 5.795 31.177 0 29.209-46.296 68.165-114.597 38.945-68.312 118.835-96.549 118.835-210.302 0-103.327-83.722-187.101-187-187.101z" fill="#43a047"/></g><path d="m206.533 139.315-122.946 123.013c-8.993-20.493-14.586-44.735-14.586-75.225 0-51.237 20.586-97.656 53.924-131.443z" fill="#f44336"/><path d="m305.954 237.803c12.37-12.625 19.998-29.918 19.998-48.993 0-38.663-31.32-70-69.95-70-19.321 0-36.808 7.837-49.468 20.504l123.85-123.918c44.27 19.215 79.639 55.069 98.252 99.676l-122.678 122.745z" fill="#42a5f5"/><path d="m330.384 15.396-10.44 10.446c41.535 24.508 72.777 64.613 85.667 112.268l23.026-23.038c-18.614-44.608-53.983-80.461-98.253-99.676z" fill="#2196f3"/><path d="m305.958 237.817-135.026 135.101c-29.358-37.003-67.025-64.206-87.344-110.59l122.946-123.013c-12.66 12.667-20.493 30.164-20.493 49.496 0 38.651 31.32 69.988 69.961 69.988 19.566 0 37.256-8.039 49.952-20.996z" fill="#ffc107"/><path d="m330.384 15.396-123.851 123.919-83.608-83.654c33.908-34.367 81.009-55.661 133.077-55.661 26.434 0 51.592 5.492 74.382 15.396z" fill="#1e88e5"/><path d="m256.002 0c-5.204 0-10.356.222-15.453.64-.001 0-.002.001-.003.001 28.811 2.359 55.769 11.258 79.399 25.201l10.44-10.446c-22.791-9.904-47.949-15.396-74.383-15.396z" fill="#1976d2"/></g></svg>