
<svg id="Layer_1" enable-background="new 0 0 50 50" height="512" viewBox="0 0 50 50" width="512" xmlns="http://www.w3.org/2000/svg"><g id="_x31_3"><path d="m5.2 30.8h4c.6 0 1-.4 1-1s-.4-1-1-1h-4c-1.2 0-2.2-1-2.2-2.2v-19.1c0-.1.1-.3.3-.3h4.2c.8.1 1.7.2 2.7.4.6.2 1.2-.3 1.2-1v-1c0-.4.3-.7.6-.7h4.5c2.7 0 4.8 2.2 4.8 4.8v10.9c0 .6.4 1 1 1s1-.4 1-1v-10.9c0-3.8-3.1-6.8-6.8-6.8h-4.5c-1.4 0-2.6 1.1-2.6 2.6-.3-.1-.6-.1-.9-.2v-1.8c0-1.2-1-2.2-2.2-2.2h-1.7c-.7-.1-1.2.1-1.6.6-.4.4-.7 1-.7 1.6v2c-.8.3-1.3 1.1-1.3 2v19.1c0 2.3 1.9 4.2 4.2 4.2zm-.8-27.5s.1-.1.2-.1h1.7c.1 0 .2.1.2.2v1.8h-2.2v-1.8s0-.1.1-.1z"/><path d="m18.3 12.4c.6 0 1-.4 1-1v-1.7c0-1.5-1.2-2.7-2.7-2.7h-1.2c-.6 0-1 .4-1 1s.4 1 1 1h1.2c.4 0 .7.3.7.7v1.6c0 .6.5 1.1 1 1.1z"/><path d="m48 13.2h-11.7c-1.4 0-2.8.6-3.7 1.6l-10 9.9-6.5 1.6c-1.6.4-3 1.6-3.6 3.2l-1.9 5.2c-.5.2-1 .5-1.3.9-.4.8-.5 1.6-.3 2.4l.7 2.4c.3 1.1 1.3 1.8 2.5 1.8h3.3c.5 3.7 3.7 6.5 7.5 6.5s7-2.9 7.5-6.5h17.5c.6 0 1-.4 1-1s-.4-1-1-1h-17.5c-.2-1.3-.7-2.6-1.5-3.6h19c.6 0 1-.4 1-1s-.4-1-1-1h-21.3c-1.2-.6-2.5-.9-3.7-.9-1.3 0-2.6.4-3.6.9h-6.5l1.6-4.4c.3-1 1.2-1.7 2.2-1.9l6.7-1.7c.2 0 .3-.1.5-.3l10.2-10.2c.6-.7 1.4-1 2.3-1h11.6c.6 0 1-.4 1-1s-.4-.9-1-.9zm-36.4 26.6-.7-2.4c-.1-.3 0-.5.1-.5.1-.1.2-.2.5-.2h5.5c-.8 1-1.3 2.3-1.5 3.6h-3.3c-.2 0-.5-.2-.6-.5zm11.4 7c-3.1 0-5.5-2.5-5.5-5.5s2.5-5.5 5.5-5.5 5.5 2.4 5.5 5.5c.1 3-2.4 5.5-5.5 5.5z"/><path d="m49 26.8v-8.3c0-.6-.4-1-1-1h-10.9c-.7 0-1.4.3-1.9.8l-5.1 5c-.8.8-1 1.9-.6 2.9s1.4 1.7 2.5 1.7h16c.6-.1 1-.5 1-1.1zm-17.6-1.4c0-.1-.1-.4.1-.7l5.1-5c.1-.1.3-.2.5-.2h2v6.3h-7.1c-.4 0-.5-.2-.6-.4zm15.6.4h-5.8v-6.3h5.8z"/><path d="m23 37.5c-2 0-3.7 1.7-3.7 3.7s1.7 3.7 3.7 3.7 3.7-1.7 3.7-3.7-1.6-3.7-3.7-3.7zm0 5.5c-.9 0-1.7-.8-1.7-1.7s.8-1.7 1.7-1.7 1.7.8 1.7 1.7-.7 1.7-1.7 1.7z"/><path d="m40.8 30.5c-.6 0-1 .4-1 1s.4 1 1 1h.4c.6 0 1-.4 1-1s-.4-1-1-1z"/><path d="m11.4 14.1c-.5.7-3.2 4.5-3.2 6.4 0 2.2 1.8 4.1 4.1 4.1s4-1.8 4-4.1c0-1.9-2.7-5.6-3.2-6.4-.5-.6-1.3-.6-1.7 0zm.8 8.4c-1.1 0-2.1-.9-2.1-2.1 0-.7 1-2.4 2.1-4 1.1 1.6 2 3.4 2 4 .1 1.2-.9 2.1-2 2.1z"/></g></svg>