
<svg height="512" viewBox="0 0 128 128" width="512" xmlns="http://www.w3.org/2000/svg"><g><path d="m95.875 37.753h-63.75a1.749 1.749 0 0 0 -1.75 1.75v48.997a1.749 1.749 0 0 0 1.75 1.75h63.75a1.749 1.749 0 0 0 1.75-1.75v-49a1.749 1.749 0 0 0 -1.75-1.747zm-1.75 48.994h-60.25v-45.494h60.25z"/><path d="m120.812 33a7.2 7.2 0 0 0 -7.187 7.188v5.594l-10.3-15.259a1.75 1.75 0 0 0 -1.45-.77h-75.75a1.75 1.75 0 0 0 -1.45.77l-10.3 15.259v-5.594a7.188 7.188 0 1 0 -14.375 0v47.625a7.188 7.188 0 0 0 14.375 0v-5.595l10.3 15.259a1.75 1.75 0 0 0 1.45.77h75.75a1.75 1.75 0 0 0 1.45-.77l10.3-15.259v5.595a7.188 7.188 0 0 0 14.375 0v-47.625a7.2 7.2 0 0 0 -7.188-7.188zm-109.937 54.813a3.688 3.688 0 0 1 -7.375 0v-47.625a3.688 3.688 0 1 1 7.375 0zm90.07 6.934h-73.89l-12.68-18.785v-23.924l12.68-18.785h73.89l12.68 18.785v23.924zm23.555-6.934a3.688 3.688 0 0 1 -7.375 0v-47.625a3.688 3.688 0 1 1 7.375 0z"/><path d="m40.5 82.813h8.625a1.75 1.75 0 0 0 1.75-1.75v-34.125a1.749 1.749 0 0 0 -1.75-1.75h-8.625a1.749 1.749 0 0 0 -1.75 1.75v34.125a1.75 1.75 0 0 0 1.75 1.75zm1.75-34.125h5.125v30.625h-5.125z"/><path d="m59.687 82.813h8.625a1.75 1.75 0 0 0 1.75-1.75v-34.125a1.749 1.749 0 0 0 -1.75-1.75h-8.625a1.75 1.75 0 0 0 -1.75 1.75v34.125a1.751 1.751 0 0 0 1.75 1.75zm1.75-34.125h5.125v30.625h-5.125z"/><path d="m78.875 82.813h8.625a1.75 1.75 0 0 0 1.75-1.75v-34.125a1.749 1.749 0 0 0 -1.75-1.75h-8.625a1.749 1.749 0 0 0 -1.75 1.75v34.125a1.75 1.75 0 0 0 1.75 1.75zm1.75-34.125h5.125v30.625h-5.125z"/></g></svg>