
<?xml version="1.0" encoding="iso-8859-1"?>
<!-- Generator: Adobe Illustrator 19.0.0, SVG Export Plug-In . SVG Version: 6.00 Build 0)  -->
<svg version="1.1" id="Capa_1" xmlns="http://www.w3.org/2000/svg" xmlns:xlink="http://www.w3.org/1999/xlink" x="0px" y="0px"
	 viewBox="0 0 512.001 512.001" style="enable-background:new 0 0 512.001 512.001;" xml:space="preserve">
<g>
	<g>
		<path d="M495.12,136.145h-18.388c-6.699-20.895-18.696-33.283-32.39-33.283c-0.534,0-1.063,0.033-1.591,0.07
			c-0.318-0.041-0.64-0.07-0.969-0.07H263.06c-19.066,0-34.719,20.938-39.648,50.326H198.99c-22.159,0-40.547,16.511-43.501,37.877
			H7.493c-4.138,0-7.493,3.355-7.493,7.493v34.966c0,4.138,3.355,7.493,7.493,7.493h153.621c22.159,0,40.547-16.511,43.501-37.877
			h21.011c6.508,23.934,20.649,40.164,37.434,40.164h178.72c0.33,0,0.651-0.029,0.969-0.07c0.527,0.037,1.057,0.07,1.591,0.07
			c19.86,0,35.515-26.419,37.554-62.3h13.225c9.466,0,16.88-9.851,16.88-22.428S504.585,136.145,495.12,136.145z M221.783,188.152
			h-22.793c-4.931,0-8.945,4.025-8.948,8.971c-0.012,15.938-12.989,28.906-28.929,28.906H14.985v-19.981h146.128
			c4.931,0,8.945-4.025,8.948-8.971c0.012-15.938,12.989-28.906,28.929-28.906h22.793V188.152z M273.614,228.316H263.06
			c-12.436,0-26.291-22.684-26.291-55.235s13.855-55.235,26.291-55.235h10.554c-8.591,12.649-13.919,32.322-13.919,55.235
			C259.694,195.993,265.023,215.667,273.614,228.316z M420.47,228.316h-15.092c-10.764,0-22.804-23.622-22.804-55.235
			c0-1.657,0.034-3.292,0.1-4.902c0.173-4.232-3.255-7.736-7.49-7.736c-4.01,0-7.339,3.153-7.492,7.16
			c-0.069,1.804-0.104,3.63-0.104,5.479c0,22.913,5.328,42.586,13.919,55.235h-84.025c-10.764,0-22.804-23.622-22.804-55.235
			c0-31.613,12.039-55.235,22.804-55.235h84.025c-0.609,0.897-1.203,1.83-1.778,2.798c-2.93,4.922,0.547,11.165,6.276,11.165h0.364
			c2.635,0,5.034-1.432,6.376-3.7c3.852-6.513,8.344-10.263,12.633-10.263h15.092c-8.591,12.649-13.919,32.322-13.919,55.235
			C406.551,195.993,411.88,215.667,420.47,228.316z M444.34,228.316c-10.765,0-22.804-23.622-22.804-55.235
			c0-31.613,12.039-55.235,22.804-55.235c5.786,0,12.053,7.125,16.487,18.298h-11.794c-9.466,0-16.879,9.851-16.879,22.428
			S439.569,181,449.033,181h17.86C465.1,209.162,454.036,228.316,444.34,228.316z M479.161,166.014h-29.735
			c-0.724-0.628-2.287-3.144-2.287-7.443c0-4.299,1.561-6.813,2.287-7.443h29.735c-0.595,2.321-0.922,4.82-0.922,7.443
			S478.566,163.695,479.161,166.014z M495.12,165.583c-0.782-1.025-1.895-3.383-1.895-7.011s1.113-5.985,1.895-7.011
			c0.783,1.025,1.895,3.383,1.895,7.011S495.903,164.558,495.12,165.583z"/>
	</g>
</g>
<g>
	<g>
		<path d="M495.12,330.999h-13.225c-2.039-35.882-17.695-62.3-37.554-62.3c-0.534,0-1.063,0.033-1.591,0.07
			c-0.318-0.041-0.64-0.07-0.969-0.07H263.06c-16.786,0-30.927,16.229-37.435,40.164h-21.011
			c-2.953-21.365-21.341-37.877-43.5-37.877H7.493c-4.138,0-7.493,3.355-7.493,7.493v34.966c0,4.138,3.355,7.493,7.493,7.493H155.49
			c2.953,21.365,21.341,37.877,43.5,37.877h24.422c4.929,29.387,20.582,50.326,39.648,50.326h178.721c0.33,0,0.651-0.029,0.969-0.07
			c0.528,0.037,1.057,0.07,1.591,0.07c13.696,0,25.691-12.39,32.39-33.284h18.388c9.466,0,16.88-9.851,16.88-22.428
			S504.585,330.999,495.12,330.999z M221.783,343.828h-22.793c-15.939,0-28.917-12.967-28.929-28.905
			c-0.003-4.948-4.017-8.972-8.948-8.972H14.985V285.97h146.128c15.939,0,28.917,12.967,28.929,28.905
			c0.003,4.948,4.017,8.972,8.948,8.972h22.793V343.828z M297.484,394.154c-4.814,0-9.88-4.732-14.012-12.785
			c-1.298-2.529-3.873-4.147-6.715-4.147c-5.676,0-9.259,6.029-6.634,11.062c1.092,2.094,2.258,4.054,3.491,5.869h-10.554
			c-12.436,0-26.291-22.684-26.291-55.235s13.855-55.235,26.291-55.235h10.554c-8.591,12.649-13.919,32.322-13.919,55.235
			c0,0.753,0.006,1.502,0.019,2.247c0.069,4.111,3.384,7.424,7.495,7.424c4.169,0,7.564-3.401,7.49-7.57
			c-0.012-0.696-0.019-1.397-0.019-2.101c0-31.613,12.039-55.235,22.804-55.235h84.025c-8.591,12.649-13.919,32.322-13.919,55.235
			c0,22.913,5.331,42.586,13.921,55.235H297.484z M420.47,394.154h-15.092c-10.764,0-22.804-23.622-22.804-55.235
			c0-31.613,12.039-55.235,22.804-55.235h15.092c-8.591,12.649-13.919,32.322-13.919,55.235
			C406.551,361.831,411.88,381.505,420.47,394.154z M444.34,394.154c-10.765,0-22.804-23.622-22.804-55.235
			c0-31.613,12.039-55.235,22.804-55.235c9.695,0,20.76,19.153,22.553,47.315h-17.86c-9.466,0-16.879,9.851-16.879,22.428
			c0,12.577,7.415,22.428,16.879,22.428h11.794C456.394,387.029,450.127,394.154,444.34,394.154z M479.161,360.869h-29.735
			c-0.724-0.628-2.287-3.144-2.287-7.443s1.561-6.813,2.287-7.443h29.735c-0.595,2.321-0.922,4.82-0.922,7.443
			S478.566,358.549,479.161,360.869z M495.12,360.438c-0.782-1.025-1.895-3.383-1.895-7.011s1.113-5.985,1.895-7.011
			c0.783,1.025,1.895,3.383,1.895,7.011S495.903,359.413,495.12,360.438z"/>
	</g>
</g>
</svg>
