
<svg id="Layer_1" enable-background="new 0 0 512 512" height="512" viewBox="0 0 512 512" width="512" xmlns="http://www.w3.org/2000/svg"><g><path d="m390 330h-44v10h-148v-10h-44v48h-20v-16h-44v16h-20v-64h-70v12h58v64h32v20h-52v-64h-38v12h26v64h64v16h44v-16h20v48h44v-10h148v10h44v-16h32v-44h-32v-20h32v-44h-32zm-268 96h-20v-52h20zm32-16h-20v-20h20zm32 48h-20v-116h20zm160-10h-148v-96h148zm32 10h-20v-116h20zm32-36v20h-20v-20zm0-64v20h-20v-20z"/><path d="m318 112c12.131 0 22-9.869 22-22s-9.869-22-22-22-22 9.869-22 22 9.869 22 22 22zm0-32c5.514 0 10 4.486 10 10s-4.486 10-10 10-10-4.486-10-10 4.486-10 10-10z"/><path d="m512 90c0-12.131-9.869-22-22-22-1.749 0-3.449.211-5.081.599-13.223-16.696-33.578-26.599-54.919-26.599-38.598 0-70 31.402-70 70v.706c-4.27 5.984-7.351 12.893-8.888 20.404-8.766 2.899-15.112 11.165-15.112 20.89 0 12.131 9.869 22 22 22 .819 0 1.627-.049 2.424-.136 5.585 7.634 12.955 13.561 21.342 17.349-9.542 6.91-15.766 18.132-15.766 30.787 0 14.008 7.625 26.262 18.938 32.852-6.676 5.506-10.938 13.839-10.938 23.148 0 16.542 13.458 30 30 30v-12c-9.925 0-18-8.075-18-18s8.075-18 18-18v-12c-14.336 0-26-11.663-26-26s11.664-26 26-26v-12c-12.49 0-24.176-5.517-32.117-14.949 4.949-4.037 8.117-10.18 8.117-17.051 0-10.218-7.003-18.831-16.461-21.293 4.969-17.871 21.4-30.707 40.461-30.707v-12c-11.307 0-21.89 3.523-30.644 9.567 5.709-26.025 28.931-45.567 56.644-45.567 17.054 0 33.345 7.64 44.313 20.595-3.901 3.972-6.313 9.411-6.313 15.405 0 11.456 8.802 20.89 19.998 21.905 0 .032.002.063.002.095 0 10.869-2.926 21.206-8.514 30.279-5.238-2.727-11.183-4.279-17.486-4.279v12c14.336 0 26 11.663 26 26s-11.664 26-26 26v12c9.925 0 18 8.075 18 18 0 8.246-5.581 15.198-13.16 17.32.755-2.983 1.16-6.105 1.16-9.32h-12c0 14.337-11.664 26-26 26v12c5.514 0 10 4.486 10 10s-4.486 10-10 10v12c12.131 0 22-9.869 22-22 0-5.316-1.896-10.198-5.047-14.006 5.592-2.8 10.398-6.938 14.001-11.994h1.046c16.542 0 30-13.458 30-30 0-9.309-4.262-17.642-10.938-23.148 11.313-6.59 18.938-18.844 18.938-32.852 0-10.333-4.151-19.71-10.866-26.567 7.039-11.138 10.866-24.17 10.866-37.433 0-.794-.029-1.59-.055-2.386 7.146-3.637 12.055-11.061 12.055-19.614zm-144 64c0 5.514-4.486 10-10 10s-10-4.486-10-10 4.486-10 10-10 10 4.486 10 10zm122-54c-5.514 0-10-4.486-10-10s4.486-10 10-10 10 4.486 10 10-4.486 10-10 10z"/><path d="m240 422h64c12.131 0 22-9.869 22-22s-9.869-22-22-22h-64c-12.131 0-22 9.869-22 22s9.869 22 22 22zm0-32h64c5.514 0 10 4.486 10 10s-4.486 10-10 10h-64c-5.514 0-10-4.486-10-10s4.486-10 10-10z"/></g></svg>