
<svg id="Capa_1" enable-background="new 0 0 512 512" height="512" viewBox="0 0 512 512" width="512" xmlns="http://www.w3.org/2000/svg"><g><path d="m500.217 198.971h-17.875c-6.498 0-11.784 5.286-11.784 11.783v2.733h-64.539v-1.615c0-6.505-3.146-12.666-8.415-16.48l-45.931-33.244c-3.493-2.528-7.618-3.865-11.93-3.865h-197.42c-4.311 0-8.435 1.336-11.929 3.865l-11.714 8.479c-3.355 2.429-4.106 7.117-1.678 10.473 2.43 3.357 7.119 4.105 10.473 1.678l11.714-8.478c.918-.665 2.002-1.017 3.134-1.017h22.841v165.435h-22.841c-1.133 0-2.217-.352-3.134-1.015l-45.931-33.246c-1.385-1.001-2.211-2.62-2.211-4.329v-88.255c0-1.709.827-3.327 2.211-4.33l10.678-7.729c3.355-2.429 4.106-7.117 1.678-10.473s-7.117-4.104-10.473-1.678l-10.679 7.729c-5.27 3.815-8.415 9.977-8.415 16.48v1.175h-33.692v-4.305c0-6.174-5.023-11.197-11.197-11.197h-19.961c-6.174 0-11.197 5.024-11.197 11.198v56.257c0 4.143 3.357 7.5 7.5 7.5s7.5-3.357 7.5-7.5v-52.455h12.355v86.908h-12.355v-5.453c0-4.143-3.357-7.5-7.5-7.5s-7.5 3.358-7.5 7.5v9.256c0 6.174 5.023 11.197 11.197 11.197h19.961c6.174 0 11.197-5.023 11.197-11.197v-4.304h33.692v1.175c0 6.506 3.146 12.667 8.416 16.48l45.931 33.246c3.493 2.527 7.618 3.863 11.929 3.863h197.42c4.312 0 8.438-1.336 11.929-3.864l45.932-33.244c5.27-3.814 8.415-9.976 8.415-16.481v-1.615h19.888c4.143 0 7.5-3.357 7.5-7.5s-3.357-7.5-7.5-7.5h-19.888v-55.024h64.539v55.024h-15.651c-4.143 0-7.5 3.357-7.5 7.5s3.357 7.5 7.5 7.5h15.651v2.733c0 6.498 5.286 11.784 11.784 11.784h17.875c6.497 0 11.783-5.286 11.783-11.784v-90.491c0-6.497-5.286-11.783-11.783-11.783zm-457.862 84.982v-55.905h33.692v55.905zm259.547-110.67v165.435h-53.369v-165.435zm-121.738 0h53.369v165.435h-53.369zm210.855 126.844c0 1.71-.826 3.328-2.21 4.33l-45.933 33.245c-.916.664-2 1.015-3.133 1.015h-22.841v-165.434h22.841c1.132 0 2.216.351 3.134 1.016l45.931 33.244c1.385 1.002 2.211 2.621 2.211 4.33zm105.981-2.097h-11.442v-84.059h11.442z"/><path d="m100.181 251.025v9.95c0 4.143 3.357 7.5 7.5 7.5s7.5-3.357 7.5-7.5v-9.95c0-4.143-3.357-7.5-7.5-7.5s-7.5 3.357-7.5 7.5z"/><path d="m374.387 243.525c-4.143 0-7.5 3.357-7.5 7.5v9.95c0 4.143 3.357 7.5 7.5 7.5s7.5-3.357 7.5-7.5v-9.95c0-4.143-3.358-7.5-7.5-7.5z"/></g></svg>