<svg id="svg8" height="512" viewBox="0 0 38.00391 44" width="512" xmlns="http://www.w3.org/2000/svg" xmlns:svg="http://www.w3.org/2000/svg"><g id="layer2" transform="translate(-564.998 -242)"><g id="g46521" stroke-linecap="round" transform="translate(559.998 240)"><path id="path43190" d="m9.0002169 2c-2.1986977 0-4 1.801302-4 4v36c0 2.198698 1.8013022 4 4 4h22.0000001c2.198698 0 4-1.801302 4-4v-2a1 1 0 0 0 -1-1 1 1 0 0 0 -1 1v2c0 1.125292-.874708 2-2 2h-22.0000001c-1.1252916 0-2-.874708-2-2v-36c0-1.125292.8747083-2 2-2h5.4667971l1.154297 2.6171875c.398545.9026086 1.299478 1.3828125 2.199218 1.3828125h4.359375c.899741 0 1.800674-.4802039 2.199219-1.3828125l1.154297-2.6171875h5.466797c1.125292 0 2 .874708 2 2v4a1 1 0 0 0 1 1 1 1 0 0 0 1-1v-4c0-2.198698-1.801302-4-4-4zm7.6523441 2h6.695312l-.798828 1.8085938c-.039293.0889894-.184923.1914062-.369141.1914062h-4.359375c-.184216 0-.329847-.1024168-.36914-.1914062z" stroke-linejoin="round"/><path id="path43192" d="m15.5 39a1 1 0 0 0 -1 1 1 1 0 0 0 1 1h9a1 1 0 0 0 1-1 1 1 0 0 0 -1-1z"/><g stroke-linejoin="round"><path id="rect44000" d="m25.65625 13.394531c-.752116-.123336-1.551667.149917-2.132813.714844-.822253.799304-1.71181 1.690326-2.117187 2.095703-2.686308 2.686309-2.686308 7.05588 0 9.742188l9.023437 9.021484c2.684579 2.684578 7.049587 2.685028 9.736329.0039.447796-.431186 1.309976-1.309122 2.097656-2.128906.557184-.579894.832473-1.373644.71289-2.125-.119582-.751356-.622037-1.412744-1.322265-1.798828l-4.484375-2.472656c-.389697-.214882-.874497-.146421-1.189453.167968l-2.06836 2.06836-6.21875-6.21875 2.06836-2.06836c.315332-.315281.383843-.801234.167968-1.191406l-2.472656-4.484369c-.386705-.701355-1.048665-1.202836-1.800781-1.326172zm.04883 2.292969 2.109375 3.826172-1.548828 1.550781c-.763969.763976-.763972 2.036807 0 2.800781l6.246094 6.246094c.763974.763974 2.036808.763976 2.800781 0l1.550781-1.550781 3.826172 2.109375c.421952.251882.309469.610453.132813.787109-.679138.708185-1.372355 1.40664-2.066412 2.097655-1.927292 1.927293-4.984816 1.927293-6.912109 0l-9.021484-9.021484c-1.927294-1.927293-1.927294-4.986768 0-6.914062.409485-.409486 1.288549-1.293446 2.09375-2.076172.425192-.395466.644128-.111678.789067.144532z"/><path id="path12208-5" d="m33.5 17.744141a1 1 0 0 0 -1.074219.919921 1 1 0 0 0 .919922 1.074219c.75543.05819 1.464249.384171 2 .919922.535812.535812.861784 1.244481.919922 2a1 1 0 0 0 1.074219.921875 1 1 0 0 0 .919922-1.074219c-.09473-1.231056-.626938-2.388657-1.5-3.261718-.872963-.872963-2.028856-1.405184-3.259766-1.5z"/><path id="path12204-3" d="m33.818359 13.582031a1 1 0 0 0 -1.072265.921875 1 1 0 0 0 .919922 1.072266c1.748762.134598 3.39064.890641 4.630859 2.130859 1.24035 1.240349 1.996375 2.883857 2.130859 4.632813a1 1 0 0 0 1.074219.919922 1 1 0 0 0 .919922-1.074219c-.171054-2.224533-1.133311-4.314953-2.710938-5.892578-1.57746-1.577459-3.668291-2.53974-5.892578-2.710938z"/></g></g></g></svg>