
<?xml version="1.0" encoding="iso-8859-1"?>
<!-- Generator: Adobe Illustrator 19.0.0, SVG Export Plug-In . SVG Version: 6.00 Build 0)  -->
<svg version="1.1" id="Capa_1" xmlns="http://www.w3.org/2000/svg" xmlns:xlink="http://www.w3.org/1999/xlink" x="0px" y="0px"
	 viewBox="0 0 512 512" style="enable-background:new 0 0 512 512;" xml:space="preserve">
<g>
	<g>
		<path d="M358.4,0H153.6c-28.221,0-51.2,22.979-51.2,51.2v409.6c0,28.242,22.979,51.2,51.2,51.2h204.8
			c28.242,0,51.2-22.958,51.2-51.2V51.2C409.6,22.979,386.642,0,358.4,0z M389.12,460.8c0,16.937-13.783,30.72-30.72,30.72H153.6
			c-16.937,0-30.72-13.783-30.72-30.72V51.2c0-16.937,13.783-30.72,30.72-30.72h204.8c16.937,0,30.72,13.783,30.72,30.72V460.8z"/>
	</g>
</g>
<g>
	<g>
		<path d="M276.48,40.96h-40.96c-5.653,0-10.24,4.588-10.24,10.24s4.588,10.24,10.24,10.24h40.96c5.652,0,10.24-4.588,10.24-10.24
			S282.132,40.96,276.48,40.96z"/>
	</g>
</g>
<g>
	<g>
		<path d="M256,450.56c-5.652,0-10.24,4.588-10.24,10.24s4.588,10.24,10.24,10.24s10.24-4.588,10.24-10.24
			S261.652,450.56,256,450.56z"/>
	</g>
</g>
<g>
	<g>
		<path d="M399.36,81.92H112.64c-5.653,0-10.24,4.588-10.24,10.24c0,5.653,4.587,10.24,10.24,10.24h286.72
			c5.652,0,10.24-4.588,10.24-10.24C409.6,86.508,405.012,81.92,399.36,81.92z"/>
	</g>
</g>
<g>
	<g>
		<path d="M399.36,409.6H112.64c-5.653,0-10.24,4.588-10.24,10.24s4.587,10.24,10.24,10.24h286.72c5.652,0,10.24-4.588,10.24-10.24
			S405.012,409.6,399.36,409.6z"/>
	</g>
</g>
</svg>
