<svg id="Capa_1" enable-background="new 0 0 511.997 511.997" height="512" viewBox="0 0 511.997 511.997" width="512" xmlns="http://www.w3.org/2000/svg"><g><path d="m355.548 227.727h-12.17c-4.143 0-7.5 3.358-7.5 7.5s3.357 7.5 7.5 7.5h12.17c15.208 0 27.58 12.373 27.58 27.58v199.11c0 15.208-12.372 27.58-27.58 27.58h-199.109c-15.202 0-27.57-12.373-27.57-27.58v-199.11c0-15.208 12.368-27.58 27.57-27.58h29.039v7.37c-19.306 5.869-32.739 23.613-32.739 44.37v93.58c0 4.142 3.357 7.5 7.5 7.5s7.5-3.358 7.5-7.5v-93.58c0-12.407 7.089-23.218 17.739-28.311v23.968c0 23.171 18.852 42.023 42.022 42.023 23.177 0 42.033-18.852 42.033-42.023v-23.968c10.641 5.093 17.725 15.904 17.725 28.312v138.1c0 17.314-14.081 31.4-31.39 31.4h-56.73c-17.313 0-31.399-14.086-31.399-31.4v-9.64c0-4.142-3.357-7.5-7.5-7.5s-7.5 3.358-7.5 7.5v9.64c0 25.585 20.814 46.4 46.399 46.4h56.73c25.579 0 46.39-20.815 46.39-46.4v-138.1c0-20.758-13.427-38.502-32.725-44.371v-7.37h38.845c4.143 0 7.5-3.358 7.5-7.5s-3.357-7.5-7.5-7.5h-38.845v-7.968c20.639-3.556 36.395-21.573 36.395-43.212v-18.699h12.479c13.299 0 24.118-10.819 24.118-24.117v-56.774c0-13.298-10.819-24.117-24.118-24.117h-13.816c-4.469-20.531-19.809-37.133-40.555-42.969-4.714-6.004-12.031-9.871-20.24-9.871h-70.076c-7.181 0-13.681 2.959-18.353 7.719-22.994.666-41.498 19.561-41.498 42.708v10.5c0 4.142 3.357 7.5 7.5 7.5s7.5-3.358 7.5-7.5v-10.5c0-12.306 8.06-22.76 19.179-26.38-.036.558-.061 1.12-.061 1.688v50.003c0 25.258 20.549 45.808 45.808 45.808h29.93c25.259 0 45.808-20.549 45.808-45.808v-47.445c13.02 7.405 21.397 21.302 21.397 37.014v111.24c0 15.914-12.946 28.86-28.859 28.86h-69.09c-15.914 0-28.86-12.947-28.86-28.86v-31.31c0-4.142-3.357-7.5-7.5-7.5-15.302 0-27.75-12.444-27.75-27.74v-14.07c0-4.142-3.357-7.5-7.5-7.5s-7.5 3.358-7.5 7.5v14.07c0 21.01 15.241 38.527 35.25 42.082v24.468c0 21.626 15.738 39.635 36.359 43.205v7.975h-29.039c-23.474 0-42.57 19.102-42.57 42.58v199.11c0 23.479 19.097 42.58 42.57 42.58h199.109c23.479 0 42.58-19.102 42.58-42.58v-199.11c-.002-23.478-19.103-42.58-42.582-42.58zm-101.017-151.989c0 16.987-13.82 30.808-30.808 30.808h-29.93c-16.987 0-30.808-13.82-30.808-30.808v-50.003c0-5.919 4.815-10.735 10.734-10.735h70.076c5.919 0 10.734 4.816 10.734 10.735v50.003zm51.398-7.899h12.479c5.027 0 9.118 4.09 9.118 9.117v56.774c0 5.027-4.091 9.117-9.118 9.117h-12.479zm-78.429 249.307c-14.9 0-27.022-12.123-27.022-27.023v-69.716h54.056v69.716c0 14.901-12.127 27.023-27.034 27.023z"/><path d="m355.236 274.744h-29.361c-4.143 0-7.5 3.358-7.5 7.5s3.357 7.5 7.5 7.5h29.361c4.143 0 7.5-3.358 7.5-7.5s-3.358-7.5-7.5-7.5z"/><path d="m355.236 324.664h-29.361c-4.143 0-7.5 3.358-7.5 7.5s3.357 7.5 7.5 7.5h29.361c4.143 0 7.5-3.358 7.5-7.5s-3.358-7.5-7.5-7.5z"/><path d="m355.236 374.583h-29.361c-4.143 0-7.5 3.358-7.5 7.5s3.357 7.5 7.5 7.5h29.361c4.143 0 7.5-3.358 7.5-7.5s-3.358-7.5-7.5-7.5z"/><path d="m355.236 424.502h-29.361c-4.143 0-7.5 3.358-7.5 7.5s3.357 7.5 7.5 7.5h29.361c4.143 0 7.5-3.358 7.5-7.5s-3.358-7.5-7.5-7.5z"/></g></svg>