<svg xmlns="http://www.w3.org/2000/svg" id="Outline" viewBox="0 0 512 512" width="512" height="512"><g id="Air-filter"><path d="M112,80V448a16.019,16.019,0,0,0,16,16H384a16.019,16.019,0,0,0,16-16V168a8,8,0,0,0-2.343-5.657l-96-96A8,8,0,0,0,296,64H128A16.019,16.019,0,0,0,112,80Zm136,0v32H128V80Zm124.687,80H264V128h76.687ZM248,160H128V128H248Zm0,16v32H128V176Zm0,48v32H128V224Zm0,48v32H128V272Zm0,48v32H128V320Zm0,48v32H128V368Zm16,0H384.007v32H264Zm0-16V320H384.005v32Zm0-48V272H384l0,32Zm0-48V224H384v32Zm0-48V176H384v32ZM128,416H248v32H128Zm256,32H264V416H384.009v32ZM324.687,112H264V80h28.687Z"/><path d="M456,240a24.028,24.028,0,0,0,24-24V184a24.028,24.028,0,0,0-24-24H432v-8a8,8,0,0,0-2.343-5.657l-128-128A8,8,0,0,0,296,16H120A40.045,40.045,0,0,0,80,56V160H56a24.028,24.028,0,0,0-24,24v32a24.028,24.028,0,0,0,24,24H80V384H56a24.028,24.028,0,0,0-24,24v32a24.028,24.028,0,0,0,24,24H80.805A40.068,40.068,0,0,0,120,496H392A40.068,40.068,0,0,0,431.2,464H456a24.028,24.028,0,0,0,24-24V408a24.028,24.028,0,0,0-24-24H432V240ZM56,224a8.009,8.009,0,0,1-8-8V184a8.009,8.009,0,0,1,8-8H80v16H64v16H80v16ZM48,440V408a8.009,8.009,0,0,1,8-8H80v16H64v16H80v16H56A8.009,8.009,0,0,1,48,440Zm368,16a24.028,24.028,0,0,1-24,24H120a24.028,24.028,0,0,1-24-24V56a24.028,24.028,0,0,1,24-24H292.687L416,155.313Zm40-280a8.009,8.009,0,0,1,8,8v32a8.009,8.009,0,0,1-8,8H432V208h16V192H432V176Zm0,224a8.009,8.009,0,0,1,8,8v32a8.009,8.009,0,0,1-8,8H432V432h16V416H432V400Z"/></g></svg>
