<svg id="Capa_1" enable-background="new 0 0 512 512" height="512" viewBox="0 0 512 512" width="512" xmlns="http://www.w3.org/2000/svg"><g><g><path d="m497.66 224.639h-22.5c-2.484-17.512-7.077-34.692-13.655-51.075l19.46-11.235c6.847-3.954 9.201-12.742 5.247-19.588l-17.021-29.482c-3.953-6.846-12.741-9.201-19.589-5.248l-19.496 11.256c-10.918-13.884-23.487-26.453-37.375-37.375l11.256-19.495c3.953-6.847 1.599-15.634-5.248-19.589l-29.482-17.021c-6.849-3.953-15.633-1.598-19.588 5.249l-11.235 19.458c-16.384-6.578-33.562-11.17-51.075-13.655v-22.499c0-7.907-6.433-14.34-14.34-14.34h-34.042c-7.907 0-14.34 6.433-14.34 14.34v22.499c-17.514 2.485-34.693 7.078-51.075 13.655l-11.235-19.459c-3.953-6.846-12.741-9.2-19.589-5.248l-29.482 17.021c-6.847 3.954-9.201 12.742-5.247 19.588l11.256 19.496c-13.886 10.921-26.457 23.491-37.375 37.375l-19.494-11.257c-6.848-3.953-15.635-1.599-19.588 5.249l-17.021 29.48c-3.953 6.847-1.6 15.634 5.248 19.589l19.459 11.235c-6.578 16.383-11.17 33.56-13.656 51.075h-22.498c-7.907.001-14.34 6.434-14.34 14.341v34.042c0 7.907 6.432 14.34 14.339 14.34h22.499c2.485 17.514 7.078 34.693 13.656 51.076l-19.46 11.235c-6.847 3.954-9.201 12.742-5.247 19.588l17.021 29.481c3.953 6.847 12.74 9.201 19.589 5.249l19.496-11.256c10.918 13.884 23.487 26.453 37.375 37.375l-11.256 19.495c-3.953 6.847-1.599 15.634 5.248 19.589l29.482 17.021c6.847 3.952 15.632 1.598 19.588-5.249l11.235-19.458c16.384 6.578 33.562 11.17 51.075 13.655v22.499c0 7.907 6.433 14.34 14.34 14.34h34.042c7.907 0 14.34-6.433 14.34-14.34v-22.499c17.514-2.485 34.693-7.078 51.075-13.655l11.235 19.459c3.953 6.847 12.741 9.201 19.589 5.248l29.482-17.021c6.847-3.954 9.201-12.742 5.247-19.588l-11.256-19.496c13.886-10.921 26.457-23.491 37.375-37.375l19.497 11.257c6.846 3.952 15.633 1.598 19.588-5.249l17.021-29.481c3.953-6.847 1.6-15.634-5.248-19.589l-19.459-11.235c6.579-16.385 11.171-33.563 13.655-51.076h22.5c7.907 0 14.339-6.433 14.339-14.34v-34.042c-.002-7.907-6.435-14.34-14.342-14.34zm-.65 47.731h-22.421c-7.11 0-13.215 5.322-14.198 12.38-2.322 16.669-6.693 33.017-12.992 48.59-2.665 6.591-.035 14.24 6.116 17.791l19.392 11.196-16.371 28.355-19.43-11.219c-6.147-3.548-14.08-2.005-18.454 3.588-10.366 13.252-22.344 25.229-35.598 35.598-5.594 4.376-7.136 12.311-3.588 18.455l11.218 19.43-28.355 16.371-11.196-19.391c-3.552-6.154-11.203-8.783-17.793-6.117-15.571 6.298-31.918 10.669-48.59 12.992-7.057.984-12.379 7.088-12.379 14.198v22.421h-32.742v-22.421c0-7.11-5.322-13.214-12.379-14.198-16.672-2.323-33.019-6.694-48.591-12.993-6.591-2.664-14.24-.037-17.791 6.116l-11.197 19.392-28.355-16.371 11.218-19.429c3.548-6.145 2.006-14.08-3.588-18.456-13.255-10.37-25.232-22.346-35.598-35.598-4.374-5.593-12.309-7.136-18.455-3.588l-19.429 11.218-16.371-28.355 19.392-11.196c6.151-3.552 8.781-11.201 6.116-17.792-6.299-15.571-10.671-31.919-12.993-48.587-.982-7.059-7.085-12.381-14.198-12.381h-22.42v-32.741h22.421c7.112 0 13.216-5.323 14.197-12.379 2.324-16.671 6.696-33.019 12.994-48.59 2.665-6.591.035-14.24-6.116-17.791l-19.392-11.196 16.371-28.355 19.43 11.219c6.145 3.547 14.079 2.005 18.454-3.588 10.366-13.252 22.344-25.229 35.598-35.598 5.594-4.376 7.136-12.311 3.588-18.455l-11.218-19.43 28.355-16.371 11.196 19.391c3.551 6.154 11.202 8.781 17.793 6.117 15.571-6.298 31.918-10.669 48.59-12.992 7.057-.984 12.379-7.088 12.379-14.198v-22.422h32.742v22.421c0 7.11 5.322 13.214 12.379 14.198 16.672 2.323 33.019 6.694 48.591 12.993 6.591 2.663 14.24.037 17.791-6.116l11.197-19.392 28.355 16.371-11.218 19.429c-3.548 6.145-2.006 14.08 3.588 18.456 13.255 10.37 25.232 22.346 35.598 35.598 4.373 5.593 12.308 7.136 18.455 3.588l19.429-11.218 16.371 28.355-19.392 11.196c-6.151 3.552-8.781 11.201-6.116 17.792 6.3 15.572 10.671 31.92 12.993 48.589.983 7.057 7.087 12.379 14.198 12.379h22.421v32.741z"/><path d="m377.322 124.562c-3.041-2.808-7.783-2.619-10.591.421-2.809 3.041-2.619 7.783.422 10.591 33.508 30.946 52.727 74.839 52.727 120.426 0 90.364-73.516 163.88-163.88 163.88s-163.88-73.516-163.88-163.88 73.516-163.88 163.88-163.88c29.966 0 59.279 8.16 84.77 23.598 3.538 2.145 8.149 1.012 10.293-2.528 2.144-3.541 1.013-8.149-2.529-10.293-27.832-16.858-59.83-25.767-92.534-25.767-98.63 0-178.87 80.241-178.87 178.87s80.24 178.87 178.87 178.87 178.87-80.241 178.87-178.87c0-49.756-20.975-97.664-57.548-131.438z"/><path d="m111.595 256c0 17.888 3.233 35.349 9.611 51.9 1.488 3.863 5.824 5.788 9.688 4.299 3.863-1.488 5.787-5.826 4.299-9.689-5.711-14.824-8.608-30.472-8.608-46.51 0-71.359 58.055-129.414 129.415-129.414s129.415 58.055 129.415 129.414-58.055 129.414-129.415 129.414c-41.768 0-81.195-20.336-105.469-54.399-2.401-3.369-7.081-4.158-10.453-1.754-3.371 2.402-4.156 7.082-1.754 10.454 27.08 38.002 71.071 60.69 117.676 60.69 79.625 0 144.405-64.78 144.405-144.404s-64.78-144.405-144.405-144.405-144.405 64.779-144.405 144.404z"/><path d="m203.094 225.296c-.452-5.415-3.697-9.828-8.265-11.243-4.53-1.402-9.353.365-12.907 4.727-3.952 4.848-22.282 37.894-27.806 47.907-1.281 2.322-1.24 5.148.109 7.431 1.348 2.284 3.802 3.685 6.454 3.685h27.38c-.034 4.623-.069 9.059-.104 13.053-.035 4.139 3.291 7.524 7.431 7.559h.065c4.11 0 7.458-3.313 7.494-7.43.02-2.447.061-7.244.105-13.183h1.486c4.14 0 7.495-3.356 7.495-7.495s-3.355-7.495-7.495-7.495h-1.386c.099-16.85.153-35.017-.056-37.516zm-14.937 37.516h-14.744c5.547-9.927 10.969-19.462 14.837-26.041.003 6.828-.036 16.258-.093 26.041z"/><path d="m349.879 225.298c-.451-5.416-3.694-9.829-8.263-11.245-4.527-1.401-9.353.365-12.908 4.726-3.953 4.848-22.282 37.894-27.807 47.907-1.28 2.322-1.239 5.148.109 7.431 1.348 2.284 3.802 3.685 6.454 3.685h27.38c-.033 4.623-.068 9.059-.104 13.054-.035 4.139 3.291 7.523 7.431 7.559h.065c4.11 0 7.458-3.313 7.494-7.431.021-2.446.061-7.243.105-13.183h1.485c4.14 0 7.495-3.356 7.495-7.495s-3.355-7.495-7.495-7.495h-1.386c.1-16.849.154-35.016-.055-37.513zm-14.936 37.514h-14.744c5.547-9.927 10.969-19.461 14.838-26.04.001 6.828-.037 16.256-.094 26.04z"/><path d="m229.361 283.664c1.454 1.401 3.327 2.096 5.198 2.096 1.965 0 3.929-.769 5.4-2.296l16.041-16.659 16.042 16.659c1.471 1.528 3.434 2.296 5.4 2.296 1.871 0 3.744-.696 5.198-2.096 2.981-2.871 3.071-7.616.2-10.597l-16.435-17.067 16.435-17.067c2.871-2.981 2.781-7.726-.2-10.597-2.982-2.872-7.727-2.782-10.597.2l-16.043 16.659-16.042-16.659c-2.87-2.981-7.615-3.071-10.597-.2-2.981 2.871-3.071 7.616-.2 10.597l16.434 17.067-16.435 17.067c-2.871 2.981-2.781 7.726.201 10.597z"/></g></g></svg>