<svg id="Icons" height="512" viewBox="0 0 60 60" width="512" xmlns="http://www.w3.org/2000/svg"><path d="m21 33v1h18v-1a1 1 0 0 0 -1-1h-16a1 1 0 0 0 -1 1z"/><path d="m26 14a1 1 0 0 0 -1 1v15h2v-16z"/><path d="m28 8.613 4-1.333v-1.893l-4 1.333z"/><path d="m29 14h2v16h-2z"/><path d="m19 36a1 1 0 0 0 -1 1v1h24v-1a1 1 0 0 0 -1-1z"/><path d="m34 14h-1v16h2v-15a1 1 0 0 0 -1-1z"/><path d="m28 12h4v-2.613l-4 1.333z"/><path d="m32 2h-4v2.613l4-1.333z"/><rect height="18" rx="1" width="28" x="16" y="40"/></svg>