<svg xmlns="http://www.w3.org/2000/svg" viewBox="0 0 96 96" width="512" height="512"><g id="Joint"><path d="M94.06,4.61,91.39,1.94a5.41,5.41,0,0,0-7.65,0l-23,23C53,28.35,53.62,28,53.42,28.23S52.2,29.43,46,35.65l-6.34-6.34a1,1,0,0,0-1.61.28l-2.4,5L25.17,36.44a5.42,5.42,0,0,0-4.3,6.75l1.79,6.66-7.09.79a7.19,7.19,0,0,0-4.3,2.07L3,60.94A7.3,7.3,0,0,0,1,65.25l-.56,5A7.69,7.69,0,0,0,2.63,76.6L19.4,93.37a7.67,7.67,0,0,0,5.46,2.27c.61,0,.67,0,5.89-.6A7.3,7.3,0,0,0,35.06,93l8.23-8.24a7.23,7.23,0,0,0,1.6-2.49c.49-.93.61-3,1.26-8.9,7.39,2,7.12,2,8.07,2a5.43,5.43,0,0,0,5.34-4.48l1.83-10.46,5-2.4a1,1,0,0,0,.28-1.61L60.34,50l7.41-7.41c.2-.2.08,0,3.32-7.36l23-23A5.41,5.41,0,0,0,94.06,4.61ZM33.64,91.55a5.05,5.05,0,0,1-2.05,1.25L17.39,78.61A1,1,0,0,0,16,80L29.16,93.2l-3.65.41A5.74,5.74,0,0,1,20.81,92L4,75.19a5.74,5.74,0,0,1-1.65-4.7l.41-3.65,8,8a1,1,0,0,0,.71.3,1,1,0,0,0,.7-1.71l-9-9a5.05,5.05,0,0,1,1.25-2l8.23-8.24a5.27,5.27,0,0,1,3.12-1.49l7.76-.87L44.24,72.44l-.82,7.32-5.05-5.05A1,1,0,1,0,37,76.12L42.83,82C42.3,83,42.78,82.42,33.64,91.55Zm24-21.06a3.42,3.42,0,0,1-4.26,2.71l-7.53-2-21-21-2-7.53a3.42,3.42,0,0,1,2.71-4.26L36,36.58,59.42,60Zm3.11-12L37.51,35.3l1.71-3.57c15.52,15.51-17-17,25,25.05ZM58.93,48.6,47.39,37.07l6.71-6.7L65.63,41.9Zm7.79-8.44c-3.82-3.81-7.07-7.07-10.88-10.88L61.1,27,69,34.9ZM92.64,10.84l-1.73,1.74-2.09-2.09a1,1,0,1,0-1.42,1.42L89.49,14l-2.72,2.72-2.09-2.09A1,1,0,1,0,83.27,16l2.09,2.09-2.72,2.72-2.09-2.09a1,1,0,0,0-1.42,1.42l2.09,2.09L78.5,25,76.41,22.9A1,1,0,1,0,75,24.31l2.09,2.09-2.72,2.72L72.28,27a1,1,0,1,0-1.42,1.42L73,30.54l-2.72,2.72-7.49-7.49,2.72-2.72c2.23,2.23,2.25,2.38,2.8,2.38A1,1,0,0,0,69,23.72l-2.09-2.09,2.72-2.72c2.23,2.23,2.24,2.39,2.79,2.39a1,1,0,0,0,.71-1.71L71,17.5l2.72-2.72C76,17,76,17.16,76.53,17.16a1,1,0,0,0,.71-1.71l-2.09-2.09,2.72-2.72C80.1,12.87,80.11,13,80.66,13a1,1,0,0,0,.71-1.71L79.28,9.23,82,6.51c2.23,2.23,2.25,2.38,2.8,2.38a1,1,0,0,0,.71-1.71L83.42,5.09l1.73-1.73a3.5,3.5,0,0,1,4.83,0L92.64,6A3.39,3.39,0,0,1,92.64,10.84Z"/><path d="M32.39,49.25a1,1,0,0,0,0,1.41l13,13a1,1,0,0,0,1.41-1.41l-13-13A1,1,0,0,0,32.39,49.25Z"/><path d="M52,70.31a1,1,0,0,0,1.42-1.42L50.53,66a1,1,0,0,0-1.42,1.42Z"/><path d="M26.75,42.2a1,1,0,0,0-1.41,1.41l2.85,2.85A1,1,0,0,0,29.6,45Z"/><path d="M33.17,72.33a1,1,0,0,0,1.41-1.41L20.49,56.83a1,1,0,1,0-1.42,1.41Z"/><path d="M17.36,61.53a3.39,3.39,0,0,0-4.8,0l-.71.7a3.4,3.4,0,0,0,0,4.8L29,84.15a3.4,3.4,0,0,0,4.8,0l.7-.71a3.39,3.39,0,0,0,0-4.8ZM33.06,82l-.71.7a1.38,1.38,0,0,1-2,0L13.27,65.62a1.38,1.38,0,0,1,0-2c.74-.75,1-1.12,1.69-1.12a1.4,1.4,0,0,1,1,.41L33.06,80.05A1.41,1.41,0,0,1,33.06,82Z"/><path d="M54.78,36.34a1,1,0,0,0-1.42,0,1,1,0,0,0,0,1.41l4.89,4.89a1,1,0,0,0,1.41-1.42Z"/></g></svg>
