<svg id="Capa_1" enable-background="new 0 0 512 512" height="512" viewBox="0 0 512 512" width="512" xmlns="http://www.w3.org/2000/svg"><g><g><path d="m437.355 329.422c21.083-33.214 33.354-72.547 33.354-114.713.001-118.387-96.321-214.709-214.709-214.709s-214.71 96.322-214.71 214.71c0 42.166 12.271 81.507 33.354 114.713-74.586 15.665-74.644 35.46-74.644 42.19v82.581c0 45.724 167.457 57.806 256 57.806s256-12.082 256-57.806v-82.581c0-6.73-.058-26.525-74.645-42.191zm58.129 42.191c0 2.164-2.023 4.633-5.987 7.275-19.316-9.645-48.376-16.244-74.091-20.513 4.104-4.542 8.002-9.274 11.71-14.163 55.807 10.86 68.368 23.387 68.368 27.401zm-104.919-11.57c1.338-8.671-.751-17.35-5.913-24.444-5.186-7.135-12.841-11.826-21.554-13.213-1.544-.248-3.08-.248-4.616-.273 5.434-5.186 10.438-10.785 15.038-16.731 1.222 9.951 6.813 19.258 16.145 24.65 5.186 2.989 10.859 4.418 16.458 4.418 2.899 0 5.781-.388 8.564-1.131-7.209 9.622-15.302 18.557-24.122 26.724zm-154.467 27.731c-1.891 8.91-10.694 14.592-19.588 12.726-8.91-1.891-14.617-10.686-12.726-19.588 1.891-8.91 10.678-14.592 19.596-12.726 8.903 1.891 14.609 10.677 12.718 19.588zm-48.467-10.306c-1.891 8.91.017 17.763 4.625 24.857-11.495-3.914-22.52-8.844-32.966-14.708 8.687-1.396 16.318-6.07 21.496-13.188 5.186-7.143 7.284-15.872 5.905-24.584-.231-1.478-.694-2.866-1.115-4.269 6.524 3.526 13.395 6.433 20.455 8.96-9.06 4.244-16.162 12.419-18.4 22.932zm-23.857-35.815c3.567 2.593 5.913 6.417 6.606 10.777.685 4.36-.355 8.729-2.948 12.296-5.351 7.366-15.69 9.001-23.065 3.65-3.567-2.593-5.913-6.425-6.606-10.777-.685-4.36.355-8.721 2.948-12.288s6.417-5.913 10.777-6.606c.875-.14 1.751-.206 2.618-.206 3.46-.009 6.821 1.081 9.67 3.154zm-39.903-126.943c0-72.853 59.276-132.129 132.129-132.129s132.129 59.276 132.129 132.129-59.276 132.129-132.129 132.129-132.129-59.277-132.129-132.129zm-9.802 101.012c-7.878 4.558-18.003 1.842-22.561-6.045-4.55-7.886-1.842-18.011 6.045-22.561 7.886-4.542 18.011-1.842 22.561 6.045 4.558 7.887 1.849 18.011-6.045 22.561zm25.327-205.997c-6.094 6.772-16.557 7.317-23.329 1.222-6.763-6.094-7.317-16.557-1.222-23.329 2.948-3.278 7.003-5.211 11.404-5.442.297-.017.586-.025.884-.025 4.088 0 7.977 1.486 11.033 4.245 6.78 6.094 7.325 16.557 1.23 23.329zm30.976-46.724c-3.7-8.316.05-18.102 8.374-21.81 2.18-.966 4.451-1.429 6.697-1.429 6.326 0 12.379 3.65 15.112 9.802 3.708 8.316-.05 18.102-8.374 21.81-8.332 3.692-18.109-.049-21.809-8.373zm85.628-38.227c9.109 0 16.516 7.407 16.516 16.516s-7.407 16.516-16.516 16.516-16.516-7.407-16.516-16.516 7.407-16.516 16.516-16.516zm55.445 24.791c2.733-6.144 8.787-9.802 15.112-9.802 2.238 0 4.517.462 6.697 1.429 8.316 3.708 12.073 13.485 8.374 21.81-3.708 8.316-13.485 12.065-21.81 8.374-8.316-3.709-12.073-13.495-8.373-21.811zm62.381 36.831c3.064-2.75 6.945-4.245 11.033-4.245.289 0 .586.008.884.025 4.402.231 8.456 2.164 11.404 5.442 6.094 6.772 5.541 17.235-1.222 23.329-6.772 6.094-17.235 5.541-23.329-1.222-6.087-6.772-5.542-17.235 1.23-23.329zm18.06 206.765c4.55-7.886 14.683-10.603 22.561-6.045 7.886 4.55 10.595 14.675 6.045 22.561s-14.666 10.595-22.561 6.045c-7.894-4.55-10.603-14.674-6.045-22.561zm-17.639 64.43c-.685 4.352-3.039 8.184-6.606 10.777-7.366 5.359-17.722 3.716-23.065-3.65-2.593-3.567-3.642-7.936-2.948-12.296.685-4.352 3.039-8.184 6.606-10.777 2.849-2.073 6.21-3.163 9.67-3.163.867 0 1.742.066 2.618.206 4.36.685 8.184 3.039 10.777 6.606s3.634 7.936 2.948 12.297zm-85.628 10.587c8.91-1.883 17.697 3.815 19.596 12.726 1.891 8.902-3.815 17.697-12.726 19.588-8.861 1.883-17.697-3.807-19.588-12.726-1.89-8.903 3.816-17.689 12.718-19.588zm35.749 9.29c-2.238-10.521-9.348-18.696-18.407-22.941 7.061-2.527 13.94-5.442 20.464-8.96-.421 1.404-.875 2.799-1.115 4.269-1.379 8.712.718 17.441 5.905 24.584 5.17 7.118 12.808 11.801 21.496 13.188-10.446 5.863-21.463 10.793-32.966 14.708 4.607-7.085 6.515-15.938 4.623-24.848zm98.338-104.655c-9.274-5.343-20.042-5.558-29.234-1.718 2.816-6.846 5.037-13.973 6.821-21.281 5.17 8.555 14.039 14.757 24.733 15.88 1.173.124 2.329.182 3.477.182 7.812 0 15.054-2.849 20.802-7.54-2.7 11.966-6.45 23.535-11.214 34.585-2.189-8.191-7.491-15.549-15.385-20.108zm-10.662-41.703c.958-9.059 9.158-15.575 18.151-14.699 9.051.95 15.649 9.1 14.699 18.151-.95 9.059-9.084 15.674-18.151 14.699-9.058-.949-15.648-9.092-14.699-18.151zm19.878-31.124c-10.711-1.107-20.67 3.105-27.499 10.389-.223-7.573-.983-15.005-2.296-22.255 1.23.859 2.444 1.742 3.807 2.428 4.715 2.403 9.819 3.617 14.964 3.617 3.435 0 6.879-.537 10.248-1.635 8.39-2.725 15.22-8.555 19.225-16.417.008-.017.008-.033.017-.05 2.312 11.669 3.584 23.701 3.741 35.997-5.328-6.575-13.148-11.125-22.207-12.074zm-25.708-46.361c2.007-3.931 5.417-6.846 9.612-8.209 1.685-.545 3.411-.818 5.128-.818 2.568 0 5.12.611 7.482 1.809 3.931 2.007 6.846 5.417 8.208 9.612 1.371 4.195 1.016 8.671-.991 12.602s-5.417 6.846-9.612 8.209c-4.195 1.371-8.671 1.016-12.602-.991s-6.846-5.417-8.208-9.621c-1.37-4.195-1.015-8.662.983-12.593zm4.509-23.916c-8.39 2.725-15.22 8.555-19.225 16.417-.71 1.387-1.181 2.841-1.685 4.294-3.245-6.722-6.854-13.238-11.041-19.357 2.023.38 4.063.628 6.111.628 7.878 0 15.789-2.791 22.082-8.465 6.532-5.871 10.372-13.931 10.868-22.693 6.912 9.769 12.973 20.191 18.052 31.149-7.845-4.004-16.772-4.706-25.162-1.973zm-47.946-55.585c-7.986 7.193-11.52 17.425-10.669 27.384-5.69-4.839-11.784-9.183-18.16-13.13 1.486-.347 2.981-.694 4.435-1.255 8.242-3.163 14.749-9.34 18.341-17.4 3.7-8.308 3.675-17.342.652-25.228 10.347 6.185 20.059 13.295 29.077 21.198-8.836-.396-17.169 2.568-23.676 8.431zm-48.079-48.681c-8.242 3.163-14.749 9.34-18.341 17.4s-3.823 17.036-.661 25.278c.545 1.412 1.288 2.7 2.007 4.005-7.085-2.073-14.402-3.576-21.876-4.583 7.969-6.037 13.205-15.509 13.205-26.252 0-9.109-3.708-17.375-9.695-23.354 12.181 1.437 24.047 3.931 35.452 7.482-.033.008-.058.016-.091.024zm-78.526 42.1c-7.482 1.007-14.79 2.502-21.876 4.583.71-1.305 1.462-2.593 2.007-4.005 3.163-8.242 2.923-17.21-.661-25.278s-10.1-14.245-18.341-17.4c-.033-.008-.058-.017-.091-.025 11.404-3.551 23.271-6.045 35.452-7.482-5.987 5.979-9.695 14.245-9.695 23.354.001 10.744 5.236 20.216 13.205 26.253zm-80.887 2.172c3.592 8.06 10.1 14.245 18.341 17.4 1.453.562 2.948.908 4.435 1.255-6.375 3.947-12.47 8.291-18.159 13.13.851-9.959-2.684-20.191-10.669-27.384-6.516-5.863-14.898-8.836-23.676-8.431 9.018-7.903 18.738-15.013 29.077-21.198-3.024 7.894-3.049 16.928.651 25.228zm-50.259 53.504c6.301 5.673 14.204 8.465 22.082 8.465 2.048 0 4.096-.248 6.111-.628-4.179 6.119-7.796 12.635-11.041 19.357-.504-1.445-.974-2.907-1.685-4.294-4.005-7.862-10.835-13.692-19.225-16.417-8.39-2.733-17.325-2.023-25.171 1.974 5.079-10.967 11.132-21.38 18.052-31.149.505 8.76 4.345 16.82 10.877 22.692zm1.751 43.008c-1.363 4.195-4.278 7.606-8.209 9.612-3.931 1.998-8.398 2.37-12.602.991-4.195-1.363-7.606-4.278-9.612-8.209-1.998-3.931-2.354-8.407-.991-12.602s4.278-7.606 8.209-9.612c2.362-1.197 4.914-1.809 7.482-1.809 1.718 0 3.444.273 5.128.818 4.195 1.363 7.606 4.278 9.612 8.209 1.99 3.931 2.345 8.398.983 12.602zm-45.139 9.893c4.005 7.862 10.835 13.692 19.225 16.417 3.361 1.09 6.813 1.635 10.248 1.635 5.145 0 10.248-1.214 14.964-3.617 1.363-.694 2.577-1.577 3.807-2.428-1.313 7.251-2.073 14.683-2.296 22.255-6.838-7.3-16.797-11.52-27.499-10.397-9.051.95-16.879 5.5-22.206 12.073.165-12.296 1.429-24.328 3.741-35.997 0 .017.008.042.016.059zm23.618 73.141c-9.059.933-17.202-5.64-18.151-14.699s5.64-17.202 14.699-18.151c9.051-.9 17.202 5.649 18.151 14.699.95 9.059-5.64 17.202-14.699 18.151zm-1.75 16.607c1.148 0 2.312-.058 3.477-.182 10.686-1.123 19.563-7.325 24.733-15.88 1.775 7.308 3.997 14.443 6.821 21.281-9.191-3.832-19.96-3.625-29.234 1.718-7.895 4.558-13.196 11.916-15.377 20.1-4.765-11.049-8.514-22.619-11.214-34.585 5.731 4.699 12.981 7.548 20.794 7.548zm22.362 68.575c5.599 0 11.272-1.42 16.458-4.418 9.332-5.393 14.922-14.699 16.145-24.65 4.6 5.946 9.604 11.545 15.038 16.731-1.536.025-3.072.033-4.616.273-8.712 1.379-16.367 6.07-21.554 13.213-5.161 7.102-7.251 15.773-5.913 24.444-8.811-8.167-16.904-17.094-24.122-26.731 2.784.75 5.666 1.138 8.564 1.138zm5.087 38.409c16.211 14.881 34.717 27.276 54.9 36.649-56.898-4.525-98.279-12.949-122.863-21.372 16.681-5.913 39.977-11.165 67.963-15.277zm126.77 39.176c7.16-4.6 12.618-11.859 14.526-20.819 2.23-10.504-.917-20.86-7.457-28.416 3.716.273 7.424.562 11.206.562s7.49-.289 11.198-.57c-6.54 7.564-9.687 17.912-7.457 28.416 1.908 8.96 7.358 16.219 14.526 20.819-6.02.562-12.106.884-18.267.884s-12.255-.323-18.275-.876zm163.32-39.176c27.987 4.113 51.283 9.365 67.964 15.269-24.584 8.423-65.974 16.855-122.863 21.38 20.182-9.373 38.688-21.768 54.899-36.649zm-316.152-28.631c3.708 4.88 7.606 9.612 11.71 14.154-25.716 4.269-54.776 10.868-74.091 20.513-3.972-2.643-5.995-5.112-5.995-7.275-.001-4.014 12.56-16.533 68.376-27.392zm171.107 151.263c-154.954 0-239.484-27.276-239.484-41.29v-26.963c44.379 27.293 167.787 35.221 239.484 35.221s195.105-7.928 239.484-35.221v26.963c0 14.013-84.53 41.29-239.484 41.29zm0-49.549c-154.954 0-239.484-27.276-239.484-41.29v-10.446c44.379 27.293 167.787 35.22 239.484 35.22s195.105-7.928 239.484-35.221v10.446c0 14.015-84.53 41.291-239.484 41.291z"/><path d="m371.613 214.71c0-63.752-51.861-115.613-115.613-115.613s-115.613 51.86-115.613 115.613 51.861 115.613 115.613 115.613 115.613-51.861 115.613-115.613zm-214.71 0c0-54.644 44.453-99.097 99.097-99.097s99.097 44.453 99.097 99.097-44.453 99.096-99.097 99.096-99.097-44.453-99.097-99.096z"/></g></g></svg>