<svg id="Capa_1" enable-background="new 0 0 511.968 511.968" height="512" viewBox="0 0 511.968 511.968" width="512" xmlns="http://www.w3.org/2000/svg"><g><path d="m255.984 59.984c-108.075 0-196 87.925-196 196s87.925 196 196 196 196-87.925 196-196-87.925-196-196-196zm0 377c-99.804 0-181-81.196-181-181s81.196-181 181-181 181 81.196 181 181-81.196 181-181 181z"/><path d="m255.984 89.984c-38.543 0-76.099 13.509-105.749 38.04-3.191 2.641-3.638 7.368-.998 10.56 2.641 3.192 7.368 3.639 10.56.998 26.967-22.311 61.127-34.597 96.188-34.597 83.262 0 151 67.738 151 151 0 11.997-1.414 23.669-4.071 34.866-8.244 8.601-19.65 13.509-31.587 13.509-12.542 0-24.506-5.407-32.823-14.836-1.423-1.614-3.472-2.539-5.624-2.539s-4.201.925-5.624 2.539c-8.317 9.429-20.281 14.836-32.824 14.836-12.542 0-24.506-5.407-32.823-14.836-1.423-1.614-3.472-2.539-5.624-2.539s-4.201.925-5.625 2.539c-8.317 9.429-20.28 14.836-32.823 14.836s-24.506-5.407-32.823-14.836c-1.424-1.614-3.472-2.539-5.625-2.539s-4.201.925-5.625 2.539c-8.317 9.429-20.28 14.836-32.823 14.836-11.937 0-23.343-4.907-31.587-13.509-2.656-11.196-4.07-22.868-4.07-34.865 0-35.061 12.287-69.22 34.597-96.188 2.64-3.191 2.193-7.919-.998-10.56-3.192-2.641-7.92-2.193-10.56.998-24.53 29.65-38.04 67.206-38.04 105.749 0 91.533 74.467 166 166 166 91.532 0 166-74.467 166-166s-74.467-166.001-165.999-166.001zm0 317c-62.626 0-116.465-38.325-139.308-92.752 7.463 3.339 15.617 5.126 23.965 5.126 14.191 0 27.828-5.151 38.447-14.341 10.619 9.19 24.256 14.341 38.448 14.341s27.829-5.151 38.448-14.341c10.619 9.19 24.256 14.341 38.447 14.341 14.192 0 27.829-5.151 38.448-14.341 10.619 9.19 24.256 14.341 38.447 14.341 8.348 0 16.502-1.787 23.965-5.126-22.842 54.427-76.681 92.752-139.307 92.752z"/><path d="m88.871 384.817c-58.636-75.855-58.636-181.811.001-257.665 6.877-8.898 6.047-21.626-1.933-29.606-4.569-4.57-10.892-6.96-17.34-6.542-6.462.413-12.44 3.59-16.401 8.718-34.305 44.405-53.198 99.9-53.198 156.262s18.892 111.857 53.197 156.263c3.961 5.127 9.939 8.305 16.401 8.718.479.031.958.046 1.435.046 5.945 0 11.675-2.358 15.905-6.588 7.98-7.98 8.811-20.708 1.933-29.606zm-12.539 19c-1.545 1.544-3.602 2.318-5.777 2.179-2.193-.14-4.142-1.177-5.487-2.918-66.906-86.606-66.905-207.58 0-294.187 1.346-1.742 3.294-2.778 5.487-2.918.167-.011.334-.016.5-.016 1.993 0 3.851.769 5.277 2.195 2.658 2.658 2.947 6.883.672 9.826-30.312 39.213-47.006 88.225-47.006 138.006s16.693 98.793 47.006 138.006c2.274 2.944 1.986 7.168-.672 9.827z"/><path d="m458.77 99.721c-3.961-5.127-9.938-8.305-16.401-8.718-6.447-.415-12.77 1.972-17.34 6.542-7.979 7.98-8.811 20.708-1.932 29.606 58.636 75.854 58.636 181.811 0 257.665-6.879 8.898-6.048 21.626 1.933 29.606 4.23 4.23 9.96 6.588 15.905 6.588.477 0 .955-.015 1.434-.046 6.462-.413 12.44-3.59 16.402-8.718 34.305-44.406 53.197-99.901 53.197-156.263-.001-56.361-18.893-111.856-53.198-156.262zm-11.869 303.356c-1.347 1.742-3.295 2.779-5.488 2.919-2.185.14-4.232-.636-5.775-2.179-2.659-2.659-2.948-6.883-.673-9.826 30.313-39.213 47.006-88.225 47.006-138.006s-16.693-98.793-47.006-138.006c-2.275-2.944-1.986-7.168.672-9.826 1.426-1.426 3.283-2.195 5.276-2.195.166 0 .333.005.5.016 2.192.14 4.141 1.177 5.486 2.918 66.907 86.606 66.907 207.579.002 294.185z"/></g></svg>