<svg id="Layer_1" height="512" viewBox="0 0 512 512" width="512" xmlns="http://www.w3.org/2000/svg"><g fill="rgb(0,0,0)"><path d="m209.41 114.83-40.54-23.53v-40.75c0-5.52-4.48-10-10-10h-40.08v-30.55c0-5.52-4.48-10-10-10h-38.35c-5.52 0-10 4.48-10 10v30.55h-14.94c-4.23 0-8 2.66-9.42 6.64-47.8 134.01-48.08 281.72-.79 415.93l.78 2.21c1.4 3.99 5.17 6.66 9.4 6.67l14.97.05v29.95c0 5.52 4.48 10 10 10h38.35c5.52 0 10-4.48 10-10v-29.75l36.08.12h.03c2.65 0 5.19-1.05 7.06-2.92 1.88-1.87 2.94-4.42 2.94-7.08v-40.44l45.26-31.98c2.65-1.87 4.23-4.92 4.23-8.17v-55.42c0-5.52-4.48-10-10-10h-25.56c-16.44-41.54-16.67-88.74-.47-130.52l.49-1.25h25.54c5.52 0 10-4.47 10-10v-51.11c0-3.56-1.9-6.86-4.98-8.65zm-37.25 221.53h22.23v40.25l-45.26 31.97c-2.65 1.88-4.23 4.92-4.23 8.17v35.59l-92.29-.31c-20.89-60.82-31.73-124.42-32.53-188.12h126.74c1.52 22.82 6.92 45.38 16.19 66.47 1.59 3.64 5.19 5.98 9.15 5.98zm22.23-171.77h-22.39c-4.13 0-7.83 2.54-9.33 6.39l-2.96 7.63c-8.11 20.92-12.5 43.06-13.23 65.3h-126.33c1.27-62.12 12.08-124.07 32.44-183.36h96.28v36.51c0 3.56 1.89 6.86 4.98 8.65l40.54 23.53z"/><path d="m475.92 47.19c-1.42-3.98-5.19-6.64-9.42-6.64h-14.94v-30.55c0-5.52-4.48-10-10-10h-38.35c-5.52 0-10 4.48-10 10v30.55h-40.08c-5.52 0-10 4.48-10 10v40.75l-40.54 23.53c-3.08 1.79-4.98 5.09-4.98 8.65v51.11c0 5.53 4.48 10 10 10h25.54l.49 1.25c16.2 41.78 15.97 88.98-.47 130.52h-25.56c-5.52 0-10 4.48-10 10v55.42c0 3.25 1.58 6.3 4.23 8.17l45.26 31.98v40.44c0 2.66 1.06 5.21 2.94 7.08 1.87 1.87 4.41 2.92 7.06 2.92h.03l36.08-.12v29.75c0 5.52 4.48 10 10 10h38.35c5.52 0 10-4.48 10-10v-29.95l14.97-.05c4.23-.01 8-2.68 9.4-6.67l.78-2.21c47.29-134.21 47.01-281.92-.79-415.93zm-135.92 117.4h-22.39v-35.35l40.54-23.53c3.09-1.79 4.98-5.09 4.98-8.65v-36.51h96.28c20.36 59.29 31.17 121.24 32.44 183.36h-126.33c-.73-22.24-5.12-44.38-13.23-65.3l-2.96-7.63c-1.5-3.85-5.2-6.39-9.33-6.39zm119.39 287.44-92.29.31v-35.59c0-3.25-1.58-6.29-4.23-8.17l-45.26-31.97v-40.25h22.23c3.96 0 7.56-2.34 9.15-5.98 9.27-21.09 14.67-43.65 16.19-66.47h126.74c-.8 63.7-11.64 127.3-32.53 188.12z"/></g></svg>