
<?xml version="1.0" encoding="iso-8859-1"?>
<!-- Generator: Adobe Illustrator 19.0.0, SVG Export Plug-In . SVG Version: 6.00 Build 0)  -->
<svg version="1.1" id="Capa_1" xmlns="http://www.w3.org/2000/svg" xmlns:xlink="http://www.w3.org/1999/xlink" x="0px" y="0px"
	 viewBox="0 0 512 512" style="enable-background:new 0 0 512 512;" xml:space="preserve">
<g>
	<g>
		<path d="M452.006,98.181c-45.093-50.72-109.84-79.81-177.634-79.81c-48.027,0-94.309,14.269-133.84,41.263
			c-3.42,2.336-4.3,7.002-1.964,10.423c2.335,3.42,7.001,4.301,10.423,1.964c37.028-25.284,80.384-38.649,125.381-38.649
			c63.514,0,124.174,27.255,166.424,74.776c1.482,1.667,3.54,2.517,5.608,2.517c1.772,0,3.552-0.625,4.98-1.895
			C454.48,106.017,454.758,101.277,452.006,98.181z"/>
	</g>
</g>
<g>
	<g>
		<path d="M471.372,123.076c-2.32-3.432-6.982-4.332-10.414-2.014c-3.431,2.32-4.333,6.982-2.013,10.414
			C483.841,168.304,497,211.362,497,256c0,81.339-44.355,156.189-115.758,195.339c-3.632,1.992-4.962,6.55-2.97,10.182
			c1.364,2.489,3.933,3.896,6.583,3.896c1.218,0,2.455-0.297,3.599-0.926C464.66,422.706,512,342.817,512,256
			C512,208.356,497.951,162.393,471.372,123.076z"/>
	</g>
</g>
<g>
	<g>
		<path d="M274.372,123.746c-72.924,0-132.254,59.328-132.254,132.254s59.328,132.254,132.254,132.254
			c72.924,0,132.254-59.328,132.254-132.254S347.296,123.746,274.372,123.746z M274.372,373.254
			c-64.653,0-117.254-52.6-117.254-117.254s52.599-117.254,117.254-117.254c64.653,0,117.254,52.6,117.254,117.254
			S339.025,373.254,274.372,373.254z"/>
	</g>
</g>
<g>
	<g>
		<path d="M274.372,208.98c-25.927,0-47.019,21.093-47.019,47.019s21.093,47.019,47.019,47.019s47.019-21.093,47.019-47.019
			S300.299,208.98,274.372,208.98z M274.372,288.02c-17.656,0-32.019-14.363-32.019-32.019s14.364-32.019,32.019-32.019
			s32.019,14.363,32.019,32.019C306.391,273.657,292.027,288.02,274.372,288.02z"/>
	</g>
</g>
<g>
	<g>
		<path d="M362.496,468.768c-1.46-3.877-5.787-5.836-9.663-4.375c-25.075,9.446-51.473,14.235-78.461,14.235
			c-67.932,0-132.102-31.175-174.216-84.013h12.159c4.142,0,7.5-3.357,7.5-7.5v-33.579c0-1.365-0.373-2.705-1.078-3.874
			c-17.007-28.188-25.996-60.575-25.996-93.662c0-33.086,8.989-65.474,25.996-93.661c0.705-1.169,1.078-2.509,1.078-3.874v-33.579
			c0-4.143-3.358-7.5-7.5-7.5h-12.138c7.752-9.725,16.314-18.818,25.574-27.127c3.083-2.767,3.34-7.508,0.573-10.591
			c-2.766-3.084-7.508-3.34-10.591-0.573c-12.79,11.477-24.326,24.357-34.353,38.291H41.88c-2.704,0-5.198,1.455-6.528,3.809
			C12.224,162.092,0,208.707,0,256s12.224,93.908,35.352,134.807c1.331,2.353,3.825,3.809,6.528,3.809h39.49
			c44.635,62.037,116.578,99.014,193.001,99.014c28.801,0,56.978-5.113,83.75-15.198
			C361.997,476.97,363.956,472.644,362.496,468.768z M46.298,379.617C25.81,341.891,15,299.248,15,256s10.81-85.891,31.298-123.615
			h58.517V156.4c-17.718,30.098-27.074,64.489-27.074,99.602c0,35.112,9.356,69.503,27.074,99.602v24.014H46.298z"/>
	</g>
</g>
<g>
	<g>
		<path d="M50.219,256c0-17.895,1.831-35.769,5.442-53.124c0.844-4.056-1.76-8.027-5.815-8.871
			c-4.054-0.845-8.027,1.759-8.871,5.814c-3.82,18.359-5.757,37.261-5.757,56.181c0,18.907,1.934,37.798,5.75,56.149
			c0.736,3.54,3.856,5.975,7.335,5.975c0.506,0,1.02-0.051,1.536-0.159c4.055-0.843,6.659-4.814,5.816-8.87
			C52.048,291.748,50.219,273.884,50.219,256z"/>
	</g>
</g>
<g>
	<g>
		<path d="M274.372,152.193c-12.027,0-21.811,9.784-21.811,21.811c0,12.027,9.785,21.811,21.811,21.811s21.811-9.784,21.811-21.811
			C296.183,161.977,286.398,152.193,274.372,152.193z M274.372,180.816c-3.756,0-6.811-3.056-6.811-6.811
			c0-3.755,3.056-6.811,6.811-6.811c3.755,0,6.811,3.056,6.811,6.811C281.183,177.76,278.128,180.816,274.372,180.816z"/>
	</g>
</g>
<g>
	<g>
		<path d="M274.372,317.042c-12.027,0-21.811,9.785-21.811,21.811c0,12.026,9.785,21.81,21.811,21.81s21.811-9.785,21.811-21.81
			C296.183,326.826,286.398,317.042,274.372,317.042z M274.372,345.663c-3.756,0-6.811-3.055-6.811-6.81
			c0-3.755,3.056-6.811,6.811-6.811c3.755,0,6.811,3.056,6.811,6.811C281.183,342.608,278.128,345.663,274.372,345.663z"/>
	</g>
</g>
<g>
	<g>
		<path d="M356.795,234.618c-12.027,0-21.811,9.784-21.811,21.81c0,12.027,9.785,21.811,21.811,21.811
			c12.027,0,21.811-9.784,21.811-21.811C378.606,244.402,368.821,234.618,356.795,234.618z M356.795,263.24
			c-3.756,0-6.811-3.056-6.811-6.811c0-3.754,3.056-6.81,6.811-6.81c3.756,0,6.811,3.055,6.811,6.81
			C363.606,260.184,360.551,263.24,356.795,263.24z"/>
	</g>
</g>
<g>
	<g>
		<path d="M191.948,234.618c-12.027,0-21.811,9.784-21.811,21.81c0,12.027,9.785,21.811,21.811,21.811s21.81-9.784,21.81-21.811
			C213.758,244.402,203.974,234.618,191.948,234.618z M191.948,263.24c-3.756,0-6.811-3.056-6.811-6.811
			c0-3.754,3.056-6.81,6.811-6.81s6.81,3.055,6.81,6.81C198.758,260.184,195.703,263.24,191.948,263.24z"/>
	</g>
</g>
<g>
	<g>
		<path d="M348.077,182.724c-4.12-4.12-9.597-6.389-15.423-6.389c-5.825,0-11.302,2.269-15.422,6.389
			c-8.503,8.504-8.503,22.34,0,30.845c4.252,4.251,9.837,6.377,15.422,6.377s11.17-2.126,15.422-6.377
			C356.58,205.065,356.58,191.227,348.077,182.724z M337.47,202.961c-2.655,2.656-6.976,2.656-9.631,0.001
			c-2.656-2.656-2.656-6.977,0-9.633c1.286-1.286,2.996-1.994,4.815-1.994c1.819,0,3.529,0.708,4.816,1.995
			C340.125,195.985,340.125,200.306,337.47,202.961z"/>
	</g>
</g>
<g>
	<g>
		<path d="M231.511,299.288c-8.504-8.504-22.34-8.503-30.845,0.001c-8.503,8.504-8.503,22.34,0.001,30.845
			c4.252,4.251,9.837,6.377,15.422,6.377c5.585,0,11.17-2.126,15.422-6.377l0.001-0.001
			C240.014,321.629,240.014,307.793,231.511,299.288z M220.905,319.527c-2.655,2.657-6.976,2.656-9.631,0.001
			c-2.656-2.656-2.656-6.977-0.001-9.632c1.328-1.328,3.072-1.992,4.816-1.992c1.744,0,3.488,0.664,4.816,1.991
			C223.56,312.551,223.56,316.872,220.905,319.527z"/>
	</g>
</g>
<g>
	<g>
		<path d="M348.077,299.289c-4.12-4.121-9.597-6.389-15.423-6.389c-5.825,0-11.302,2.269-15.422,6.389
			c-8.503,8.504-8.503,22.34,0,30.844v0.001c4.252,4.251,9.837,6.377,15.422,6.377s11.17-2.126,15.422-6.377
			C356.58,321.63,356.58,307.792,348.077,299.289z M337.469,319.527c-2.655,2.657-6.976,2.657-9.631,0
			c-2.655-2.655-2.655-6.976,0-9.632c1.286-1.286,2.996-1.994,4.815-1.994s3.529,0.708,4.816,1.995
			C340.124,312.551,340.124,316.872,337.469,319.527z"/>
	</g>
</g>
<g>
	<g>
		<path d="M231.51,182.723c-8.504-8.504-22.34-8.503-30.845,0.001c-8.502,8.504-8.502,22.34,0.001,30.845c0,0,0,0,0.001,0
			c4.251,4.251,9.836,6.377,15.421,6.377c5.586,0,11.171-2.126,15.423-6.378C240.013,205.064,240.013,191.228,231.51,182.723z
			 M220.905,202.961c-2.656,2.654-6.977,2.654-9.632,0c-2.655-2.655-2.655-6.975,0-9.631c2.656-2.656,6.977-2.655,9.631-0.001
			C223.56,195.985,223.56,200.306,220.905,202.961z"/>
	</g>
</g>
<g>
	<g>
		<path d="M389.638,140.739c-2.923-2.934-7.672-2.944-10.606-0.02l-0.122,0.12c-2.935,2.923-2.944,7.671-0.021,10.607
			c1.465,1.471,3.39,2.207,5.314,2.207c1.915,0,3.829-0.729,5.292-2.187l0.122-0.12
			C392.552,148.423,392.561,143.675,389.638,140.739z"/>
	</g>
</g>
<g>
	<g>
		<path d="M408.215,122.12c-2.935-2.923-7.684-2.913-10.607,0.021l-0.122,0.122c-2.923,2.935-2.914,7.683,0.021,10.606
			c1.464,1.458,3.378,2.187,5.293,2.187c1.925,0,3.849-0.736,5.314-2.208l0.122-0.122
			C411.159,129.791,411.15,125.043,408.215,122.12z"/>
	</g>
</g>
<g>
	<g>
		<path d="M151.245,379.111c-2.928-2.928-7.677-2.928-10.606,0l-0.121,0.121c-2.929,2.929-2.929,7.677,0,10.607
			c1.464,1.464,3.384,2.196,5.303,2.196c1.92,0,3.839-0.733,5.303-2.196l0.121-0.121
			C154.174,386.789,154.174,382.041,151.245,379.111z"/>
	</g>
</g>
<g>
	<g>
		<path d="M169.82,360.492c-2.939-2.917-7.688-2.897-10.606,0.042l-0.121,0.122c-2.917,2.941-2.898,7.689,0.043,10.606
			c1.463,1.451,3.372,2.176,5.282,2.176c1.93,0,3.859-0.74,5.324-2.217l0.121-0.122C172.78,368.157,172.761,363.409,169.82,360.492z
			"/>
	</g>
</g>
<g>
	<g>
		<path d="M334.018,104.294c-3.85-1.523-8.209,0.362-9.733,4.214l-0.063,0.159c-1.524,3.851,0.362,8.21,4.214,9.733
			c0.906,0.358,1.84,0.528,2.758,0.528c2.987,0,5.81-1.797,6.975-4.742l0.063-0.159C339.756,110.176,337.87,105.817,334.018,104.294
			z"/>
	</g>
</g>
<g>
	<g>
		<path d="M343.627,79.81c-3.856-1.516-8.209,0.38-9.725,4.234l-0.063,0.16c-1.516,3.855,0.38,8.209,4.234,9.725
			c0.901,0.354,1.83,0.522,2.743,0.522c2.992,0,5.82-1.804,6.982-4.756l0.063-0.16C349.378,85.68,347.481,81.326,343.627,79.81z"/>
	</g>
</g>
<g>
	<g>
		<path d="M210.671,418.04c-3.856-1.515-8.209,0.38-9.725,4.234l-0.063,0.16c-1.516,3.855,0.38,8.209,4.234,9.725
			c0.901,0.354,1.83,0.522,2.743,0.522c2.993,0,5.82-1.804,6.982-4.756l0.063-0.16C216.422,423.91,214.525,419.556,210.671,418.04z"
			/>
	</g>
</g>
<g>
	<g>
		<path d="M220.293,393.563c-3.854-1.518-8.209,0.379-9.725,4.234l-0.063,0.16c-1.516,3.855,0.38,8.209,4.234,9.725
			c0.901,0.355,1.83,0.523,2.743,0.523c2.992,0,5.82-1.804,6.982-4.757l0.063-0.16C226.044,399.433,224.147,395.079,220.293,393.563
			z"/>
	</g>
</g>
<g>
	<g>
		<path d="M274.322,92.988c-4.142,0-7.5,3.357-7.5,7.5v0.172c0,4.143,3.358,7.5,7.5,7.5s7.5-3.358,7.5-7.5v-0.172
			C281.822,96.345,278.464,92.988,274.322,92.988z"/>
	</g>
</g>
<g>
	<g>
		<path d="M274.313,66.686c-4.142,0-7.5,3.357-7.5,7.5v0.172c0,4.143,3.358,7.5,7.5,7.5c4.143,0,7.5-3.358,7.5-7.5v-0.172
			C281.813,70.043,278.455,66.686,274.313,66.686z"/>
	</g>
</g>
<g>
	<g>
		<path d="M274.43,430.111c-4.142,0-7.5,3.357-7.5,7.5v0.172c0,4.143,3.358,7.5,7.5,7.5s7.5-3.358,7.5-7.5v-0.172
			C281.93,433.468,278.572,430.111,274.43,430.111z"/>
	</g>
</g>
<g>
	<g>
		<path d="M274.422,403.81c-4.142,0-7.5,3.357-7.5,7.5v0.172c0,4.143,3.358,7.5,7.5,7.5s7.5-3.358,7.5-7.5v-0.172
			C281.922,407.167,278.564,403.81,274.422,403.81z"/>
	</g>
</g>
</svg>
