<svg id="Layer_1" height="512" viewBox="0 0 128 128" width="512" xmlns="http://www.w3.org/2000/svg" data-name="Layer 1"><path d="m121 45.75a27.55 27.55 0 0 0 -.74-8.39c-2.41-7.44-8.55-10-20.52-8.52-11.74 1.45-57.55 6.67-67.2 9.62-8.13 2.5-13.42 7.94-14.9 15.34l-3.3 17.45c-1.34 6.37-5.34 9.75-11.19 9.1a2 2 0 1 0 -.4 4 13.42 13.42 0 0 0 12.92-5.86l37.54 16.74a16 16 0 0 0 4.79 1.71c11.86 2.18 22.73-9.11 24.81-21l16.86 7.82a14.6 14.6 0 0 0 4.53 1.62c10.4 1.92 19.79-7.66 22.43-17.93 1.76-6.68-.34-16.24-5.63-21.7zm-20.78-12.94c12.78-1.56 15.06 2.19 16.23 5.78a16.52 16.52 0 0 1 .56 4.22c-1.16-.57-26.84-8.35-27.87-8.66zm-78.68 21.77c1.14-5.72 5.26-10 11.6-12.11l25.43 7.74c-7.51 3-13.44 10.6-15.3 18.43a27.34 27.34 0 0 0 2.51 18.89l-28.34-12.65c1.02-2.88.92-3.98 4.1-20.3zm57.15 21.79c-2.09 9.21-10.79 18.3-19.93 16.63-9.58-1.75-13.76-14.11-11.59-23.44 2-8.39 9.72-16.71 18.13-16.71 10.83 0 15.7 13.25 13.39 23.52zm-9.29-27-28.35-8.67c9.62-1.7 25.26-3.7 38.4-5.37l.23.1 24.47 7.57c-6.74 2.9-11.79 9.7-13.41 16.53a25.1 25.1 0 0 0 1.9 16.56l-9.38-4.36c.21-9.65-4.2-19.47-13.86-22.4zm53.39 17.14c-2.16 8.42-9.84 16.46-17.83 15-8.52-1.56-12.32-12.62-10.33-21s10.37-16.72 19-14.66c7.24 1.7 11 13.46 9.16 20.62z"/></svg>