<svg id="Layer_1" height="512" viewBox="0 0 64 64" width="512" xmlns="http://www.w3.org/2000/svg" data-name="Layer 1"><circle cx="32" cy="36" r="1"/><path d="m31 9h2v4h-2z"/><path d="m9 15h2v2h-2z"/><path d="m59.1 1h-6.2a3.91 3.91 0 0 0 -3.9 3.9v1.1h-1.08a2.91 2.91 0 0 0 -2.76 2h-8.16v-2a1 1 0 0 0 -1-1h-8a1 1 0 0 0 -1 1v2h-8.16a2.91 2.91 0 0 0 -2.76-2h-1.08v-1.1a3.91 3.91 0 0 0 -3.9-3.9h-6.2a3.91 3.91 0 0 0 -3.9 3.9v12.2a3.91 3.91 0 0 0 3.9 3.9h6.2a3.91 3.91 0 0 0 3.9-3.9v-1.1h1.08a2.91 2.91 0 0 0 2.76-2h8.16a1 1 0 0 0 .29.71l1.71 1.7v6.05a10 10 0 0 0 0 19.08v7.46a1 1 0 0 0 -1 1h-9.16a2.91 2.91 0 0 0 -2.76-2h-1.08v-1.1a3.91 3.91 0 0 0 -3.9-3.9h-6.2a3.91 3.91 0 0 0 -3.9 3.9v12.2a3.91 3.91 0 0 0 3.9 3.9h6.2a3.91 3.91 0 0 0 3.9-3.9v-1.1h1.08a2.91 2.91 0 0 0 2.76-2h9.16a1 1 0 0 0 1 1h6a1 1 0 0 0 1-1h9.16a2.91 2.91 0 0 0 2.76 2h1.08v1.1a3.91 3.91 0 0 0 3.9 3.9h6.2a3.91 3.91 0 0 0 3.9-3.9v-12.2a3.91 3.91 0 0 0 -3.9-3.9h-6.2a3.91 3.91 0 0 0 -3.9 3.9v1.1h-1.08a2.91 2.91 0 0 0 -2.76 2h-9.16a1 1 0 0 0 -1-1v-7.46a10 10 0 0 0 0-19.08v-6.05l1.71-1.7a1 1 0 0 0 .29-.71h8.16a2.91 2.91 0 0 0 2.76 2h1.08v1.1a3.91 3.91 0 0 0 3.9 3.9h6.2a3.91 3.91 0 0 0 3.9-3.9v-12.2a3.91 3.91 0 0 0 -3.9-3.9zm-46.1 16.1a1.9 1.9 0 0 1 -1.9 1.9h-6.2a1.9 1.9 0 0 1 -1.9-1.9v-2.1h4v-2h-4v-2h4v-2h-4v-2h4v-2h-4v-.1a1.9 1.9 0 0 1 1.9-1.9h4.1v10h2v-10h.1a1.9 1.9 0 0 1 1.9 1.9zm4-4a.92.92 0 0 1 -.92.92h-1.08v-6.02h1.08a.92.92 0 0 1 .92.92zm10-1.1h-8v-2h8zm-14 47.1a1.9 1.9 0 0 1 -1.9 1.9h-6.2a1.9 1.9 0 0 1 -1.9-1.9v-2.1h4v-2h-4v-2h4v-2h-4v-2h4v-2h-4v-.1a1.9 1.9 0 0 1 1.9-1.9h4.1v10h2v-10h.1a1.9 1.9 0 0 1 1.9 1.9zm4-4a.92.92 0 0 1 -.92.92h-1.08v-6.02h1.08a.92.92 0 0 1 .92.92zm11-1.1h-9v-2h9zm23-7.1a1.9 1.9 0 0 1 1.9-1.9h6.2a1.9 1.9 0 0 1 1.9 1.9v2.1h-4v2h4v2h-4v2h4v2h-4v2h4v.1a1.9 1.9 0 0 1 -1.9 1.9h-4.1v-10h-2v10h-.1a1.9 1.9 0 0 1 -1.9-1.9zm-4 4a.92.92 0 0 1 .92-.92h1.08v6h-1.08a.92.92 0 0 1 -.92-.92zm-11 1.1h9v2h-9zm-2 3h-4v-4h4zm-3-6v-7h1s.67 0 1 0v7zm9-17a8 8 0 1 1 -8-8 8 8 0 0 1 8 8zm-9-9.95v-5.05h2v5.05c-.33 0-.66-.05-1-.05s-.67 0-1 .05zm4-8.46-1.41 1.41h-3.18l-1.41-1.41v-6.59h6zm10-1.59h-8v-2h8zm4 2h-1.08a.92.92 0 0 1 -.92-.92v-4.16a.92.92 0 0 1 .92-.92h1.08zm12-7h-4v2h4v2h-4v2h4v2h-4v2h4v.1a1.9 1.9 0 0 1 -1.9 1.9h-4.1v-10h-2v10h-.1a1.9 1.9 0 0 1 -1.9-1.9v-12.2a1.9 1.9 0 0 1 1.9-1.9h6.2a1.9 1.9 0 0 1 1.9 1.9z"/><path d="m53 5h2v2h-2z"/><path d="m9 57h2v2h-2z"/><path d="m53 47h2v2h-2z"/><path d="m31 27h2v7h-2z"/></svg>