<svg height="496pt" viewBox="-3 0 496 496" width="496pt" xmlns="http://www.w3.org/2000/svg"><path d="m138.246094 168h16v16h-16zm0 0"/><path d="m282.246094 168h16v16h-16zm0 0"/><path d="m466.023438 163.671875-39.777344-9.917969v-9.816406c9.960937-7.480469 16-19.3125 16-31.9375v-16h24v-16h-24c0-10.585938-4.140625-20.625-11.742188-28.335938-5.671875-5.59375-12.679687-9.304687-20.257812-10.839843v-16.824219c0-6.488281-2.535156-12.519531-6.988282-16.855469-4.480468-4.617187-10.523437-7.144531-17.011718-7.144531-13.230469 0-24 10.769531-24 24v88c0 12.632812 6.042968 24.464844 16 31.9375v9.816406l-39.820313 9.933594c-3.320312.847656-6.378906 2.234375-9.152343 3.976562-1.226563-5.695312-3.632813-11.039062-7.105469-15.664062h.078125c6.488281 0 12.53125-2.527344 16.867187-6.992188 4.597657-4.488281 7.132813-10.519531 7.132813-17.007812 0-13.230469-10.765625-24-24-24h-16.574219l-3.953125-21.769531c-2.789062-15.199219-16.023438-26.230469-31.472656-26.230469h-104c-15.445313 0-28.679688 11.03125-31.46875 26.257812l-3.953125 21.742188h-16.578125c-13.230469 0-24 10.769531-24 24 0 6.488281 2.539062 12.519531 6.992187 16.855469 4.480469 4.617187 10.523438 7.144531 17.007813 7.144531h.082031c-5.128906 6.832031-8.082031 15.199219-8.082031 24v24c0 8.824219 7.179687 16 16 16h8v16h-56v-208c0-6.488281-2.535156-12.519531-6.988282-16.855469-4.480468-4.617187-10.523437-7.144531-17.011718-7.144531-13.230469 0-24 10.769531-24 24v424h-14.246094l-12 48h100.496094l-12-48h-14.25v-152h272v200h112v-224h16c8.824218 0 16-7.175781 16-16v-61.28125c0-14.628906-9.941406-27.398438-24.222656-31.046875zm-39.777344-51.671875c0 8.535156-4.589844 16.496094-11.988282 20.753906-7.496093 4.308594-16.523437 4.316406-24.019531-.011718-7.398437-4.246094-11.992187-12.207032-11.992187-20.742188v-16h48zm0-32h-48c0-13.230469 10.769531-24 24-24 6.363281 0 12.410156 2.503906 16.945312 6.976562 4.550782 4.617188 7.054688 10.664063 7.054688 17.023438zm-40-64c2.136718 0 4.105468.824219 5.699218 2.449219 1.488282 1.445312 2.300782 3.414062 2.300782 5.550781v16.808594c-5.941406 1.214844-11.324219 3.855468-16 7.390625v-24.199219c0-4.414062 3.59375-8 8-8zm-43.902344 163.199219 51.902344-12.953125v-15.15625c2.632812.550781 5.304687.910156 8 .910156 2.699218 0 5.371094-.359375 8-.910156v15.15625l51.859375 12.9375c7.152343 1.832031 12.140625 8.214844 12.140625 15.535156v29.28125h-16v-32h-16v32h-16v-32h-48v32h-16v-32h-16v32h-16v-29.28125c0-7.320312 4.992187-13.703125 12.097656-15.519531zm59.886719 51.082031c-2.34375-2.152344-5.039063-3.777344-7.984375-4.824219v-17.457031h16v17.449219c-2.988282 1.046875-5.703125 2.679687-8.015625 4.832031zm-71.984375 25.71875v-16h56c2.136718 0 4.105468.824219 5.699218 2.449219 1.488282 1.445312 2.300782 3.414062 2.300782 5.550781 0 4.414062-3.589844 8-8 8zm-16-61.28125v5.28125h-45.75l12-48h9.75c3.945312 0 7.890625 1 11.417968 2.886719l.734376.386719c7.328124 4.375 11.847656 12.238281 11.847656 20.726562zm-62.246094 5.28125h-67.503906l-12-48h91.503906zm-65.753906 16h64v16h-64zm80 0h24v16h-24zm40 0h8v16h-8zm16-96c4.410156 0 8 3.585938 8 8 0 2.136719-.8125 4.105469-2.445313 5.703125-1.449219 1.472656-3.417969 2.296875-5.554687 2.296875h-10.757813l-2.902343-16zm-171.734375-34.871094c1.398437-7.617187 8.015625-13.128906 15.734375-13.128906h104c7.722656 0 14.339844 5.511719 15.730468 13.105469l9.304688 51.246093c-1.664062-.214843-3.34375-.351562-5.035156-.351562h-144c-1.671875 0-3.335938.136719-4.988282.34375zm-41.960938 48.421875c-1.488281-1.445312-2.304687-3.414062-2.304687-5.550781 0-4.414062 3.59375-8 8-8h13.675781l-2.90625 16h-10.769531c-2.132813 0-4.101563-.824219-5.695313-2.449219zm13.695313 42.449219c0-8.390625 4.417968-16.167969 11.59375-20.574219l.992187-.53125c3.527344-1.894531 7.472657-2.894531 11.414063-2.894531h9.753906l12 48h-45.753906zm24 40h24v16h-24zm-66.246094 264h-59.503906l4-16h51.503906zm-37.753906-32v-424c0-4.414062 3.59375-8 8-8 2.136718 0 4.105468.824219 5.699218 2.449219 1.488282 1.445312 2.300782 3.414062 2.300782 5.550781v424zm32-168v-32h240v8c0 8.824219 7.179687 16 16 16h16v8zm288 32h32v168h-32zm48 168v-168h32v168zm32-184h-80v-24h24c6.167968 0 11.746094-2.40625 16-6.238281 4.257812 3.839843 9.832031 6.238281 16 6.238281h24zm-24-40c-4.40625 0-8-3.585938-8-8 0-2.136719.816406-4.105469 2.449218-5.703125 1.449219-1.472656 3.417969-2.296875 5.550782-2.296875h56v16zm0 0"/><path d="m252.59375 418.34375 11.308594 11.3125 10.34375-10.34375v4.6875c0 30.871094-25.117188 56-56 56-30.878906 0-56-25.128906-56-56s25.121094-56 56-56v-16c-39.695313 0-72 32.296875-72 72s32.304687 72 72 72c39.699218 0 72-32.296875 72-72v-4.6875l10.347656 10.34375 11.308594-11.3125-29.65625-29.65625zm0 0"/><path d="m210.246094 420.6875-18.34375-18.34375-11.308594 11.3125 29.652344 29.65625 101.65625-101.65625-11.308594-11.3125zm0 0"/></svg>