<svg id="Layer_5" enable-background="new 0 0 64 64" height="512" viewBox="0 0 64 64" width="512" xmlns="http://www.w3.org/2000/svg"><g><path d="m32 36c-1.654 0-3 1.346-3 3s1.346 3 3 3 3-1.346 3-3-1.346-3-3-3zm0 4c-.551 0-1-.448-1-1s.449-1 1-1 1 .448 1 1-.449 1-1 1z"/><path d="m48.303 46 6-4h8.697v-20h-8.697l-6-4h-1.303v-1c0-1.654-1.346-3-3-3h-8c-1.654 0-3 1.346-3 3v1h-2v-1c0-1.654-1.346-3-3-3h-8c-1.654 0-3 1.346-3 3v1h-1.303l-6 4h-8.697v20h8.697l6 4h7.303v2h-8.697l-5.748-3.832-1.109 1.664 6.251 4.168h9.303 3 3v-4h6v4h3 3 9.303l6.252-4.168-1.109-1.664-5.749 3.832h-8.697v-2zm-31.303-26h4v24h-4zm6 0h4v12h-2v12h-2zm24 24h-4v-24h4zm-6 0h-2v-12h-2v-12h4zm-6-12h-6v-12h6zm-8 2h10v10h-10zm34 6h-6v-16h6zm-8 .465-4 2.667v-22.264l4 2.667zm-18-23.465c0-.552.449-1 1-1h8c.551 0 1 .448 1 1v1h-10zm-16 0c0-.552.449-1 1-1h8c.551 0 1 .448 1 1v1h-10zm-16 7h6v16h-6zm8-.465 4-2.667v22.263l-4-2.667zm16 24.465h-1-1v-2h2zm12 0h-1-1v-2h2z"/></g></svg>