<svg xmlns="http://www.w3.org/2000/svg" id="Layer_1" data-name="Layer 1" viewBox="0 0 128 128" width="512" height="512"><path d="M52,94a2,2,0,0,0-2,2v7H42V96a2,2,0,0,0-4,0v18a2,2,0,0,0,4,0v-7h8v7a2,2,0,0,0,4,0V96A2,2,0,0,0,52,94Z"/><path d="M70,98a2,2,0,0,0,0-4H61a2,2,0,0,0-2,2v18a2,2,0,0,0,2,2h9a2,2,0,0,0,0-4H63v-5h7a2,2,0,0,0,0-4H63V98Z"/><path d="M26,98a4,4,0,0,1,3.77,2.65,2,2,0,1,0,3.76-1.35A8,8,0,0,0,18,102v6a8,8,0,0,0,15.52,2.74,2,2,0,0,0-3.76-1.37A4,4,0,0,1,22,108v-6A4,4,0,0,1,26,98Z"/><path d="M84,98a4,4,0,0,1,3.77,2.65,2,2,0,1,0,3.76-1.35A8,8,0,0,0,76,102v6a8,8,0,0,0,15.52,2.74,2,2,0,0,0-3.76-1.37A4,4,0,0,1,80,108v-6A4,4,0,0,1,84,98Z"/><path d="M104.44,104l6-6.64a2,2,0,1,0-3-2.7L100,102.93V96a2,2,0,0,0-4,0v18a2,2,0,0,0,4,0v-5.28c.51-.29.52-.46,1.68-1.69l5.68,8.12a2,2,0,1,0,3.28-2.3Z"/><path d="M111.57,36.76A2,2,0,0,0,110,36h-9a2,2,0,0,0-2,2v6H94V38a2,2,0,0,0-2-2H86.31L82,26.22A2,2,0,0,0,80.18,25H65V17H75.24a2,2,0,0,0,0-4H40.88a2,2,0,0,0,0,4H51v8H39.56a2,2,0,0,0-1.57.75L33,32H31a9.12,9.12,0,0,0-9,9v5H16V31a2,2,0,0,0-4,0V65a2,2,0,0,0,4,0V50h6V63.1A8.9,8.9,0,0,0,30.91,72h9.55L52,83.42a2,2,0,0,0,1.41.58H92a2,2,0,0,0,2-2V73h5v6a2,2,0,0,0,2,2h9a2,2,0,0,0,1.51-.69c.25-.28,6.1-7.19,6.1-22.87C117.61,44.52,111.81,37.07,111.57,36.76ZM55,17h6v8H55Zm54,60h-6V71a2,2,0,0,0-2-2H92a2,2,0,0,0-2,2v9H54.21L42.69,68.56A2,2,0,0,0,41.28,68H30.91A4.89,4.89,0,0,1,26,63.1V41a5.07,5.07,0,0,1,5-5h3a2,2,0,0,0,1.56-.75l5-6.22H78.87l4.3,9.77A2,2,0,0,0,85,40h5v6a2,2,0,0,0,2,2h9a2,2,0,0,0,2-2V40h6a32.61,32.61,0,0,1,4.65,17.44C113.61,68.84,110.26,75,109,77Z"/></svg>
