<svg xmlns="http://www.w3.org/2000/svg" width="512" height="512" viewBox="0 0 128 128"><g><path d="M98.625,9.313H81.492a12.793,12.793,0,0,0-10.31,5.247L59.146,31.1l-5.117-9.466,4.851-1.982a1.749,1.749,0,0,0,1.089-1.62V7.747A7.759,7.759,0,0,0,52.219,0h-24.5a7.759,7.759,0,0,0-7.75,7.75V18.031a1.75,1.75,0,0,0,1.088,1.62l4.851,1.982L16.835,38.418a1.748,1.748,0,0,0-.21.832v80a8.76,8.76,0,0,0,8.75,8.75h77.25a8.76,8.76,0,0,0,8.75-8.75V22.063A12.764,12.764,0,0,0,98.625,9.313ZM74.012,16.62a9.281,9.281,0,0,1,7.48-3.807H98.625a9.26,9.26,0,0,1,9.25,9.25V37.5h-6.5V22.063a2.753,2.753,0,0,0-2.75-2.75H81.492a2.762,2.762,0,0,0-2.225,1.132L66.856,37.5h-4.25l-1.615-2.988ZM71.185,37.5,81.873,22.813h16V37.5ZM41.719,19V3.5h6.093V19Zm-9.594,0V3.5h6.094V19ZM56.469,7.747v9.108l-5.157,2.107V3.5h.907A4.255,4.255,0,0,1,56.469,7.747Zm-33,0a4.255,4.255,0,0,1,4.25-4.25h.906V18.962l-5.156-2.107Zm84.406,111.5a5.256,5.256,0,0,1-5.25,5.25H25.375a5.256,5.256,0,0,1-5.25-5.25V39.693L29.418,22.5h21.1l6.868,12.706h0l2.636,4.876A1.75,1.75,0,0,0,61.562,41h46.313Z"/><path d="M24.625,47.25v71a1.751,1.751,0,0,0,1.75,1.75h75.25a1.751,1.751,0,0,0,1.75-1.75v-71a1.751,1.751,0,0,0-1.75-1.75H26.375A1.751,1.751,0,0,0,24.625,47.25Zm3.5,1.75h71.75v67.5H28.125Z"/><path d="M80.777,81H78.014L80.1,79.021a1.75,1.75,0,0,0-2.411-2.537L72.932,81h-.888a8.148,8.148,0,0,0-1.123-2.7l3.985-3.985a1.75,1.75,0,1,0-2.474-2.475l-3.985,3.985a8.187,8.187,0,0,0-2.7-1.123v-.888l4.514-4.751a1.75,1.75,0,1,0-2.537-2.411L65.75,68.735V65.972a1.75,1.75,0,1,0-3.5,0v2.763l-1.977-2.081a1.75,1.75,0,0,0-2.537,2.411l4.514,4.751V74.7a8.187,8.187,0,0,0-2.7,1.123l-3.985-3.985a1.75,1.75,0,0,0-2.474,2.475L57.078,78.3A8.19,8.19,0,0,0,55.955,81h-.888l-4.751-4.514a1.75,1.75,0,1,0-2.411,2.537L49.986,81H47.223a1.75,1.75,0,0,0,0,3.5h2.763l-2.081,1.978a1.75,1.75,0,0,0,2.411,2.537L55.067,84.5h.888a8.187,8.187,0,0,0,1.123,2.7L53.094,91.18a1.75,1.75,0,0,0,2.474,2.475l3.985-3.985a8.187,8.187,0,0,0,2.7,1.123v.888l-4.514,4.751a1.75,1.75,0,1,0,2.537,2.411l1.977-2.081v2.763a1.75,1.75,0,0,0,3.5,0V96.762l1.977,2.081a1.75,1.75,0,1,0,2.537-2.411L65.75,91.681v-.888a8.187,8.187,0,0,0,2.7-1.123l3.985,3.985a1.75,1.75,0,1,0,2.474-2.475L70.921,87.2a8.145,8.145,0,0,0,1.123-2.7h.888l4.752,4.515A1.75,1.75,0,1,0,80.1,86.476L78.014,84.5h2.763a1.75,1.75,0,0,0,0-3.5ZM64,87.484a4.736,4.736,0,1,1,4.736-4.736A4.741,4.741,0,0,1,64,87.484Z"/></g></svg>
