<svg id="Layer_3" enable-background="new 0 0 64 64" height="512" viewBox="0 0 64 64" width="512" xmlns="http://www.w3.org/2000/svg"><g><path d="m24.895 29.553c-.339-.678-1.45-.678-1.789 0l-4.155 8.311c-.622 1.242-.951 2.635-.951 4.025v.111c0 3.309 2.691 6 6 6s6-2.691 6-6v-.111c0-1.39-.329-2.782-.95-4.025zm3.105 12.447c0 2.206-1.794 4-4 4s-4-1.794-4-4v-.111c0-1.081.255-2.164.739-3.131l3.261-6.522 3.261 6.521c.484.968.739 2.051.739 3.132z"/><path d="m45.895 38.553c-.339-.678-1.45-.678-1.789 0l-2.578 5.155c-.345.69-.528 1.464-.528 2.292 0 2.206 1.794 4 4 4s4-1.794 4-4.056c0-.772-.183-1.546-.528-2.236zm-.895 9.447c-1.103 0-2-.897-2-2.056 0-.463.109-.928.317-1.342l1.683-3.366 1.683 3.366c.208.415.317.879.317 1.398 0 1.103-.897 2-2 2z"/><path d="m55.576 27.302-6.576-2.818v-8.439c0-3.448-2.198-6.498-5.47-7.589l-15.598-5.2c-.511-.17-1.043-.256-1.581-.256h-.429c-1.526 0-2.95.684-3.904 1.876l-2.498 3.124h-.52v-1c.552 0 1-.447 1-1v-4c0-.553-.448-1-1-1h-8c-.552 0-1 .447-1 1v4c0 .553.448 1 1 1v1.697l-1.832 2.748c-.094.141-.15.303-.165.472l-1 12c-.009.109 0 .219.026.325l.971 3.881v30.877c0 1.654 1.346 3 3 3h22.78c.549.609 1.337 1 2.22 1h18c1.654 0 3-1.346 3-3v-29.021c0-1.603-.952-3.046-2.424-3.677zm-43.576-24.302h6v2h-6zm0 57c-.551 0-1-.448-1-1v-31c0-.082-.01-.163-.03-.242l-.96-3.84.965-11.578 1.857-2.785c.109-.164.168-.358.168-.555v-2h4v2c0 .553.448 1 1 1h2c.304 0 .591-.138.781-.375l2.799-3.499c.572-.716 1.426-1.126 2.342-1.126h.429c.323 0 .642.052.948.153l15.598 5.199c2.454.819 4.103 3.107 4.103 5.693v7.582l-3-1.286v-.341c.552 0 1-.447 1-1v-4c0-.553-.448-1-1-1h-2.719l.23-.919c.387-1.547-.504-3.126-2.028-3.595l-10.941-3.365c-.262-.08-.532-.121-.803-.121-1.51 0-2.739 1.229-2.739 2.738v1.009c0 1.18.752 2.224 1.873 2.598l8.127 2.709v3.946c0 .553.448 1 1 1v1.877l-.399 1.596-8.961-6.517c-.86-.626-1.877-.956-2.941-.956h-.662c-1.594 0-3.106.77-4.044 2.06l-6.228 8.563c-.5.688-.765 1.501-.765 2.353v22.024c0 1.654 1.346 3 3 3h15.472c1.349 0 2.54-.909 2.895-2.211l.633-2.322v8.533zm22-16.134-2.563 9.397c-.118.434-.515.737-.965.737h-15.472c-.551 0-1-.448-1-1v-22.024c0-.426.132-.833.382-1.177l6.228-8.563c.563-.774 1.471-1.236 2.427-1.236h.662c.638 0 1.249.198 1.764.573l9.614 6.992-.779 3.117c-.197.794-.298 1.61-.298 2.426zm5.57-29.269-.351 1.403h-1.058l-10.655-3.552c-.303-.101-.506-.383-.506-.701v-1.009c0-.479.488-.846.956-.705l10.938 3.365c.508.157.805.683.676 1.199zm-2.57 5.403v-2h6v2zm19 40c0 .552-.449 1-1 1h-18c-.551 0-1-.448-1-1v-26.892c0-.653.081-1.307.239-1.941l1.731-6.925c.02-.079.03-.16.03-.242v-2h4v1c0 .4.238.762.606.919l12.182 5.221c.736.315 1.212 1.037 1.212 1.839z"/><path d="m51.744 31.588-5.38-3.843c-.683-.487-1.487-.745-2.333-.745-1.645 0-3.103.987-3.714 2.515l-3.102 7.756c-.143.355-.215.73-.215 1.114v18.615c0 1.654 1.346 3 3 3h6.559c1.293 0 2.437-.824 2.846-2.051l3.39-10.171c.136-.407.205-.834.205-1.265v-12.484c0-.966-.469-1.879-1.256-2.441zm-.744 14.925c0 .217-.035.429-.103.633l-3.39 10.171c-.136.409-.517.683-.948.683h-6.559c-.551 0-1-.448-1-1v-18.615c0-.128.024-.252.072-.371l3.102-7.757c.305-.764 1.034-1.257 1.865-1.257.419 0 .821.129 1.163.372l5.379 3.843c.262.187.419.492.419.814z"/></g></svg>