<svg id="Layer_1" height="512" viewBox="0 0 512 512" width="512" xmlns="http://www.w3.org/2000/svg" data-name="Layer 1"><path d="m473.33 253.45-15.28-45.84 15.28-45.83a8.12 8.12 0 0 0 0-5.11l-16.13-48.38a8.09 8.09 0 0 0 -7.65-5.52h-58.7l-14.29-42.87a8.09 8.09 0 0 0 -7.66-5.51h-58.7l-14.29-42.88a8.08 8.08 0 0 0 -7.65-5.51h-64.52a8.07 8.07 0 0 0 -7.65 5.51l-14.29 42.88h-58.7a8 8 0 0 0 -7.65 5.51l-14.29 42.87h-58.71a8.08 8.08 0 0 0 -7.65 5.52l-16.13 48.38a8.12 8.12 0 0 0 0 5.11l15.33 45.83-15.33 45.84a8.09 8.09 0 0 0 0 5.1l15.33 45.84-15.33 45.83a8.12 8.12 0 0 0 0 5.11l16.13 48.38a8.08 8.08 0 0 0 7.65 5.52h58.71l14.29 42.87a8 8 0 0 0 7.65 5.51h58.7l14.29 42.88a8.07 8.07 0 0 0 7.65 5.51h64.52a8.08 8.08 0 0 0 7.65-5.51l14.29-42.88h58.7a8.09 8.09 0 0 0 7.66-5.51l14.29-42.87h58.7a8.09 8.09 0 0 0 7.65-5.52l16.13-48.38a8.12 8.12 0 0 0 0-5.11l-15.28-45.83 15.28-45.84a8.09 8.09 0 0 0 0-5.1zm-29.59 42.87h-52.89l-13.44-40.32 13.44-40.32h52.89l13.43 40.32zm-133.54 48.39-13.33-40-.11-.31.06-.17 13.38-40.16h52.88l13.45 40.33-13.45 40.32zm-80.65 48.39-13.34-40-.1-.31.2-.61 13.24-39.71h52.89l13.39 40.17.05.15-.1.32-13.34 40zm-174.73-137.1 13.44-40.32h52.89l13.34 40 .11.31-.11.31-13.34 40h-52.89zm227.62-137.1 13.34 40 .1.32-.05.15-13.39 40.17h-52.89l-13.24-39.71-.2-.61.1-.31 13.34-40zm80.64 48.39 13.45 40.32-13.45 40.33h-52.88l-13.38-40.16-.06-.17.11-.31 13.33-40zm-133.53 129-13.34-40-.1-.31.1-.31 13.34-40h52.89l13.34 40 .1.31-.1.31-13.34 40zm-27.75-129 13.34 40 .1.31-.2.61-13.24 39.73h-52.89l-13.24-39.72-.21-.61.11-.31 13.34-40zm-52.89 177.42-13.34-40-.11-.31.21-.61 13.24-39.72h52.89l13.2 39.71.2.61-.1.31-13.34 40zm308.26-185.48-13.43 40.32h-52.89l-13.44-40.32 13.44-40.33h52.89zm-80.64-48.39-13.45 40.32h-52.88l-13.33-40-.11-.31.05-.16 13.39-40.17h52.89zm-147-88.71h52.89l13.44 40.32-.1.31-13.34 40h-52.87l-13.34-40-.1-.31zm-80.62 48.39h52.89l13.2 39.69.21.63-.1.31-13.34 40h-52.86l-13.34-40-.11-.31zm-80.65 48.38h52.89l13.34 40 .11.32-.21.62-13.24 39.7h-52.89l-13.44-40.31zm-13.44 233.87 13.44-40.32h52.89l13.24 39.7.21.62-.11.32-13.34 40h-52.89zm80.64 48.39.11-.31 13.34-40h52.89l13.34 40 .1.31-.21.63-13.23 39.69h-52.89zm147 88.71h-52.91l-13.44-40.32.1-.31 13.34-40h52.89l13.34 40 .1.31zm80.65-48.39h-52.91l-13.39-40.16-.05-.16.11-.31 13.33-40h52.88l13.45 40.32zm80.65-48.38h-52.91l-13.44-40.33 13.44-40.32h52.89l13.43 40.32z" fill="rgb(0,0,0)"/></svg>