<svg height="852pt" viewBox="-26 -123 852.49995 852" width="852pt" xmlns="http://www.w3.org/2000/svg"><path d="m592.398438 298.226562c-6.285157-1.53125-12.617188 2.316407-14.148438 8.605469-1.535156 6.277344 2.316406 12.613281 8.597656 14.144531 57.523438 14.03125 97.695313 65.234376 97.695313 124.523438 0 28.160156-8.964844 54.882812-25.921875 77.289062-3.902344 5.148438-2.886719 12.496094 2.269531 16.398438 2.113281 1.601562 4.589844 2.375 7.054687 2.375 3.542969 0 7.042969-1.601562 9.339844-4.644531 20.0625-26.496094 30.671875-58.109375 30.671875-91.417969-.003906-70.117188-47.527343-130.679688-115.558593-147.273438zm0 0"/><path d="m624.082031 554.34375c-20.289062 12.648438-43.703125 19.339844-67.722656 19.339844-26.179687 0-51.371094-7.851563-72.832031-22.703125-.050782-.039063-.109375-.0625-.160156-.097657-.164063-.109374-.332032-.222656-.5-.328124-.367188-.222657-36.703126-22.480469-37.507813-72.96875-.101563-6.460938-5.390625-11.667969-11.894531-11.519532-6.460938.105469-11.625 5.429688-11.519532 11.890625.691407 42.957031 22 69.707031 36.285157 82.875-12.226563 8.339844-26.65625 12.851563-41.757813 12.851563-15.066406 0-29.566406-4.496094-41.957031-12.984375-4.742187-3.25-11.140625-2.574219-15.097656 1.585937-7 7.351563-16.429688 11.398438-26.550781 11.398438-7.289063 0-14.328126-2.136719-20.363282-6.179688-4.875-3.257812-11.414062-2.414062-15.292968 1.992188-3.375 3.828125-8.234376 6.023437-13.320313 6.023437-9.789063 0-17.761719-7.972656-17.761719-17.761719 0-9.796874 7.972656-17.765624 17.761719-17.765624.292969 0 .582031.015624.867187.023437 5.871094.269531 11.003907-3.832031 12.054688-9.59375 3.046875-16.78125 17.644531-29.410156 34.707031-30.023437.023438 0 .050781-.007813.074219-.007813h.054688c2.597656-.097656 25.597656-.433594 29.769531 20.570313 1.101562 5.578124 5.988281 9.4375 11.46875 9.4375.753906 0 1.519531-.074219 2.292969-.226563 6.339843-1.261719 10.460937-7.421875 9.199218-13.769531-4.863281-24.511719-23.449218-34.78125-39.175781-38.117188 6.789063-22.84375 24.460937-41.566406 47.460937-49.339844 3.925782-1.328124 6.851563-4.625 7.710938-8.675781.851562-4.046875-.503906-8.253906-3.554688-11.046875-7.570312-6.9375-11.910156-16.792968-11.910156-27.039062 0-20.21875 16.449219-36.664063 36.664063-36.664063 9.851562 0 19.097656 3.859375 26.039062 10.863281.058594.0625.125.113282.195313.171876.050781.058593.097656.109374.148437.164062.152344.136719 14.609375 14.566406 6.65625 42.796875-1.757812 6.222656 1.863281 12.691406 8.082031 14.449219 1.066407.296875 2.136719.4375 3.183594.4375 5.109375 0 9.8125-3.371094 11.261719-8.53125 7.535156-26.71875.679687-45.746094-5.648437-56.390625 19.203124-16.957031 43.222656-27.925781 68.617187-31.132813 6.414063-.820312 10.957031-6.671875 10.148437-13.085937-.8125-6.414063-6.660156-10.960938-13.085937-10.148438-30.332031 3.839844-59.007813 16.992188-81.824219 37.367188-9.875-6.746094-21.539062-10.375-33.773437-10.375-33.128907 0-60.078125 26.949219-60.078125 60.078125 0 11.039062 3.074218 21.800781 8.691406 31.101562-24.808594 13.410156-42.960938 37.191406-49.132812 64.851563-10.316407 2.09375-19.773438 6.878906-27.535157 13.621093-12.535156-20.910156-35.183593-34.113281-60.527343-34.113281h-121.976563c-22.953125 0-43.378906 11.019531-56.289063 28.03125h-44.765624c-6.464844 0-11.710938 5.238281-11.710938 11.707031 0 6.472657 5.246094 11.707032 11.710938 11.707032h33.089843c-1.726562 6.113281-2.671875 12.546875-2.671875 19.203125 0 6.648437.945313 13.085937 2.671875 19.195312h-33.089843c-6.464844 0-11.710938 5.246094-11.710938 11.707031 0 6.46875 5.246094 11.707032 11.710938 11.707032h44.765624c12.910157 17.015625 33.335938 28.03125 56.289063 28.03125h121.976563c10.042968 0 19.992187-2.171875 29.089843-6.273438 6.324219 3.964844 13.804688 6.273438 21.808594 6.273438 8.511719 0 16.746094-2.648438 23.605469-7.445313 7.902344 3.6875 16.53125 5.609375 25.371094 5.609375 13.332031 0 25.925781-4.28125 36.304687-12.203125 14.429687 8.007813 30.609375 12.203125 47.300781 12.203125 22.652344 0 44.167969-7.679687 61.535156-21.804687 23.605469 14.292969 50.496094 21.804687 78.351563 21.804687 28.402344 0 56.105469-7.914062 80.109375-22.886718 5.484375-3.417969 7.15625-10.644532 3.738281-16.125-3.417969-5.492188-10.640625-7.167969-16.125-3.742188zm-346.34375-41.117188c-.578125 1.339844-1.125 2.703126-1.613281 4.082032-19 3.644531-33.410156 20.402344-33.410156 40.449218 0 5.644532 1.144531 11.03125 3.214844 15.9375-4.191407 1.183594-8.546876 1.820313-12.9375 1.820313-26.039063 0-47.222657-21.1875-47.222657-47.230469 0-26.039062 21.183594-47.226562 47.222657-47.226562 20.464843 0 38.277343 12.882812 44.746093 32.167968zm-205.804687 41.542969c-.488282-1.203125-1.167969-2.292969-2.003906-3.25-3.898438-6.867187-6.136719-14.785156-6.136719-23.234375 0-26.039062 21.191406-47.226562 47.222656-47.226562h69.5c-11.285156 12.527344-18.160156 29.089844-18.160156 47.226562 0 18.144532 6.875 34.707032 18.160156 47.234375h-69.5c-16.226563 0-30.574219-8.238281-39.082031-20.75zm0 0"/><path d="m512.695312 502.371094c-6.46875 0-11.644531 5.242187-11.644531 11.707031 0 6.46875 5.304688 11.710937 11.769531 11.710937 6.464844 0 11.707032-5.242187 11.707032-11.710937 0-6.464844-5.242188-11.707031-11.707032-11.707031zm0 0"/><path d="m624.417969 391.183594c0-6.46875-5.246094-11.707032-11.707031-11.707032h-.132813c-6.46875 0-11.644531 5.238282-11.644531 11.707032s5.304687 11.707031 11.777344 11.707031c6.460937 0 11.707031-5.246094 11.707031-11.707031zm0 0"/><path d="m485.074219 491.96875c-6.460938 0-11.640625 5.238281-11.640625 11.707031 0 6.472657 5.304687 11.707031 11.769531 11.707031 6.46875 0 11.707031-5.234374 11.707031-11.707031 0-6.46875-5.238281-11.707031-11.707031-11.707031zm0 0"/><path d="m785.761719 434.1875c-.003907 0-.011719 0-.019531 0l-31.515626.046875c-6.464843.011719-11.699218 5.261719-11.6875 11.722656.007813 6.464844 5.25 11.695313 11.707032 11.695313h.015625l31.519531-.050782c6.464844-.003906 11.699219-5.253906 11.6875-11.722656-.011719-6.457031-5.246094-11.691406-11.707031-11.691406zm0 0"/><path d="m739.796875 373.464844c2.941406 0 5.878906-1.105469 8.160156-3.3125l18.519531-18c4.636719-4.507813 4.746094-11.921875.238282-16.554688-4.507813-4.640625-11.921875-4.742187-16.554688-.238281l-18.523437 18c-4.632813 4.507813-4.742188 11.921875-.234375 16.554687 2.292968 2.367188 5.339844 3.550782 8.394531 3.550782zm0 0"/><path d="m748.179688 521.742188c-4.660157-4.488282-12.070313-4.351563-16.558594.296874-4.488282 4.65625-4.359375 12.066407.296875 16.554688l18.578125 17.921875c2.265625 2.183594 5.199218 3.277344 8.121094 3.277344 3.066406 0 6.132812-1.195313 8.425781-3.582031 4.496093-4.644532 4.359375-12.058594-.292969-16.546876zm0 0"/><path d="m199.042969 240.953125 130.082031.375 49.058594 49.054687c5.257812 5.257813 12.242187 8.15625 19.675781 8.15625 7.4375 0 14.421875-2.898437 19.679687-8.15625l49.054688-49.054687 130.050781-.375c15.34375 0 27.832031-12.484375 27.832031-27.828125v-192.828125c0-15.351563-12.488281-27.832031-27.832031-27.832031h-56.042969c-6.460937 0-11.707031 5.234375-11.707031 11.707031 0 6.46875 5.246094 11.707031 11.707031 11.707031h56.042969c2.4375 0 4.417969 1.980469 4.417969 4.417969v192.828125c0 2.4375-1.980469 4.414062-4.449219 4.414062l-134.917969.390626c-3.09375.003906-6.054687 1.242187-8.242187 3.421874l-52.46875 52.480469c-1.128906 1.121094-2.441406 1.292969-3.125 1.292969-.679687 0-1.992187-.171875-3.121094-1.304688l-52.46875-52.46875c-2.1875-2.179687-5.15625-3.414062-8.253906-3.421874l-134.941406-.390626c-2.433594 0-4.414063-1.976562-4.414063-4.414062v-192.828125c0-2.4375 1.980469-4.417969 4.414063-4.417969h290.546875c6.464844 0 11.707031-5.238281 11.707031-11.707031 0-6.472656-5.242187-11.707031-11.707031-11.707031h-290.546875c-15.347657 0-27.828125 12.480468-27.828125 27.832031v192.828125c0 15.34375 12.480468 27.828125 27.796875 27.828125zm0 0"/><path d="m446.855469 72.28125v38.359375h-17.921875c-17.152344 0-31.101563 13.953125-31.101563 31.101563 0 17.148437 13.949219 31.105468 31.101563 31.105468h29.628906c6.464844 0 11.707031-5.246094 11.707031-11.707031v-88.859375c0-6.46875-5.242187-11.707031-11.707031-11.707031-6.460938 0-11.707031 5.238281-11.707031 11.707031zm0 77.148438h-17.921875c-4.238282 0-7.6875-3.445313-7.6875-7.6875 0-4.242188 3.449218-7.6875 7.6875-7.6875h17.921875zm0 0"/><path d="m508.625 60.574219h-18.613281c-6.464844 0-11.707031 5.238281-11.707031 11.707031v88.859375c0 6.460937 5.242187 11.707031 11.707031 11.707031h24.015625c20.25 0 36.714844-16.46875 36.714844-36.71875 0-12.074218-5.855469-22.800781-14.882813-29.492187 2.449219-4.449219 3.859375-9.550781 3.859375-14.972657 0-17.144531-13.949219-31.089843-31.09375-31.089843zm0 23.414062c4.234375 0 7.679688 3.441407 7.679688 7.675781 0 4.230469-3.445313 7.679688-7.679688 7.679688-.289062 0-.5625.046875-.851562.0625h-6.054688v-15.417969zm5.402344 65.441407h-12.308594v-26.609376h12.308594c7.332031 0 13.300781 5.972657 13.300781 13.308594 0 7.335938-5.96875 13.300782-13.300781 13.300782zm0 0"/><path d="m317.015625 107.78125v30.976562c0 17.464844 14.207031 31.667969 31.667969 31.667969 17.464844 0 31.671875-14.203125 31.671875-31.667969v-30.976562c0-17.460938-14.207031-31.667969-31.671875-31.667969-17.457032 0-31.667969 14.207031-31.667969 31.667969zm39.921875 0v30.976562c0 4.550782-3.707031 8.253907-8.253906 8.253907-4.550782 0-8.25-3.703125-8.25-8.253907v-30.976562c0-4.550781 3.699218-8.253906 8.25-8.253906 4.554687 0 8.253906 3.703125 8.253906 8.253906zm0 0"/><path d="m276.640625 172.847656c17.464844 0 31.667969-14.207031 31.667969-31.667968 0-8.050782-3.039063-15.382813-8.003906-20.972657 2.996093-4.496093 4.746093-9.886719 4.746093-15.6875 0-15.660156-12.746093-28.40625-28.410156-28.40625-15.65625 0-28.402344 12.746094-28.402344 28.40625 0 5.800781 1.75 11.191407 4.746094 15.6875-4.96875 5.589844-8.007813 12.921875-8.007813 20.972657 0 17.460937 14.207032 31.667968 31.664063 31.667968zm0-23.417968c-4.550781 0-8.246094-3.695313-8.246094-8.25 0-4.554688 3.695313-8.25 8.246094-8.25 4.558594 0 8.253906 3.695312 8.253906 8.25 0 4.554687-3.695312 8.25-8.253906 8.25zm0-49.902344c2.757813 0 4.996094 2.242187 4.996094 4.992187 0 2.757813-2.238281 4.996094-4.996094 4.996094-2.75 0-4.988281-2.246094-4.988281-4.996094s2.238281-4.992187 4.988281-4.992187zm0 0"/></svg>