<svg version="1.1" id="Capa_1" xmlns="http://www.w3.org/2000/svg" xmlns:xlink="http://www.w3.org/1999/xlink" x="0px" y="0px"
	 viewBox="0 0 512 512" style="enable-background:new 0 0 512 512;" xml:space="preserve">
<g>
	<g>
		<path d="M502,114h-30V46.499C472,35.747,463.253,27,452.501,27H113.499C102.747,27,94,35.747,94,46.499v62.251H60.786
			C27.269,108.75,0,136.019,0,169.537v174.677C0,377.731,27.269,405,60.787,405H288c11.028,0,20,8.972,20,20v40h-15.667
			c-5.522,0-10,4.477-10,10s4.478,10,10,10H407c5.522,0,10-4.477,10-10s-4.478-10-10-10h-28.925v-70c0-33.084-26.916-60-60-60
			H90.562c-11.462,0-20.787-9.325-20.787-20.787V199.538c0-11.462,9.325-20.787,20.787-20.787H94v72.75
			C94,262.253,102.747,271,113.499,271h339.002c10.752,0,19.499-8.747,19.499-19.499V184h30c5.522,0,10-4.477,10-10v-50
			C512,118.477,507.522,114,502,114z M94,158.751h-3.438c-22.49,0-40.787,18.297-40.787,40.787v114.676
			c0,22.49,18.297,40.787,40.787,40.787h227.514c22.056,0,40,17.944,40,40v70H328v-40c0-22.056-17.944-40-40-40H60.787
			C38.297,385,20,366.703,20,344.213V169.537c0-22.49,18.297-40.787,40.786-40.787H94V158.751z M452,251H114V47h338V251z M492,164
			h-20v-30h20V164z"/>
	</g>
</g>
<g>
	<g>
		<path d="M258.399,467.93c-1.859-1.86-4.439-2.93-7.069-2.93s-5.21,1.07-7.07,2.93s-2.93,4.44-2.93,7.07s1.069,5.21,2.93,7.07
			c1.87,1.86,4.44,2.93,7.07,2.93s5.21-1.07,7.069-2.93c1.86-1.86,2.931-4.44,2.931-7.07S260.26,469.79,258.399,467.93z"/>
	</g>
</g>
<g>
	<g>
		<path d="M366.333,215H159c-5.522,0-10,4.477-10,10s4.478,10,10,10h207.333c5.522,0,10-4.477,10-10S371.855,215,366.333,215z"/>
	</g>
</g>
<g>
	<g>
		<path d="M414.069,217.93C412.21,216.07,409.63,215,407,215s-5.21,1.07-7.07,2.93c-1.86,1.86-2.93,4.44-2.93,7.07
			s1.069,5.21,2.93,7.07c1.861,1.86,4.44,2.93,7.07,2.93s5.21-1.07,7.069-2.93c1.86-1.86,2.931-4.44,2.931-7.07
			S415.93,219.79,414.069,217.93z"/>
	</g>
</g>
</svg>
