<svg id="Capa_1" enable-background="new 0 0 512 512" height="512" viewBox="0 0 512 512" width="512" xmlns="http://www.w3.org/2000/svg"><g><circle cx="109.3" cy="256" r="10"/><path d="m502 332h-52.7v-5c0-11.028-8.972-20-20-20h-20.004c0-5.523-4.478-10-10-10h-40c-5.522 0-10 4.477-10 10h-110c0-5.523-4.477-10-10-10h-40c-5.522 0-10 4.477-10 10h-19.996c-11.028 0-20 8.972-20 20v30h-20v-56c0-5.523-4.477-10-10-10-5.522 0-10 4.477-10 10v66c0 5.523 4.478 10 10 10h30v30h-50c-11.028 0-20-8.972-20-20v-68.93c0-5.523-4.477-10-10-10h-39.3v-104.14h39.3c5.523 0 10-4.477 10-10v-68.93c0-11.028 8.972-20 20-20h50v30h-30c-5.522 0-10 4.477-10 10v66c0 5.523 4.478 10 10 10 5.523 0 10-4.477 10-10v-56h20v30c0 11.028 8.972 20 20 20h19.996c0 5.523 4.478 10 10 10h40c5.523 0 10-4.477 10-10h110c0 5.523 4.478 10 10 10h40c5.522 0 10-4.477 10-10h20.004c11.028 0 20-8.972 20-20v-5h32.7c4.767 0 8.871-3.365 9.806-8.039l20-100c.588-2.938-.173-5.984-2.072-8.301-1.9-2.317-4.738-3.66-7.734-3.66h-52.7v-5c0-11.028-8.972-20-20-20h-20.004c0-5.523-4.478-10-10-10h-40c-5.522 0-10 4.477-10 10h-110c0-5.523-4.477-10-10-10h-40c-5.522 0-10 4.477-10 10h-19.996c-11.028 0-20 8.972-20 20v30h-50c-22.056 0-40 17.944-40 40v58.93h-39.3c-5.523 0-10 4.477-10 10v124.14c0 5.523 4.477 10 10 10h39.3v58.93c0 22.056 17.944 40 40 40h50v30c0 11.028 8.972 20 20 20h19.996c0 5.523 4.478 10 10 10h40c5.523 0 10-4.477 10-10h110c0 5.523 4.478 10 10 10h40c5.522 0 10-4.477 10-10h20.004c11.028 0 20-8.972 20-20v-5h32.7c4.767 0 8.871-3.365 9.806-8.039l20-100c.588-2.938-.173-5.984-2.072-8.301-1.9-2.317-4.738-3.66-7.734-3.66zm-12.198-252-16 80h-24.502v-80zm-60.502-25v130h-20.004v-130zm-60.004-10h20v150h-20zm-20 10v130h-110v-130zm-150-10h20v150h-20zm-39.996 10h19.996v130h-19.996zm0 402v-130h19.996v130zm59.996 10h-20v-150h20zm20-10v-130h110v130zm150 10h-20v-150h20zm40.004-10h-20.004v-130h20.004zm44.502-25h-24.502v-80h40.502z"/></g></svg>