
<svg id="Capa_1" enable-background="new 0 0 512 512" height="512" viewBox="0 0 512 512" width="512" xmlns="http://www.w3.org/2000/svg"><g><path d="m509.804 137.202-37.31-37.31c-1.407-1.406-3.314-2.196-5.304-2.196s-3.896.79-5.304 2.196l-26.854 26.855c-3.493-1.291-6.272-4.07-7.563-7.563l26.855-26.854c1.406-1.407 2.196-3.314 2.196-5.304s-.79-3.896-2.196-5.304l-37.31-37.31c-2.93-2.928-7.678-2.928-10.607 0l-36.562 36.563c-6.4 6.399-9.924 14.907-9.924 23.958 0 4.158.752 8.198 2.177 11.975-2.17 5.52-3.792 11.188-4.858 16.965l-13.22-13.22c-2.93-2.928-7.678-2.928-10.607 0-2.929 2.93-2.929 7.678 0 10.607l2.159 2.159-20.912 20.911c-2.93 2.929-2.93 7.678-.001 10.606 1.465 1.465 3.384 2.197 5.304 2.197 1.919 0 3.839-.732 5.303-2.196l20.913-20.912 64.011 64.011-94.381 94.381-64.011-64.011 48.721-48.72c2.929-2.93 2.929-7.678 0-10.607-2.93-2.928-7.678-2.928-10.607 0l-48.72 48.721-2.159-2.159c-2.929-2.927-7.678-2.929-10.606 0-2.929 2.93-2.929 7.678 0 10.607l24.374 24.374-10.991 10.991c-.248.248-.531.301-.724.301s-.476-.053-.724-.301l-6.027-6.027c-19.542-19.541-51.338-19.541-70.879 0l-17.346 17.344-7.037-7.037c-4.061-4.062-9.46-6.298-15.204-6.298-5.743 0-11.142 2.236-15.202 6.296l-1.096 1.096c-6.72 6.721-8.038 16.815-3.983 24.876l-17.034 17.034c-2.929 2.93-2.929 7.678 0 10.607 1.464 1.464 3.384 2.196 5.303 2.196s3.839-.732 5.303-2.196l16.261-16.261 43.119 43.118-64.012 64.012-43.118-43.118 23.001-23.001c2.929-2.93 2.929-7.678 0-10.607-2.929-2.928-7.678-2.928-10.606 0l-23.775 23.775c-8.061-4.055-18.155-2.738-24.878 3.985l-1.093 1.093c-4.061 4.061-6.297 9.46-6.297 15.203 0 5.742 2.236 11.142 6.297 15.203l7.038 7.038-16.9 16.899c-1.407 1.407-2.197 3.314-2.197 5.303s.79 3.896 2.197 5.304l30.137 30.137c1.406 1.406 3.314 2.196 5.303 2.196s3.897-.79 5.303-2.196l16.902-16.902 7.038 7.038c4.061 4.062 9.46 6.298 15.203 6.298s11.142-2.236 15.202-6.296l1.094-1.094c0-.001.001-.001.001-.002 6.72-6.721 8.038-16.815 3.983-24.876l65.554-65.554c2.966 1.5 6.257 2.31 9.678 2.31 5.743 0 11.142-2.236 15.204-6.299l1.094-1.095c4.06-4.061 6.296-9.459 6.296-15.201s-2.236-11.142-6.297-15.203l-7.037-7.037 11.314-11.314c.248-.248.531-.301.724-.301s.476.053.724.301l6.027 6.027c5.614 5.613 12.553 9.857 20.067 12.272.763.246 1.536.362 2.297.362 3.17 0 6.116-2.026 7.139-5.206 1.268-3.943-.901-8.168-4.845-9.436-5.331-1.715-10.059-4.607-14.051-8.601l-6.027-6.026c-3.026-3.027-7.05-4.694-11.331-4.694-4.28 0-8.304 1.667-11.331 4.694l-11.314 11.314-19.53-19.53 17.342-17.342c13.694-13.693 35.974-13.693 49.667 0l6.027 6.026c3.026 3.027 7.051 4.694 11.331 4.694s8.304-1.667 11.331-4.693l10.992-10.991 19.529 19.53-17.018 17.018c-2.215 2.216-4.702 4.12-7.392 5.662-3.593 2.06-4.837 6.643-2.778 10.236 1.386 2.418 3.914 3.771 6.514 3.771 1.265 0 2.547-.32 3.723-.994 3.84-2.2 7.386-4.915 10.54-8.069l17.017-17.018 24.425 24.425c1.465 1.464 3.384 2.196 5.304 2.196 1.919 0 3.839-.732 5.304-2.196 2.929-2.93 2.929-7.678 0-10.607l-2.158-2.158 94.381-94.381 2.158 2.158c1.465 1.464 3.385 2.196 5.304 2.196s3.839-.732 5.304-2.196c2.929-2.93 2.929-7.678 0-10.607l-13.22-13.22c5.778-1.066 11.447-2.687 16.968-4.857 3.777 1.424 7.816 2.176 11.973 2.176 9.05 0 17.559-3.523 23.958-9.923l36.563-36.563c2.925-2.929 2.925-7.677-.003-10.607zm-472.167 314.475-19.53-19.53 11.598-11.598 19.53 19.529zm50.136-5.655-1.095 1.095c-1.228 1.228-2.86 1.903-4.596 1.903s-3.368-.676-4.596-1.904l-54.819-54.818c-1.228-1.229-1.904-2.86-1.904-4.597s.676-3.368 1.905-4.598l1.093-1.093c1.267-1.268 2.932-1.9 4.596-1.9s3.329.633 4.596 1.9l54.819 54.818c2.535 2.536 2.535 6.66.001 9.194zm95.512-95.512c0 .001-.001.001-.001.002l-1.093 1.094c-1.228 1.228-2.86 1.903-4.596 1.903s-3.368-.676-4.596-1.904l-54.819-54.818c-2.535-2.535-2.535-6.659-.001-9.192l1.096-1.096c1.228-1.228 2.86-1.903 4.596-1.903s3.369.676 4.597 1.904l54.819 54.818c1.228 1.229 1.904 2.86 1.904 4.597s-.679 3.367-1.906 4.595zm197.166-258.926 31.26-31.261 26.703 26.703-31.261 31.259c-3.565 3.566-8.308 5.531-13.352 5.531-5.043 0-9.785-1.965-13.351-5.531-3.566-3.565-5.53-8.308-5.53-13.351.001-5.043 1.965-9.785 5.531-13.35zm-9.659 55.843c.219-5.33.974-10.58 2.272-15.71 6.082 4.716 13.407 7.082 20.739 7.082 8.089 0 16.179-2.874 22.59-8.617 2.026 3.018 4.623 5.615 7.641 7.641-10.947 12.221-11.454 30.536-1.534 43.33-5.131 1.298-10.381 2.052-15.71 2.272zm91.841 26.339c-3.565 3.566-8.308 5.53-13.351 5.53s-9.784-1.964-13.352-5.531c-3.565-3.565-5.53-8.307-5.53-13.351 0-5.043 1.965-9.785 5.531-13.351l31.259-31.261 26.703 26.703z"/></g></svg>