<svg version="1.1" id="Capa_1" xmlns="http://www.w3.org/2000/svg" xmlns:xlink="http://www.w3.org/1999/xlink" x="0px" y="0px"
	 viewBox="0 0 512 512" style="enable-background:new 0 0 512 512;" xml:space="preserve">
<g>
	<g>
		<path d="M504.5,308.993h-71.379c-6.135,0-11.904-2.389-16.242-6.727l-32.822-32.824c-0.635-0.635-1.377-1.137-2.178-1.505v-7.98
			c0-15.77-7.578-29.799-19.281-38.649h28.776c6.136,0,11.903,2.389,16.242,6.727l32.822,32.823
			c1.406,1.407,3.314,2.197,5.303,2.197H504.5c4.142,0,7.5-3.357,7.5-7.5s-3.358-7.5-7.5-7.5h-55.652l-30.625-30.627
			c-7.171-7.171-16.706-11.12-26.848-11.12h-31.683v-10.465c0-15.71-12.78-28.49-28.49-28.49H114.656c-4.142,0-7.5,3.357-7.5,7.5
			s3.358,7.5,7.5,7.5h216.545c7.438,0,13.49,6.052,13.49,13.49v17.01c-3.613-0.863-7.377-1.333-11.25-1.333H233.156
			c-4.142,0-7.5,3.357-7.5,7.5s3.358,7.5,7.5,7.5H333.44c18.438,0,33.438,15,33.438,33.438v64.689c0,2.757-2.243,5-5,5h-60.223
			c-4.142,0-7.5,3.357-7.5,7.5s3.358,7.5,7.5,7.5h60.223c11.028,0,20-8.972,20-20V288.48l24.394,24.395
			c7.171,7.171,16.706,11.12,26.848,11.12h71.38c4.142,0,7.5-3.357,7.5-7.5C512,312.351,508.642,308.993,504.5,308.993z"/>
	</g>
</g>
<g>
	<g>
		<path d="M271.344,329.646H104.376c-2.757,0-5-2.243-5-5v-64.689c0-18.438,15-33.438,33.437-33.438h70.031
			c4.142,0,7.5-3.357,7.5-7.5s-3.358-7.5-7.5-7.5h-70.031c-26.708,0-48.437,21.729-48.437,48.438v53.299H70.677
			c-7.438,0-13.489-6.051-13.489-13.488V195.843c0-7.438,6.051-13.49,13.489-13.49h13.667c4.142,0,7.5-3.357,7.5-7.5
			s-3.358-7.5-7.5-7.5H70.677c-15.709,0-28.489,12.78-28.489,28.49v12.135l-36.171,7.299C2.517,215.982,0,219.058,0,222.628v68.544
			c0,2.249,1.009,4.38,2.75,5.804c1.352,1.106,3.033,1.696,4.75,1.696c0.494,0,0.991-0.049,1.483-0.148l33.205-6.7v7.944
			c0,15.708,12.78,28.488,28.489,28.488h14.042c1.707,9.308,9.863,16.39,19.657,16.39h166.968c4.142,0,7.5-3.357,7.5-7.5
			S275.486,329.646,271.344,329.646z M42.188,276.523L15,282.008v-53.242l27.188-5.486V276.523z"/>
	</g>
</g>
<g>
	<g>
		<path d="M155.663,266.347c-2.686-3.154-7.419-3.536-10.573-0.852l-19.95,16.978c-3.154,2.685-3.535,7.418-0.851,10.572
			c1.484,1.743,3.593,2.64,5.715,2.64c1.719,0,3.446-0.587,4.857-1.788l19.95-16.978
			C157.966,274.234,158.347,269.501,155.663,266.347z"/>
	</g>
</g>
<g>
	<g>
		<path d="M184.744,266.346c-2.684-3.154-7.418-3.536-10.572-0.852l-19.949,16.978c-3.154,2.685-3.535,7.418-0.851,10.572
			c1.483,1.744,3.592,2.64,5.715,2.64c1.719,0,3.446-0.587,4.857-1.788l19.949-16.978
			C187.047,274.234,187.428,269.5,184.744,266.346z"/>
	</g>
</g>
<g>
	<g>
		<path d="M213.828,266.346c-2.686-3.154-7.418-3.536-10.573-0.852l-19.95,16.978c-3.154,2.685-3.535,7.418-0.851,10.572
			c1.483,1.744,3.592,2.64,5.715,2.64c1.719,0,3.446-0.587,4.858-1.788l19.95-16.978C216.131,274.234,216.512,269.5,213.828,266.346
			z"/>
	</g>
</g>
</svg>
