<svg id="Layer_5" enable-background="new 0 0 64 64" height="512" viewBox="0 0 64 64" width="512" xmlns="http://www.w3.org/2000/svg"><path d="m46 41c-2.757 0-5 2.243-5 5s2.243 5 5 5 5-2.243 5-5-2.243-5-5-5zm0 8c-1.654 0-3-1.346-3-3s1.346-3 3-3 3 1.346 3 3-1.346 3-3 3z"/><path d="m46 53c-1.654 0-3 1.346-3 3s1.346 3 3 3 3-1.346 3-3-1.346-3-3-3zm0 4c-.551 0-1-.448-1-1s.449-1 1-1 1 .448 1 1-.449 1-1 1z"/><path d="m56.161 48.401c-1.434-.825-3.272-.332-4.099 1.099-.827 1.433-.334 3.271 1.099 4.099.471.271.985.401 1.494.401 1.038 0 2.048-.539 2.603-1.5.827-1.432.335-3.271-1.097-4.099zm-.635 3.099c-.277.478-.89.641-1.365.366-.478-.275-.642-.889-.366-1.366.185-.32.521-.5.868-.5.169 0 .341.043.498.134.477.275.641.888.365 1.366z"/><path d="m53.161 38.401c-1.433.828-1.925 2.666-1.099 4.099.555.961 1.565 1.499 2.604 1.499.508 0 1.023-.129 1.495-.4 1.432-.828 1.924-2.667 1.098-4.099s-2.667-1.926-4.098-1.099zm2.365 2.099c.275.478.111 1.091-.366 1.366-.478.277-1.091.111-1.366-.366-.276-.478-.111-1.091.366-1.366.479-.276 1.09-.111 1.366.366z"/><path d="m46 39c1.654 0 3-1.346 3-3s-1.346-3-3-3-3 1.346-3 3 1.346 3 3 3zm0-4c.551 0 1 .448 1 1s-.449 1-1 1-1-.448-1-1 .449-1 1-1z"/><path d="m38.839 38.401c-1.433-.825-3.271-.332-4.097 1.099-.827 1.432-.335 3.271 1.097 4.099h.001c.471.271.986.4 1.494.4 1.038 0 2.049-.538 2.604-1.499.827-1.433.334-3.271-1.099-4.099zm-.633 3.099c-.275.478-.888.643-1.365.366-.478-.275-.642-.889-.366-1.366.275-.478.888-.644 1.365-.366.477.275.641.888.366 1.366z"/><path d="m35.839 48.401c-1.432.828-1.924 2.667-1.098 4.099.555.961 1.565 1.499 2.604 1.499.508 0 1.023-.129 1.494-.4h.001c1.432-.828 1.924-2.666 1.098-4.099-.827-1.432-2.664-1.925-4.099-1.099zm2 3.465c-.476.276-1.09.11-1.366-.366-.275-.478-.111-1.091.366-1.366.158-.091.329-.134.499-.134.346 0 .683.18.868.5.275.478.111 1.091-.367 1.366z"/><path d="m63 17h-2v-3c0-1.654-1.346-3-3-3h-6c-1.654 0-3 1.346-3 3v3h-2v-11c0-2.757-2.243-5-5-5h-6c-2.414 0-4.434 1.721-4.899 4h-18.101c0-1.103-.897-2-2-2h-2c-1.103 0-2 .897-2 2v10c0 1.103.897 2 2 2h2c1.103 0 2-.897 2-2h18v2.426c-4.61 1.31-8 5.549-8 10.574v1h-19c-1.654 0-3 1.346-3 3s1.346 3 3 3c.551 0 1 .448 1 1v5h-2v6.184c-1.161.414-2 1.514-2 2.816v8c0 2.757 2.243 5 5 5h5v-2h6v-8h-6v-3c0-1.302-.839-2.402-2-2.816v-6.184h-2v-5c0-1.654-1.346-3-3-3-.551 0-1-.449-1-1s.449-1 1-1h19v2.101c-2.279.465-4 2.484-4 4.899v16c0 2.757 2.243 5 5 5h11.068c2.958 2.492 6.77 4 10.932 4 9.374 0 17-7.626 17-17 0-.338-.031-.667-.051-1h.051zm-56 26v4h-2v-4zm2 18h-3c-1.654 0-3-1.346-3-3v-8c0-.552.449-1 1-1h4c.551 0 1 .448 1 1zm6-6v4h-4v-4zm36-41c0-.551.449-1 1-1h6c.551 0 1 .449 1 1v3h-8zm-42 1v-10h2l.001 10zm4-2v-6h18v6zm20-7c0-1.654 1.346-3 3-3h6c1.654 0 3 1.346 3 3v11h-11c-.338 0-.67.021-1 .051zm1 13h27v2h-10v8.753c-1.582-.488-3.26-.753-5-.753-1.025 0-2.024.107-3 .281v-8.281h-9c-3.86 0-7 3.14-7 7v5h-2v-5c0-4.962 4.038-9 9-9zm1.068 14h-6.068v-5c0-2.757 2.243-5 5-5h7v6.753c-2.202.679-4.21 1.797-5.932 3.247zm-14.068 21v-16c0-1.654 1.346-3 3-3h9.062c-.656.77-1.238 1.602-1.75 2.48-.732-.309-1.514-.48-2.312-.48-3.309 0-6 2.691-6 6s2.691 6 6 6c.092 0 .186-.012.279-.017.538 3.023 1.87 5.77 3.783 8.017h-9.062c-1.654 0-3-1.346-3-3zm8-8c0 .336.031.665.051.997-.017 0-.035.003-.051.003-2.206 0-4-1.794-4-4s1.794-4 4-4c.48 0 .95.097 1.397.267-.895 2.066-1.397 4.341-1.397 6.733zm17 15c-8.271 0-15-6.729-15-15s6.729-15 15-15 15 6.729 15 15-6.729 15-15 15zm7-30.474v-7.526h8v15.017c-1.762-3.297-4.582-5.939-8-7.491z"/><path d="m25 49h-2v4c0 1.103.897 2 2 2h2v-2h-2z"/><path d="m55 25h4v2h-4z"/><path d="m55 29h4v2h-4z"/><path d="m37 25h2v2h-2z"/><path d="m33 25h2v2h-2z"/><path d="m37 15h4c1.103 0 2-.897 2-2v-6c0-1.103-.897-2-2-2h-4c-1.103 0-2 .897-2 2v6c0 1.103.897 2 2 2zm0-8h4l.001 6h-4.001z"/></svg>