<svg id="Capa_1" enable-background="new 0 0 511.951 511.951" height="512" viewBox="0 0 511.951 511.951" width="512" xmlns="http://www.w3.org/2000/svg"><g><path d="m508.687 345.201-68.604-61.666c-6.31-5.674-16.685-1.03-16.685 7.437v29.552h-25.385v-98.535h25.385v29.562c0 8.452 10.356 13.126 16.685 7.438l68.604-61.656c4.351-3.91 4.352-10.963 0-14.875l-68.604-61.666c-6.309-5.674-16.685-1.03-16.685 7.437v29.529l-25.385-.007v-70.207c0-30.217-24.584-54.8-54.801-54.8h-52.528c-5.522 0-10 4.477-10 10s4.478 10 10 10h52.528c19.189 0 34.801 15.611 34.801 34.8v70.201l-16.438-.005c-2.967 0-5.978-.426-8.815-1.3v-68.442c0-5.523-4.478-10-10-10h-190.851c-5.522 0-10 4.477-10 10v335.955c0 5.523 4.478 10 10 10h190.851c5.522 0 10-4.477 10-10v-39.584c2.929.27 5.884.397 8.825.403l16.429-.006v39.631c0 19.194-15.616 34.81-34.811 34.81h-191.748c-19.188 0-34.8-15.611-34.8-34.8v-336.853c0-19.194 15.616-34.81 34.811-34.81h50.782c5.522 0 10-4.477 10-10s-4.478-10-10-10h-50.782c-30.223 0-54.811 24.588-54.811 54.81v53.286c-15.307-.27-30.375 3.113-44.129 9.99-8.713 4.354-29.34 4.354-38.055 0-4.94-2.469-10.946-.464-13.414 4.477-2.469 4.941-.465 10.947 4.477 13.415 14.375 7.182 41.557 7.181 55.934-.001 10.955-5.477 22.946-8.15 35.187-7.883v24.224c-8.367-.26-16.719 1.542-24.336 5.351-18.173 9.078-39.835 10.342-58.965 3.537-5.2-1.851-10.922.867-12.773 6.069-1.851 5.204.866 10.922 6.07 12.773 24.216 8.616 51.604 7.002 74.608-4.49 4.809-2.405 10.101-3.493 15.396-3.222v96.722c-15.32-.272-30.388 3.112-44.129 9.99-8.713 4.354-29.34 4.354-38.055 0-4.94-2.468-10.946-.464-13.414 4.477-2.469 4.941-.465 10.947 4.477 13.415 14.375 7.182 41.558 7.183 55.938-.004 10.943-5.479 22.955-8.151 35.183-7.881v24.225c-8.373-.273-16.715 1.538-24.336 5.341-18.185 9.084-39.822 10.348-58.964 3.537-5.202-1.852-10.922.865-12.773 6.069-1.852 5.204.865 10.922 6.068 12.774 24.227 8.62 51.588 7.011 74.603-4.485 4.814-2.402 10.107-3.487 15.402-3.216v58.363c0 30.217 24.583 54.8 54.8 54.8h191.748c30.223 0 54.811-24.588 54.811-54.81v-39.646l25.385-.014v29.556c0 8.452 10.356 13.126 16.685 7.438l68.604-61.656c4.351-3.91 4.352-10.963-.001-14.874zm-320.641 68.752h-26.137v-315.955h26.137zm48.034-258.056c0 .016-.003.031-.003.047v52.857c0 .014.003.029.003.043v109.826c0 .016-.003.031-.003.047v52.866c0 .014.003.029.003.043v42.326h-28.034v-315.954h28.034zm68.035-57.899h28.645v46.152c-8.634-4.714-18.379-7.953-28.645-9.534zm-48.035 0h28.035v35.663c-9.78.553-19.299 2.594-28.035 5.972zm0 63.587c9.676-5.243 21.358-8.09 33.451-8.09 14.627 0 28.526 4.122 39.137 11.607 3.345 2.36 6.616 4.945 10.164 6.999 6.823 3.95 14.905 5.641 22.739 5.641l71.824.02c5.441 0 10.003-4.557 10.003-10v-17.097l43.645 39.231-43.645 39.224v-17.13c0-5.523-4.478-10-10-10h-71.823c-13.733 0-27.816-3.626-39.124-11.595l-7.767-5.482c-13.932-9.831-36.169-9.846-50.146-.112l-8.458 5.524zm121.934 60.404v98.535h-16.438c-2.965 0-5.982-.429-8.815-1.302v-97.633c2.925.267 5.879.399 8.815.399h16.438zm-45.254-4.488v89.425c-8.638-4.715-18.384-7.954-28.645-9.536v-95.459l6.809 4.807c6.511 4.588 13.907 8.2 21.836 10.763zm-76.68-3.289 19.531-12.758c2.295-1.664 5.195-2.733 8.504-3.309v98.289c-9.775.554-19.295 2.596-28.035 5.976zm28.035 199.741h-28.035v-36.958l19.531-12.756c.1-.066.199-.133.297-.202 2.167-1.529 5.06-2.561 8.207-3.107zm48.645 0h-28.645v-49.24l6.805 4.795c6.511 4.593 13.907 8.208 21.84 10.774zm110.638-22.092v-17.129c0-5.726-4.699-9.837-10.21-10-1.634-.048-56.594.063-71.055.04-13.964-.022-28.165-3.48-39.69-11.609l-7.758-5.467c-13.906-9.813-36.19-9.835-50.148-.113l-8.457 5.524v-28.746c21.966-11.892 52-10.994 72.58 3.508l7.773 5.494c7.218 5.078 16.422 7.161 25.142 7.161h71.823c5.522 0 10-4.477 10-10v-17.117l43.645 39.23z"/><path d="m255.652 37.195c-5.049-7.52-17.091-4.69-18.237 4.325-1.176 9.244 10.446 14.836 16.987 8.295 3.323-3.323 3.863-8.705 1.25-12.62z"/></g></svg>