<svg xmlns="http://www.w3.org/2000/svg" viewBox="0 0 64 64" width="512" height="512"><g id="outline"><path d="M49,11V5a1,1,0,0,0-.338-.75,1.013,1.013,0,0,0-.786-.242L37,5.367V3a1,1,0,0,0-1-1H28a1,1,0,0,0-1,1V6.617L15.876,8.008A1,1,0,0,0,15,9v6a1,1,0,0,0,.338.75.984.984,0,0,0,.451.212l0,.015,8.856,1.935-8.766,1.1A1,1,0,0,0,15,20v6a1,1,0,0,0,.338.75.984.984,0,0,0,.451.212l0,.015,8.856,1.935-8.766,1.1A1,1,0,0,0,15,31V43a1,1,0,0,0,1,1H27v2H18V56h6v6H40V56h6V46H37V44H48a1,1,0,0,0,1-1V37a1,1,0,0,0-1-1H37v-.617l11.124-1.391A1,1,0,0,0,49,33V27a1,1,0,0,0-.338-.75.985.985,0,0,0-.452-.213l0-.014-8.861-1.934,8.772-1.1A1,1,0,0,0,49,22V16a1,1,0,0,0-.338-.75.983.983,0,0,0-.452-.212l0-.015-8.861-1.934,8.772-1.1A1,1,0,0,0,49,11ZM29,4h6V5.617l-6,.75Zm8,10.621,5.085,1.111L37,16.367Zm-2,2-4.4.55-1.6-.35V14.383l6-.75Zm-8-.237-5.088-1.111L27,14.633Zm10,9.241,5.085,1.111L37,27.367Zm-2,2-4.4.55-1.6-.35V25.383l6-.75Zm-8-.237-5.088-1.111L27,25.633ZM38,60H26V56H38Zm6-6H20V52h4V50H20V48H44Zm-9-8H29V44h6Zm12-4H17V38H47ZM35,36H32.062L35,35.633Zm12-3.883-30,3.75V31.883l30-3.75Zm0-11-30,3.75V20.883l30-3.75Zm0-11-30,3.75V9.883l30-3.75Z"/><rect x="26" y="50" width="2" height="2"/></g></svg>
