<svg xmlns="http://www.w3.org/2000/svg" id="Outline" viewBox="0 0 512 512" width="512" height="512"><g id="Shock-absorber"><path d="M232,32H208V16H192V32H152V16H136V32H96V16H80V32H56a8,8,0,0,0-8,8V72a8,8,0,0,0,8,8h56V96H88a24,24,0,0,0,0,48h5.194l20,16H88a24,24,0,0,0,0,48h5.194l20,16H88a24,24,0,0,0,0,48h5.194l20,16H88a24,24,0,0,0,0,48h24v32H96v16h16v16h-8a24.027,24.027,0,0,0-24,24v16a24.027,24.027,0,0,0,24,24h8a32,32,0,0,0,64,0h8a24.027,24.027,0,0,0,24-24V424a24.027,24.027,0,0,0-24-24h-8V384h16V368H176V336h24a24,24,0,0,0,0-48h-5.194l-20-16H200a24,24,0,0,0,0-48h-5.194l-20-16H200a24,24,0,0,0,0-48h-5.194l-20-16H200a24,24,0,0,0,0-48H176V80h56a8,8,0,0,0,8-8V40A8,8,0,0,0,232,32ZM104,448a8.009,8.009,0,0,1-8-8V424a8.009,8.009,0,0,1,8-8h8v32Zm80-32a8.009,8.009,0,0,1,8,8v16a8.009,8.009,0,0,1-8,8h-8V416Zm-24,48a16,16,0,0,1-32,0V336h32Zm48-152a8.009,8.009,0,0,1-8,8H88a8,8,0,0,1,0-16H200A8.009,8.009,0,0,1,208,312Zm-38.806-24H138.806l-20-16h30.388ZM208,248a8.009,8.009,0,0,1-8,8H88a8,8,0,0,1,0-16H200A8.009,8.009,0,0,1,208,248Zm-38.806-24H138.806l-20-16h30.388ZM208,184a8.009,8.009,0,0,1-8,8H88a8,8,0,0,1,0-16H200A8.009,8.009,0,0,1,208,184Zm-38.806-24H138.806l-20-16h30.388ZM208,120a8.009,8.009,0,0,1-8,8H88a8,8,0,0,1,0-16H200A8.009,8.009,0,0,1,208,120ZM160,96H128V80h32Zm64-32H64V48H224Z"/><path d="M456,32H432V16H416V32H376V16H360V32H320V16H304V32H280a8,8,0,0,0-8,8V72a8,8,0,0,0,8,8h56V96H312a24,24,0,0,0,0,48h5.194l20,16H312a24,24,0,0,0,0,48h5.194l20,16H312a24,24,0,0,0,0,48h5.194l20,16H312a24,24,0,0,0,0,48h24v32H320v16h16v16h-8a24.027,24.027,0,0,0-24,24v16a24.027,24.027,0,0,0,24,24h8a32,32,0,0,0,64,0h8a24.027,24.027,0,0,0,24-24V424a24.027,24.027,0,0,0-24-24h-8V384h16V368H400V336h24a24,24,0,0,0,0-48h-5.194l-20-16H424a24,24,0,0,0,0-48h-5.194l-20-16H424a24,24,0,0,0,0-48h-5.194l-20-16H424a24,24,0,0,0,0-48H400V80h56a8,8,0,0,0,8-8V40A8,8,0,0,0,456,32ZM328,448a8.009,8.009,0,0,1-8-8V424a8.009,8.009,0,0,1,8-8h8v32Zm80-32a8.009,8.009,0,0,1,8,8v16a8.009,8.009,0,0,1-8,8h-8V416Zm-24,48a16,16,0,0,1-32,0V336h32Zm48-152a8.009,8.009,0,0,1-8,8H312a8,8,0,0,1,0-16H424A8.009,8.009,0,0,1,432,312Zm-38.806-24H362.806l-20-16h30.388ZM432,248a8.009,8.009,0,0,1-8,8H312a8,8,0,0,1,0-16H424A8.009,8.009,0,0,1,432,248Zm-38.806-24H362.806l-20-16h30.388ZM432,184a8.009,8.009,0,0,1-8,8H312a8,8,0,0,1,0-16H424A8.009,8.009,0,0,1,432,184Zm-38.806-24H362.806l-20-16h30.388ZM432,120a8.009,8.009,0,0,1-8,8H312a8,8,0,0,1,0-16H424A8.009,8.009,0,0,1,432,120ZM384,96H352V80h32Zm64-32H288V48H448Z"/></g></svg>
