<svg id="Layer_1" enable-background="new 0 0 512 512" height="512" viewBox="0 0 512 512" width="512" xmlns="http://www.w3.org/2000/svg"><path d="m100.6 233.15h89.63v20h-89.63z"/><path d="m130.417 374.066v46.906c-18.48 6.257-31.815 23.743-31.815 44.281 0 25.773 21.001 46.741 46.815 46.741s46.816-20.968 46.816-46.741c0-20.538-13.336-38.024-31.816-44.281v-46.905c16.963-6.044 29.244-22.038 29.793-40.917h-89.59c.548 18.878 12.834 34.871 29.797 40.916z"/><path d="m100.6 283.15h89.63v20h-89.63z"/><path d="m145.42 78.49c-9.27 0-16.82 7.51-16.82 16.74s7.55 16.74 16.82 16.74 16.81-7.51 16.81-16.74-7.54-16.74-16.81-16.74z"/><path d="m240.83 95.23c0-52.51-42.8-95.23-95.41-95.23s-95.42 42.72-95.42 95.23c0 35.7 19.56 67.69 50.6 84.1v23.82h89.63v-23.82c31.05-16.41 50.6-48.4 50.6-84.1zm-95.41 46.74c-25.82 0-46.82-20.97-46.82-46.74 0-25.78 21-46.74 46.82-46.74 25.81 0 46.81 20.96 46.81 46.74 0 25.77-21 46.74-46.81 46.74z"/><path d="m84.3 203.15c-8.28 0-15 6.71-15 15 0 8.28 6.72 15 15 15h16.3v-30z"/><path d="m206.53 233.15c8.29 0 15-6.72 15-15 0-8.29-6.71-15-15-15h-16.3v30z"/><path d="m84.3 253.15c-8.28 0-15 6.71-15 15 0 8.28 6.72 15 15 15h16.3v-30z"/><path d="m206.53 283.15c8.29 0 15-6.72 15-15 0-8.29-6.71-15-15-15h-16.3v30z"/><path d="m100.6 303.15h-16.3c-8.28 0-15 6.71-15 15 0 8.28 6.72 15 15 15h16.32c-.01-.44-.02-.88-.02-1.32z"/><path d="m190.21 333.15h16.32c8.29 0 15-6.72 15-15 0-8.29-6.71-15-15-15h-16.3v28.68c0 .44-.01.88-.02 1.32z"/><path d="m381.589 137.933v-46.905c18.48-6.257 31.815-23.743 31.815-44.281 0-25.773-21.001-46.741-46.815-46.741s-46.816 20.968-46.816 46.741c0 20.538 13.336 38.024 31.816 44.281v46.906c-16.964 6.045-29.25 22.038-29.799 40.916h89.59c-.548-18.879-12.829-34.872-29.791-40.917z"/><path d="m321.77 208.85h89.63v20h-89.63z"/><path d="m321.77 258.85h89.63v20h-89.63z"/><path d="m366.59 400.03c-9.27 0-16.82 7.51-16.82 16.74s7.55 16.74 16.82 16.74 16.81-7.51 16.81-16.74-7.54-16.74-16.81-16.74z"/><path d="m411.4 333.66v-24.81h-89.63v24.81c-31.04 16.35-50.6 47.96-50.6 83.11 0 52.51 42.81 95.23 95.42 95.23s95.41-42.72 95.41-95.23c0-35.15-19.55-66.76-50.6-83.11zm-44.81 129.85c-25.82 0-46.82-20.96-46.82-46.74 0-25.77 21-46.74 46.82-46.74 25.81 0 46.81 20.97 46.81 46.74 0 25.78-21 46.74-46.81 46.74z"/><path d="m305.47 278.85c-8.28 0-15 6.72-15 15 0 8.29 6.72 15 15 15h16.3v-30z"/><path d="m427.71 308.85c8.28 0 15-6.71 15-15 0-8.28-6.72-15-15-15h-16.31v30z"/><path d="m305.47 228.85c-8.28 0-15 6.72-15 15 0 8.29 6.72 15 15 15h16.3v-30z"/><path d="m427.71 258.85c8.28 0 15-6.71 15-15 0-8.28-6.72-15-15-15h-16.31v30z"/><path d="m321.79 178.85h-16.32c-8.28 0-15 6.72-15 15 0 8.29 6.72 15 15 15h16.3v-28.68c0-.44.01-.88.02-1.32z"/><path d="m411.4 208.85h16.31c8.28 0 15-6.71 15-15 0-8.28-6.72-15-15-15h-16.33c.01.44.02.88.02 1.32z"/></svg>