<svg id="Layer_3" enable-background="new 0 0 64 64" height="512" viewBox="0 0 64 64" width="512" xmlns="http://www.w3.org/2000/svg"><path d="m27 63h10c1.654 0 3-1.346 3-3v-13h3c.552 0 1-.447 1-1v-6c0-.553-.448-1-1-1h-3v-4h3c.552 0 1-.447 1-1v-6c0-.552-.448-1-1-1h-3v-11c0-.552-.448-1-1-1h-1v-8c0-.552-.448-1-1-1h-1v-4c0-.552-.448-1-1-1h-6c-.552 0-1 .448-1 1v4h-1c-.552 0-1 .448-1 1v8h-1c-.552 0-1 .448-1 1v11h-3c-.552 0-1 .448-1 1v6c0 .553.448 1 1 1h3v4h-3c-.552 0-1 .447-1 1v6c0 .553.448 1 1 1h3v13c0 1.654 1.346 3 3 3zm-1-8h12v2h-12zm0-2v-2h12v2zm11 8h-10c-.551 0-1-.448-1-1v-1h12v1c0 .552-.449 1-1 1zm1-12h-12v-2h12zm-8-46h4v3h-4zm-2 5h8v7h-8zm-2 9h12v10h-12zm-4 12h20v4h-20zm4 6h12v4h-12zm-4 6h20v4h-20z"/><path d="m11 29v-6.586l4.293 4.293 1.414-1.414-6-6c-.287-.287-.716-.373-1.09-.217-.373.155-.617.52-.617.924v8h-7c-.404 0-.769.244-.924.617-.155.374-.069.804.217 1.09l7.293 7.293-6.293 6.293c-.286.286-.372.716-.217 1.09s.52.617.924.617h10v-2h-7.586l5.293-5.293c.391-.391.391-1.023 0-1.414l-6.293-6.293h5.586c.552 0 1-.448 1-1z"/><path d="m54.383 19.076c-.375-.156-.804-.07-1.09.217l-6 6 1.414 1.414 4.293-4.293v6.586c0 .552.448 1 1 1h5.586l-6.293 6.293c-.391.391-.391 1.023 0 1.414l5.293 5.293h-7.586v2h10c.404 0 .769-.243.924-.617s.069-.804-.217-1.09l-6.293-6.293 7.293-7.293c.286-.286.372-.716.217-1.09-.155-.373-.52-.617-.924-.617h-7v-8c0-.404-.244-.769-.617-.924z"/></svg>