<svg id="Icons" height="512" viewBox="0 0 60 60" width="512" xmlns="http://www.w3.org/2000/svg"><path d="m58.394 17.2-1.794-.954a2 2 0 0 0 -2 .081l-6.771-3.589a2.005 2.005 0 0 0 -1.058-1.7l-1.8-.954 1.436-2.694a3.07 3.07 0 0 0 -1.249-4.083 2.987 2.987 0 0 0 -3.463.452l-6.417-3.399a3.015 3.015 0 0 0 -4.09 1.24l-5.688 10.727a2.988 2.988 0 0 0 .449 3.454l-12.237 23.078-3.587-1.9a2.964 2.964 0 0 0 -2.3-.22 3.008 3.008 0 0 0 -1.325 4.927l-3.03 5.704a2.984 2.984 0 0 0 -3.116 1.555 3.036 3.036 0 0 0 1.246 4.092l12.5 6.624a2.946 2.946 0 0 0 1.318.359h.119a3.029 3.029 0 0 0 2.663-1.611 3 3 0 0 0 -.462-3.447l3.032-5.711a2.962 2.962 0 0 0 .327.049h.123a3.021 3.021 0 0 0 1.422-5.68l-3.587-1.9 12.155-22.926 1.973 1.045a2.821 2.821 0 0 0 1.554 3.116 3.107 3.107 0 0 0 4.087-1.251l1.428-2.691 1.8.953a2.041 2.041 0 0 0 2.007-.08l6.761 3.585a1.963 1.963 0 0 0 .077.518 2 2 0 0 0 .984 1.2l1.783.937a3.02 3.02 0 0 0 4.085-1.243l1.9-3.578a3.066 3.066 0 0 0 -1.255-4.085zm-4.973.766-1.907 3.594-6.278-3.329 1.908-3.593zm-26.153-4.7 5.687-10.725a1.011 1.011 0 0 1 .606-.5 1 1 0 0 1 .774.08l6.265 3.322-6.645 12.521-6.269-3.32a1 1 0 0 1 -.494-.6 1.02 1.02 0 0 1 .076-.779zm-11.2 40.576-10.748-5.693 2.858-5.385 10.741 5.7zm.369 3.621a1.064 1.064 0 0 1 -1.377.42l-12.52-6.632a1.022 1.022 0 1 1 .961-1.8l12.433 6.586a1.057 1.057 0 0 1 .499 1.425zm5.756-11.5a1.017 1.017 0 0 1 -1.449 1.2l-12.5-6.634a1.021 1.021 0 0 1 -.444-1.381 1.053 1.053 0 0 1 1.381-.427l12.524 6.644a.987.987 0 0 1 .484.595zm-4.9-5.2-1.809-.96 12.148-22.924 1.809.958zm19.767-20.021a1.021 1.021 0 0 1 -1.383.427 1.041 1.041 0 0 1 -.424-1.386l7.589-14.294a1 1 0 0 1 .594-.489 1.044 1.044 0 0 1 .3-.046 1.016 1.016 0 0 1 .48.122 1.027 1.027 0 0 1 .551.907.994.994 0 0 1 -.127.47zm5.925-2.563-1.8-.953 2.852-5.376 1.8.965zm14.9 2.159-1.9 3.575a1.017 1.017 0 0 1 -1.383.416l-1.786-.951 2.855-5.369 1.786.948a1.022 1.022 0 0 1 .426 1.381z"/></svg>