<svg id="Layer_1" height="512" viewBox="0 0 128 128" width="512" xmlns="http://www.w3.org/2000/svg" data-name="Layer 1"><path d="m114.13 34.06-7.23-.77c-1.17-3.77-2.18-7-3-9.27-2-5.53-7.66-7.92-10.83-8.85-5.51-1.62-12.48-2.43-22.47-3.5-10-1.06-17-1.72-22.7-1.3-3.3.24-9.3 1.4-12.45 6.38-1.28 2-3 5-4.9 8.42l-7.22-.77a5.11 5.11 0 0 0 -5.4 4.79c-.34 2.94 1.44 6.16 6 7.6-2.3 3.87-2.93 8.21-3.44 13.14l-2.73 25.65a5.5 5.5 0 0 0 5.16 6.42l7.57.81a5.49 5.49 0 0 0 6.39-5.16l.59-5.65 26.4 2.81 25.45 2.71-.59 5.58a5.47 5.47 0 0 0 5.16 6.38l8.52.91a5.48 5.48 0 0 0 6.38-5.16l2.73-25.65c.52-4.9.84-9.31-.57-13.55 4.76-.45 7.18-3.23 7.46-6.17a5.1 5.1 0 0 0 -4.28-5.8zm-49.84 36.8-38.79-4.12c-1.82-.19-2.61-1.46-2.37-3.75 1.81-17.1 1.22-11.47 1.34-12.64a49.8 49.8 0 0 1 1.19-7.35c2.72 1.18 10.53 1.2 12.63 1.14-.3 3.79-.34 3.78-.11 4.35 1.54 3.77 4.82 5.95 9.62 6.51l36 3.82c4.44.48 8.29-.65 10.76-4.28.39-.57.35-.81.81-4.28 2 .48 9.6 2.13 12.59 1.54a49.05 49.05 0 0 1 -.38 7.44l-1.32 12.4c-.21 2-1.09 3.61-3.13 3.4zm-29.61-44.64c2.93-.36 65.11 6.24 67.95 7.23l.17.11 1.34 4.32a43.6 43.6 0 0 0 -4.4-.23c-5 0-12.45 2.7-12.91 7-.2 1.88 1.94 3.31 4.62 4.34-.13 1-.35 2.71-.47 3.54-1.44 1.86-3.61 2.58-6.8 2.24l-35.95-3.77c-3.19-.33-5.17-1.49-6.18-3.61.06-.85.2-2.56.28-3.57 2.84-.44 5.24-1.38 5.44-3.26.46-4.36-6.36-8.61-11.26-9.62-1.72-.35-3.12-.55-4.24-.67l2.22-3.95zm56.53 18.32c3.23-3.15 9.85-3.28 14.26-2.42 1.12 3.53 1.52 4.67 1.82 5.67-2.1.5-12.15-1.26-16.08-3.25zm-61.13-10.43c4.49.08 11 1.62 13.44 5.35-4.32 1.15-14.51.72-16.41-.19.3-.54 1.61-2.79 2.97-5.16zm18.1-19.75c5.39-.4 12.2.25 22 1.29 9.79 1 16.59 1.84 21.77 3.36 2 .58 6.73 2.36 8.2 6.39.38 1 .8 2.27 1.26 3.68-5.48-1-59.89-6.7-64.58-6.86.75-1.29 1.42-2.42 2-3.34 2.28-3.63 7.3-4.37 9.35-4.52zm-26.3 15.3c.09-.73.54-1.33 1-1.28l5.52.62c-.78 1.38-1.6 2.82-2.42 4.25-3.22-.74-4.24-2.34-4.1-3.59zm11 47.53c-.13 1.28-.73 1.74-2 1.61l-7.53-.8c-1.28-.13-1.74-.71-1.61-2l.65-6.1a7.3 7.3 0 0 0 2.69.81l8.42.89zm69.93 9.25-8.52-.9c-1.27-.14-1.74-.72-1.6-2l.61-5.54c9.89 1 9.48 1 10.19 1a6.83 6.83 0 0 0 2-.3l-.66 6.13c-.15 1.27-.73 1.75-2 1.61zm11.59-46.95c-.12 1.26-1.45 2.61-4.75 2.62-.51-1.57-1-3.14-1.47-4.66l5.51.58c.47.05.8.73.73 1.46z"/><path d="m31.42 94.79c-3.63-.65-8.89-1.58-10.72-2.54 1.93-.91 7.77-1.19 11.22-1.58a2 2 0 1 0 -.46-4c-6.61.76-14.49.55-15.14 5.18-.59 4.19 5.7 5.31 14.4 6.86 4.05.72 11.55 2 12.55 3.41a1 1 0 0 1 -.28.91c-2.31 3-13.65 5.09-28.89 5.44a2 2 0 0 0 .05 4c10.07-.24 27.61-1.45 31.94-7a5 5 0 0 0 1-4.31c-.72-3.54-6.42-4.73-15.67-6.37z"/><path d="m93.35 101.08c-3.63-.65-8.89-1.58-10.72-2.55 1.93-.9 7.78-1.18 11.22-1.57a2 2 0 0 0 -.46-4c-6.62.76-14.49.53-15.14 5.18-.59 4.19 5.7 5.31 14.4 6.85 4 .72 11.54 2.06 12.55 3.42a1 1 0 0 1 -.28.91c-2.32 3-13.65 5.08-28.89 5.44a2 2 0 0 0 0 4c10.07-.24 27.61-1.45 31.94-7a5 5 0 0 0 1-4.31c-.67-3.54-6.38-4.73-15.62-6.37z"/></svg>