<svg id="Capa_1" enable-background="new 0 0 512 512" height="512" viewBox="0 0 512 512" width="512" xmlns="http://www.w3.org/2000/svg"><g><g><path d="m478.968 264.258h-33.032c-18.217 0-33.032 14.815-33.032 33.032v49.548h-8.258c-10.752 0-19.836 6.929-23.255 16.516h-84.1v-16.516c0-9.109-7.407-16.516-16.516-16.516v-118.684c48.235-11.355 82.581-54.09 82.581-104.283-.001-59.194-48.162-107.355-107.356-107.355s-107.355 48.161-107.355 107.355c0 50.193 34.345 92.928 82.581 104.283v118.685c-9.109 0-16.516 7.407-16.516 16.516v16.516h-84.1c-3.419-9.588-12.503-16.516-23.255-16.516h-8.258v-49.549c0-18.217-14.815-33.032-33.032-33.032h-33.033c-18.217 0-33.032 14.815-33.032 33.032v181.677c0 18.218 14.815 33.033 33.032 33.033h33.032c18.217 0 33.032-14.815 33.032-33.032v-49.548h8.258c10.752 0 19.836-6.929 23.255-16.516h84.1c0 9.109 7.407 16.516 16.516 16.516h49.548c9.109 0 16.516-7.407 16.516-16.516h84.1c3.419 9.588 12.503 16.516 23.255 16.516h8.258v49.548c0 18.217 14.815 33.032 33.032 33.032h33.032c18.219 0 33.034-14.815 33.034-33.032v-181.678c0-18.217-14.815-33.032-33.032-33.032zm-396.387 214.71c0 9.109-7.407 16.516-16.516 16.516h-33.033c-9.109 0-16.516-7.407-16.516-16.516v-181.678c0-9.109 7.407-16.516 16.516-16.516h33.032c9.109 0 16.516 7.408 16.516 16.516v181.678zm33.032-74.323c0 4.558-3.708 8.258-8.258 8.258h-8.258v-49.548h8.258c4.55 0 8.258 3.7 8.258 8.258zm16.516-8.258v-16.516h82.581v16.516zm99.097-236.957c-12.098-5.739-21.611-15.459-27.26-27.301h27.26zm-32.339-43.817c-.388-2.709-.694-5.45-.694-8.258s.273-5.549.661-8.258h114.292c.388 2.709.661 5.45.661 8.258s-.306 5.549-.694 8.258zm4.963-33.032c9.299-19.497 29.151-33.032 52.15-33.032s42.851 13.535 52.15 33.032zm104.184 49.548c-5.657 11.834-15.162 21.554-27.26 27.301v-27.301zm-142.873-24.774c0-50.085 40.754-90.839 90.839-90.839s90.839 40.754 90.839 90.839c0 41.133-27.268 76.362-66.065 87.255v-17.251c29.473-10.389 49.548-38.309 49.548-70.004 0-40.977-33.346-74.323-74.323-74.323s-74.323 33.346-74.323 74.323c0 31.694 20.075 59.615 49.548 70.004v17.251c-38.795-10.893-66.063-46.122-66.063-87.255zm82.581 24.774h16.516v198.194h-16.516zm-16.516 280.774v-33.032-33.032h49.548l.008 66.065h-49.556zm66.064-33.032h82.581v16.516h-82.581zm107.355 33.032c-4.55 0-8.258-3.7-8.258-8.258v-33.032c0-4.558 3.708-8.258 8.258-8.258h8.258v49.548zm90.839 66.065c0 9.109-7.407 16.516-16.516 16.516h-33.032c-9.109 0-16.516-7.407-16.516-16.516v-181.678c0-9.109 7.407-16.516 16.516-16.516h33.032c9.109 0 16.516 7.408 16.516 16.516z"/><path d="m462.452 386.461-20.191-13.461-9.167 13.742 29.358 19.571 29.357-19.571-9.166-13.742z"/><path d="m462.452 427.751-20.191-13.46-9.167 13.741 29.358 19.572 29.357-19.572-9.166-13.741z"/><path d="m462.452 303.88-20.191-13.46-9.167 13.741 29.358 19.572 29.357-19.572-9.166-13.741z"/><path d="m462.452 345.171-20.191-13.461-9.167 13.741 29.358 19.572 29.357-19.572-9.166-13.741z"/><path d="m462.452 469.042-20.191-13.461-9.167 13.741 29.358 19.572 29.357-19.572-9.166-13.741z"/><path d="m49.548 386.461-20.191-13.461-9.166 13.742 29.357 19.571 29.358-19.571-9.167-13.742z"/><path d="m49.548 427.751-20.191-13.46-9.166 13.741 29.357 19.572 29.358-19.572-9.167-13.741z"/><path d="m49.548 303.88-20.191-13.46-9.166 13.741 29.357 19.572 29.358-19.572-9.167-13.741z"/><path d="m49.548 345.171-20.191-13.461-9.166 13.741 29.357 19.572 29.358-19.572-9.167-13.741z"/><path d="m49.548 469.042-20.191-13.461-9.166 13.741 29.357 19.572 29.358-19.572-9.167-13.741z"/><path d="m256 404.645c13.659 0 24.774-11.115 24.774-24.774s-11.115-24.774-24.774-24.774-24.774 11.115-24.774 24.774 11.115 24.774 24.774 24.774zm0-33.032c4.55 0 8.258 3.7 8.258 8.258s-3.708 8.258-8.258 8.258-8.258-3.7-8.258-8.258 3.708-8.258 8.258-8.258z"/><path d="m299.71 451.774 10.678 10.678h-112.194v16.516h112.194l-10.678 10.677 11.677 11.677 30.612-30.612-30.612-30.613z"/><path d="m101.516 126.291 11.677 11.676 30.613-30.612-30.613-30.613-11.677 11.677 10.678 10.678h-112.194v16.516h112.194z"/><path d="m460.032 220.548-11.677-11.677-10.678 10.678v-112.194h-16.516v112.194l-10.677-10.678-11.677 11.677 30.612 30.613z"/></g></g></svg>