<svg id="Layer_34" enable-background="new 0 0 128 128" height="512" viewBox="0 0 128 128" width="512" xmlns="http://www.w3.org/2000/svg"><path d="m96 117h-1l-.004-11.095c-.567-5.972-3.887-11.352-9.414-15.367.848-.53 1.418-1.465 1.418-2.538v-4c0-1.654-1.346-3-3-3h-8.979v-11c0-1.654-1.346-3-3-3h-.021v-37c0-.136-.027-.27-.081-.394l-2.919-6.81v-20.796c0-.553-.447-1-1-1h-8c-.553 0-1 .447-1 1v20.796l-2.919 6.811c-.054.123-.081.257-.081.393v37h-.021c-1.654 0-3 1.346-3 3v11h-8.979c-1.654 0-3 1.346-3 3v4c0 1.073.57 2.008 1.419 2.539-5.527 4.016-8.848 9.404-9.419 15.461v11h-1c-1.654 0-3 1.346-3 3v4c0 1.654 1.346 3 3 3h64c1.654 0 3-1.346 3-3v-4c0-1.654-1.346-3-3-3zm-28.659-93 2.143 5h-10.968l2.143-5zm-.341-21v19h-6v-19zm-9 28h12v36h-12zm-3.021 39c0-.552.448-1 1-1h16.041c.552 0 1 .448 1 1v11h-18.041zm-11.979 14c0-.552.448-1 1-1h40c.552 0 1 .448 1 1v4c0 .552-.448 1-1 1h-40c-.552 0-1-.448-1-1zm-8.005 22.095c.567-5.971 4.231-11.321 10.318-15.095h37.373c6.087 3.774 9.751 9.122 10.313 15v11h-57.999zm62.005 17.905c0 .552-.448 1-1 1h-64c-.552 0-1-.448-1-1v-4c0-.552.448-1 1-1h64c.552 0 1 .448 1 1z"/></svg>