<svg id="Capa_1" enable-background="new 0 0 501.23 501.23" height="512" viewBox="0 0 501.23 501.23" width="512" xmlns="http://www.w3.org/2000/svg"><g><path d="m303.654 133.937-25.819 25.819 51.401 75.878 38.057-38.057z"/><path d="m235.408 202.182 51.402 75.878 20.825-20.825-51.402-75.878z"/><path d="m133.948 303.642 63.64 63.64 25.193-25.194-51.401-75.878z"/><path d="m192.982 244.608 51.402 75.878 20.824-20.824-51.401-75.878z"/><path d="m260.605 134.322-24.837 16.825 20.465 30.21 21.602-21.601z"/><path d="m324.863 282.669 24.838-16.825-20.465-30.21-21.601 21.601z"/><path d="m218.18 176.748-24.838 16.826 20.465 30.21 21.601-21.602z"/><path d="m282.438 325.096 24.837-16.826-20.465-30.21-21.602 21.602z"/><path d="m175.754 219.174-24.838 16.826 20.464 30.21 21.602-21.602z"/><path d="m240.011 367.522 24.839-16.826-20.466-30.21-21.603 21.602z"/><path d="m17.574 398.804c-23.432 23.432-23.432 61.421 0 84.853 23.431 23.432 61.421 23.432 84.853 0 23.431-23.432 23.431-61.421 0-84.853-23.432-23.432-61.422-23.432-84.853 0zm42.128 63.938-21.214-21.213 21.214-21.213 21.213 21.213z"/><path d="m483.656 17.574c-23.431-23.432-61.421-23.432-84.853 0-21.722 21.722-23.291 55.949-4.737 79.497l-5.561-5.56c-17.573-17.574-46.065-17.574-63.639 0l-10.607 10.606 84.853 84.853 10.607-10.606c17.573-17.574 17.573-46.066 0-63.64l-5.56-5.56c23.548 18.554 57.774 16.984 79.496-4.738 23.433-23.431 23.433-61.421.001-84.852zm-42.117 63.33-21.213-21.213 21.213-21.213 21.214 21.213z"/><path d="m91.82 324.558c-17.574 17.574-17.574 46.066 0 63.64 7.419 7.419 13.794 13.794 21.213 21.213 17.573 17.574 46.066 17.573 63.64 0l10.308-10.309-84.853-84.853z"/></g></svg>