
<svg height="512pt" viewBox="-70 0 512 512" width="512pt" xmlns="http://www.w3.org/2000/svg"><path d="m156.601562 472.148438h-33.132812c-4.144531 0-7.5 3.359374-7.5 7.5 0 4.144531 3.355469 7.5 7.5 7.5h33.132812c4.140626 0 7.5-3.355469 7.5-7.5 0-4.140626-3.359374-7.5-7.5-7.5zm0 0"/><path d="m148.316406 33.132812h-49.699218c-4.144532 0-7.5 3.355469-7.5 7.5 0 4.144532 3.355468 7.5 7.5 7.5h49.699218c4.144532 0 7.5-3.355468 7.5-7.5 0-4.144531-3.355468-7.5-7.5-7.5zm0 0"/><path d="m181.449219 33.132812h-8.28125c-4.144531 0-7.5 3.355469-7.5 7.5 0 4.144532 3.355469 7.5 7.5 7.5h8.28125c4.144531 0 7.5-3.355468 7.5-7.5 0-4.144531-3.355469-7.5-7.5-7.5zm0 0"/><path d="m222.867188 215.367188c-22.402344 0-40.632813 18.226562-40.632813 40.632812s18.230469 40.632812 40.632813 40.632812c22.40625 0 40.632812-18.226562 40.632812-40.632812s-18.226562-40.632812-40.632812-40.632812zm0 66.265624c-14.132813 0-25.632813-11.496093-25.632813-25.632812s11.5-25.632812 25.632813-25.632812c14.136718 0 25.632812 11.496093 25.632812 25.632812s-11.5 25.632812-25.632812 25.632812zm0 0"/><path d="m222.867188 182.234375c-40.675782 0-73.765626 33.089844-73.765626 73.765625s33.089844 73.765625 73.765626 73.765625c40.675781 0 73.769531-33.089844 73.769531-73.765625s-33.09375-73.765625-73.769531-73.765625zm0 132.53125c-32.402344 0-58.765626-26.359375-58.765626-58.765625s26.363282-58.765625 58.765626-58.765625c32.40625 0 58.769531 26.359375 58.769531 58.765625s-26.363281 58.765625-58.769531 58.765625zm0 0"/><path d="m358.496094 222.464844-17.84375-3.570313c-2.164063-6.875-4.933594-13.550781-8.265625-19.9375l10.097656-15.144531c4.160156-6.238281 3.328125-14.617188-1.972656-19.917969l-25.539063-25.539062c-5.300781-5.300781-13.675781-6.128907-19.914062-1.972657l-14.992188 9.992188v-105.742188c0-22.40625-18.226562-40.632812-40.632812-40.632812h-198.800782c-22.40625 0-40.632812 18.230469-40.632812 40.632812v134.121094c0 4.140625 3.359375 7.5 7.5 7.5s7.5-3.359375 7.5-7.5v-110.054687h45.847656l6.210938 12.421875c1.269531 2.542968 3.867187 4.148437 6.707031 4.148437h132.535156c2.839844 0 5.4375-1.605469 6.707031-4.148437l6.210938-12.421875h45.847656v75.242187c-1.683594-.613281-3.382812-1.1875-5.09375-1.726562l-3.566406-17.84375c-1.472656-7.355469-7.980469-12.6875-15.480469-12.6875h-36.117187c-7.496094 0-14.007813 5.335937-15.476563 12.6875l-3.570312 17.84375c-6.875 2.164062-13.550781 4.929687-19.9375 8.261718l-15.148438-10.097656c-6.238281-4.15625-14.613281-3.324218-19.914062 1.972656l-25.539063 25.542969c-5.300781 5.300781-6.132812 13.675781-1.972656 19.914063l10.097656 15.144531c-3.335937 6.390625-6.101562 13.066406-8.261718 19.941406l-17.847657 3.566407c-7.351562 1.472656-12.6875 7.980468-12.6875 15.476562v36.121094c0 7.496094 5.335938 14.003906 12.6875 15.476562l17.847657 3.570313c2.160156 6.871093 4.929687 13.550781 8.261718 19.9375l-10.101562 15.144531c-4.15625 6.242188-3.328125 14.617188 1.976562 19.917969l25.539063 25.539062c5.300781 5.300781 13.675781 6.132813 19.914062 1.972657l15.148438-10.097657c6.386719 3.332031 13.066406 6.097657 19.9375 8.261719l3.570312 17.847656c1.46875 7.351563 7.980469 12.6875 15.476563 12.6875h36.117187c7.5 0 14.007813-5.335937 15.480469-12.6875l3.566406-17.847656c1.710938-.539062 3.410156-1.113281 5.09375-1.726562v75.246093h-250.066406v-242.554687c0-4.140625-3.359375-7.5-7.5-7.5s-7.5 3.359375-7.5 7.5v266.621094c0 22.402343 18.226562 40.632812 40.632812 40.632812h198.800782c10.851562 0 21.058594-4.226562 28.730468-11.902344 7.675782-7.671875 11.902344-17.878906 11.902344-28.730468v-105.742188l14.992188 9.992188c6.238281 4.160156 14.613281 3.332031 19.914062-1.972657l25.539063-25.539062c5.300781-5.300781 6.132812-13.679688 1.972656-19.914063l-10.097656-15.148437c3.332031-6.386719 6.097656-13.0625 8.261719-19.9375l17.847656-3.570313c7.351562-1.46875 12.6875-7.976562 12.6875-15.476562v-36.117188c0-7.5-5.335938-14.007812-12.6875-15.476562zm-143.914063-172.761719c-2.839843 0-5.4375 1.605469-6.707031 4.144531l-6.210938 12.421875h-123.261718l-6.210938-12.421875c-1.269531-2.539062-3.867187-4.144531-6.707031-4.144531h-50.484375v-9.066406c0-14.136719 11.5-25.636719 25.632812-25.636719h198.800782c14.132812 0 25.632812 11.5 25.632812 25.632812v9.070313zm42.976563 439.789063c-4.839844 4.84375-11.277344 7.507812-18.125 7.507812h-198.800782c-14.132812 0-25.632812-11.5-25.632812-25.632812v-9.066407h250.066406v9.066407c0 6.847656-2.664062 13.28125-7.507812 18.125zm98.625-215.433594c0 .375-.265625.695312-.628906.769531l-22.289063 4.457031c-2.785156.558594-5.019531 2.640625-5.765625 5.375-2.390625 8.753906-5.886719 17.183594-10.382812 25.054688-1.40625 2.464844-1.300782 5.515625.273437 7.878906l12.613281 18.917969c.207032.308593.164063.726562-.101562.988281l-25.539063 25.539062c-.261719.265626-.675781.308594-.984375.097657l-18.917968-12.609375c-2.363282-1.578125-5.414063-1.683594-7.882813-.273438-7.875 4.5-16.304687 7.988282-25.050781 10.378906-2.738282.75-4.820313 2.980469-5.375 5.765626l-4.460938 22.289062c-.070312.367188-.394531.632812-.765625.632812h-36.117187c-.375 0-.695313-.265624-.769532-.632812l-4.457031-22.289062c-.558593-2.785157-2.640625-5.015626-5.378906-5.765626-8.746094-2.390624-17.175781-5.882812-25.050781-10.378906-1.152344-.660156-2.4375-.988281-3.71875-.988281-1.453125 0-2.902344.421875-4.160156 1.261719l-18.917969 12.609375c-.308594.207031-.722657.167969-.988281-.097657l-25.539063-25.539062c-.265625-.261719-.304687-.679688-.097656-.988281l12.609375-18.917969c1.578125-2.363281 1.683594-5.414062.273437-7.878906-4.496093-7.875-7.988281-16.304688-10.378906-25.050782-.75-2.738281-2.980469-4.820312-5.765625-5.378906l-22.289062-4.457031c-.367188-.074219-.628907-.394531-.628907-.765625v-36.121094c0-.375.261719-.695312.628907-.769531l22.289062-4.457031c2.785156-.558594 5.015625-2.640625 5.765625-5.378906 2.390625-8.746094 5.882813-17.175782 10.378906-25.050782 1.410157-2.464844 1.300781-5.515625-.273437-7.878906l-12.609375-18.917969c-.207031-.308593-.167969-.726562.097656-.988281l25.539063-25.539062c.261718-.265626.679687-.308594.988281-.101563l18.917969 12.613281c2.363281 1.578125 5.414062 1.679688 7.878906.273438 7.875-4.496094 16.304687-7.988282 25.050781-10.378906 2.738281-.75 4.820313-2.980469 5.378906-5.765626l4.457031-22.289062c.074219-.367188.394532-.632812.769532-.632812h36.117187c.371094 0 .695313.265624.765625.632812l4.460938 22.289062c.554687 2.785157 2.636718 5.015626 5.375 5.765626 8.75 2.390624 17.175781 5.878906 25.050781 10.378906 2.464844 1.40625 5.515625 1.304687 7.878906-.273438l18.917969-12.609375c.3125-.210937.726562-.167969.988281.097657l25.539063 25.539062c.265625.261719.308594.679688.101562.988281l-12.613281 18.917969c-1.574219 2.363281-1.679687 5.414062-.269531 7.878906 4.496094 7.871094 7.988281 16.300782 10.378906 25.054688.75 2.734375 2.980469 4.816406 5.765625 5.375l22.289063 4.457031c.367187.074219.628906.398437.628906.769531zm0 0"/></svg>